G04 #@! TF.GenerationSoftware,KiCad,Pcbnew,(5.0.2)-1*
G04 #@! TF.CreationDate,2019-05-20T19:12:37+02:00*
G04 #@! TF.ProjectId,Carte capteurs 2,43617274-6520-4636-9170-746575727320,rev?*
G04 #@! TF.SameCoordinates,Original*
G04 #@! TF.FileFunction,Soldermask,Bot*
G04 #@! TF.FilePolarity,Negative*
%FSLAX46Y46*%
G04 Gerber Fmt 4.6, Leading zero omitted, Abs format (unit mm)*
G04 Created by KiCad (PCBNEW (5.0.2)-1) date 20/05/2019 19:12:37*
%MOMM*%
%LPD*%
G01*
G04 APERTURE LIST*
%ADD10C,0.100000*%
G04 APERTURE END LIST*
D10*
G36*
X38107006Y-86783582D02*
X38507565Y-86949499D01*
X38868059Y-87190373D01*
X39174627Y-87496941D01*
X39415501Y-87857435D01*
X39581418Y-88257994D01*
X39666000Y-88683219D01*
X39666000Y-89116781D01*
X39581418Y-89542006D01*
X39415501Y-89942565D01*
X39174627Y-90303059D01*
X38868059Y-90609627D01*
X38507565Y-90850501D01*
X38107006Y-91016418D01*
X37681781Y-91101000D01*
X37248219Y-91101000D01*
X36822994Y-91016418D01*
X36422435Y-90850501D01*
X36061941Y-90609627D01*
X35755373Y-90303059D01*
X35514499Y-89942565D01*
X35348582Y-89542006D01*
X35264000Y-89116781D01*
X35264000Y-88683219D01*
X35348582Y-88257994D01*
X35514499Y-87857435D01*
X35755373Y-87496941D01*
X36061941Y-87190373D01*
X36422435Y-86949499D01*
X36822994Y-86783582D01*
X37248219Y-86699000D01*
X37681781Y-86699000D01*
X38107006Y-86783582D01*
X38107006Y-86783582D01*
G37*
G36*
X70492006Y-86783582D02*
X70892565Y-86949499D01*
X71253059Y-87190373D01*
X71559627Y-87496941D01*
X71800501Y-87857435D01*
X71966418Y-88257994D01*
X72051000Y-88683219D01*
X72051000Y-89116781D01*
X71966418Y-89542006D01*
X71800501Y-89942565D01*
X71559627Y-90303059D01*
X71253059Y-90609627D01*
X70892565Y-90850501D01*
X70492006Y-91016418D01*
X70066781Y-91101000D01*
X69633219Y-91101000D01*
X69207994Y-91016418D01*
X68807435Y-90850501D01*
X68446941Y-90609627D01*
X68140373Y-90303059D01*
X67899499Y-89942565D01*
X67733582Y-89542006D01*
X67649000Y-89116781D01*
X67649000Y-88683219D01*
X67733582Y-88257994D01*
X67899499Y-87857435D01*
X68140373Y-87496941D01*
X68446941Y-87190373D01*
X68807435Y-86949499D01*
X69207994Y-86783582D01*
X69633219Y-86699000D01*
X70066781Y-86699000D01*
X70492006Y-86783582D01*
X70492006Y-86783582D01*
G37*
G36*
X37284891Y-80239018D02*
X37403362Y-80288090D01*
X37509993Y-80359339D01*
X37600663Y-80450009D01*
X37671912Y-80556640D01*
X37720984Y-80675111D01*
X37746001Y-80800882D01*
X37746001Y-80929120D01*
X37720984Y-81054891D01*
X37671912Y-81173362D01*
X37600663Y-81279993D01*
X37509993Y-81370663D01*
X37403362Y-81441912D01*
X37284891Y-81490984D01*
X37159120Y-81516001D01*
X37030882Y-81516001D01*
X36905111Y-81490984D01*
X36786640Y-81441912D01*
X36680009Y-81370663D01*
X36589339Y-81279993D01*
X36518090Y-81173362D01*
X36469018Y-81054891D01*
X36444001Y-80929120D01*
X36444001Y-80800882D01*
X36469018Y-80675111D01*
X36518090Y-80556640D01*
X36589339Y-80450009D01*
X36680009Y-80359339D01*
X36786640Y-80288090D01*
X36905111Y-80239018D01*
X37030882Y-80214001D01*
X37159120Y-80214001D01*
X37284891Y-80239018D01*
X37284891Y-80239018D01*
G37*
G36*
X70284891Y-80239018D02*
X70403362Y-80288090D01*
X70509993Y-80359339D01*
X70600663Y-80450009D01*
X70671912Y-80556640D01*
X70720984Y-80675111D01*
X70746001Y-80800882D01*
X70746001Y-80929120D01*
X70720984Y-81054891D01*
X70671912Y-81173362D01*
X70600663Y-81279993D01*
X70509993Y-81370663D01*
X70403362Y-81441912D01*
X70284891Y-81490984D01*
X70159120Y-81516001D01*
X70030882Y-81516001D01*
X69905111Y-81490984D01*
X69786640Y-81441912D01*
X69680009Y-81370663D01*
X69589339Y-81279993D01*
X69518090Y-81173362D01*
X69469018Y-81054891D01*
X69444001Y-80929120D01*
X69444001Y-80800882D01*
X69469018Y-80675111D01*
X69518090Y-80556640D01*
X69589339Y-80450009D01*
X69680009Y-80359339D01*
X69786640Y-80288090D01*
X69905111Y-80239018D01*
X70030882Y-80214001D01*
X70159120Y-80214001D01*
X70284891Y-80239018D01*
X70284891Y-80239018D01*
G37*
G36*
X56818458Y-53738684D02*
X58829611Y-54571731D01*
X60639606Y-55781131D01*
X62178871Y-57320396D01*
X63388271Y-59130391D01*
X64221318Y-61141544D01*
X64646001Y-63276571D01*
X64646001Y-65453431D01*
X64221318Y-67588458D01*
X63388271Y-69599611D01*
X62178871Y-71409606D01*
X60639606Y-72948871D01*
X58829611Y-74158271D01*
X56818458Y-74991318D01*
X54683431Y-75416001D01*
X52506571Y-75416001D01*
X50371544Y-74991318D01*
X48360391Y-74158271D01*
X46550396Y-72948871D01*
X45011131Y-71409606D01*
X43801731Y-69599611D01*
X42968684Y-67588458D01*
X42544001Y-65453431D01*
X42544001Y-63276571D01*
X42968684Y-61141544D01*
X43801731Y-59130391D01*
X45011131Y-57320396D01*
X46550396Y-55781131D01*
X48360391Y-54571731D01*
X50371544Y-53738684D01*
X52506571Y-53314001D01*
X54683431Y-53314001D01*
X56818458Y-53738684D01*
X56818458Y-53738684D01*
G37*
G36*
X53828644Y-47594782D02*
X53974416Y-47655163D01*
X54105612Y-47742825D01*
X54217177Y-47854390D01*
X54304839Y-47985586D01*
X54365220Y-48131358D01*
X54396001Y-48286108D01*
X54396001Y-48443894D01*
X54365220Y-48598644D01*
X54304839Y-48744416D01*
X54217177Y-48875612D01*
X54105612Y-48987177D01*
X53974416Y-49074839D01*
X53828644Y-49135220D01*
X53673894Y-49166001D01*
X53516108Y-49166001D01*
X53361358Y-49135220D01*
X53215586Y-49074839D01*
X53084390Y-48987177D01*
X52972825Y-48875612D01*
X52885163Y-48744416D01*
X52824782Y-48598644D01*
X52794001Y-48443894D01*
X52794001Y-48286108D01*
X52824782Y-48131358D01*
X52885163Y-47985586D01*
X52972825Y-47854390D01*
X53084390Y-47742825D01*
X53215586Y-47655163D01*
X53361358Y-47594782D01*
X53516108Y-47564001D01*
X53673894Y-47564001D01*
X53828644Y-47594782D01*
X53828644Y-47594782D01*
G37*
G36*
X37284891Y-47239018D02*
X37403362Y-47288090D01*
X37509993Y-47359339D01*
X37600663Y-47450009D01*
X37671912Y-47556640D01*
X37720984Y-47675111D01*
X37746001Y-47800882D01*
X37746001Y-47929120D01*
X37720984Y-48054891D01*
X37671912Y-48173362D01*
X37600663Y-48279993D01*
X37509993Y-48370663D01*
X37403362Y-48441912D01*
X37284891Y-48490984D01*
X37159120Y-48516001D01*
X37030882Y-48516001D01*
X36905111Y-48490984D01*
X36786640Y-48441912D01*
X36680009Y-48370663D01*
X36589339Y-48279993D01*
X36518090Y-48173362D01*
X36469018Y-48054891D01*
X36444001Y-47929120D01*
X36444001Y-47800882D01*
X36469018Y-47675111D01*
X36518090Y-47556640D01*
X36589339Y-47450009D01*
X36680009Y-47359339D01*
X36786640Y-47288090D01*
X36905111Y-47239018D01*
X37030882Y-47214001D01*
X37159120Y-47214001D01*
X37284891Y-47239018D01*
X37284891Y-47239018D01*
G37*
G36*
X70284891Y-47239018D02*
X70403362Y-47288090D01*
X70509993Y-47359339D01*
X70600663Y-47450009D01*
X70671912Y-47556640D01*
X70720984Y-47675111D01*
X70746001Y-47800882D01*
X70746001Y-47929120D01*
X70720984Y-48054891D01*
X70671912Y-48173362D01*
X70600663Y-48279993D01*
X70509993Y-48370663D01*
X70403362Y-48441912D01*
X70284891Y-48490984D01*
X70159120Y-48516001D01*
X70030882Y-48516001D01*
X69905111Y-48490984D01*
X69786640Y-48441912D01*
X69680009Y-48370663D01*
X69589339Y-48279993D01*
X69518090Y-48173362D01*
X69469018Y-48054891D01*
X69444001Y-47929120D01*
X69444001Y-47800882D01*
X69469018Y-47675111D01*
X69518090Y-47556640D01*
X69589339Y-47450009D01*
X69680009Y-47359339D01*
X69786640Y-47288090D01*
X69905111Y-47239018D01*
X70030882Y-47214001D01*
X70159120Y-47214001D01*
X70284891Y-47239018D01*
X70284891Y-47239018D01*
G37*
G36*
X53828644Y-45054782D02*
X53974416Y-45115163D01*
X54105612Y-45202825D01*
X54217177Y-45314390D01*
X54304839Y-45445586D01*
X54365220Y-45591358D01*
X54396001Y-45746108D01*
X54396001Y-45903894D01*
X54365220Y-46058644D01*
X54304839Y-46204416D01*
X54217177Y-46335612D01*
X54105612Y-46447177D01*
X53974416Y-46534839D01*
X53828644Y-46595220D01*
X53673894Y-46626001D01*
X53516108Y-46626001D01*
X53361358Y-46595220D01*
X53215586Y-46534839D01*
X53084390Y-46447177D01*
X52972825Y-46335612D01*
X52885163Y-46204416D01*
X52824782Y-46058644D01*
X52794001Y-45903894D01*
X52794001Y-45746108D01*
X52824782Y-45591358D01*
X52885163Y-45445586D01*
X52972825Y-45314390D01*
X53084390Y-45202825D01*
X53215586Y-45115163D01*
X53361358Y-45054782D01*
X53516108Y-45024001D01*
X53673894Y-45024001D01*
X53828644Y-45054782D01*
X53828644Y-45054782D01*
G37*
G36*
X53828644Y-42514782D02*
X53974416Y-42575163D01*
X54105612Y-42662825D01*
X54217177Y-42774390D01*
X54304839Y-42905586D01*
X54365220Y-43051358D01*
X54396001Y-43206108D01*
X54396001Y-43363894D01*
X54365220Y-43518644D01*
X54304839Y-43664416D01*
X54217177Y-43795612D01*
X54105612Y-43907177D01*
X53974416Y-43994839D01*
X53828644Y-44055220D01*
X53673894Y-44086001D01*
X53516108Y-44086001D01*
X53361358Y-44055220D01*
X53215586Y-43994839D01*
X53084390Y-43907177D01*
X52972825Y-43795612D01*
X52885163Y-43664416D01*
X52824782Y-43518644D01*
X52794001Y-43363894D01*
X52794001Y-43206108D01*
X52824782Y-43051358D01*
X52885163Y-42905586D01*
X52972825Y-42774390D01*
X53084390Y-42662825D01*
X53215586Y-42575163D01*
X53361358Y-42514782D01*
X53516108Y-42484001D01*
X53673894Y-42484001D01*
X53828644Y-42514782D01*
X53828644Y-42514782D01*
G37*
G36*
X54396001Y-41546001D02*
X52794001Y-41546001D01*
X52794001Y-39944001D01*
X54396001Y-39944001D01*
X54396001Y-41546001D01*
X54396001Y-41546001D01*
G37*
G36*
X72653567Y-38044959D02*
X72784072Y-38070918D01*
X73029939Y-38172759D01*
X73250464Y-38320110D01*
X73251215Y-38320612D01*
X73439388Y-38508785D01*
X73439390Y-38508788D01*
X73587241Y-38730061D01*
X73643966Y-38867009D01*
X73689082Y-38975929D01*
X73741000Y-39236937D01*
X73741000Y-39503063D01*
X73715041Y-39633567D01*
X73689082Y-39764072D01*
X73587241Y-40009939D01*
X73511843Y-40122779D01*
X73439388Y-40231215D01*
X73251215Y-40419388D01*
X73251212Y-40419390D01*
X73029939Y-40567241D01*
X72784072Y-40669082D01*
X72653567Y-40695041D01*
X72523063Y-40721000D01*
X72256937Y-40721000D01*
X72126433Y-40695041D01*
X71995928Y-40669082D01*
X71750061Y-40567241D01*
X71528788Y-40419390D01*
X71528785Y-40419388D01*
X71340612Y-40231215D01*
X71268157Y-40122779D01*
X71192759Y-40009939D01*
X71090918Y-39764072D01*
X71064959Y-39633567D01*
X71039000Y-39503063D01*
X71039000Y-39236937D01*
X71090918Y-38975929D01*
X71136034Y-38867009D01*
X71192759Y-38730061D01*
X71340610Y-38508788D01*
X71340612Y-38508785D01*
X71528785Y-38320612D01*
X71529536Y-38320110D01*
X71750061Y-38172759D01*
X71995928Y-38070918D01*
X72126433Y-38044959D01*
X72256937Y-38019000D01*
X72523063Y-38019000D01*
X72653567Y-38044959D01*
X72653567Y-38044959D01*
G37*
G36*
X46621000Y-40271000D02*
X44819000Y-40271000D01*
X44819000Y-38469000D01*
X46621000Y-38469000D01*
X46621000Y-40271000D01*
X46621000Y-40271000D01*
G37*
G36*
X43290443Y-38475519D02*
X43356627Y-38482037D01*
X43444813Y-38508788D01*
X43526467Y-38533557D01*
X43665087Y-38607652D01*
X43682991Y-38617222D01*
X43718729Y-38646552D01*
X43820186Y-38729814D01*
X43903448Y-38831271D01*
X43932778Y-38867009D01*
X43932779Y-38867011D01*
X44016443Y-39023533D01*
X44016443Y-39023534D01*
X44067963Y-39193373D01*
X44085359Y-39370000D01*
X44067963Y-39546627D01*
X44033616Y-39659853D01*
X44016443Y-39716467D01*
X43990997Y-39764072D01*
X43932778Y-39872991D01*
X43903448Y-39908729D01*
X43820186Y-40010186D01*
X43718729Y-40093448D01*
X43682991Y-40122778D01*
X43682989Y-40122779D01*
X43526467Y-40206443D01*
X43469853Y-40223616D01*
X43356627Y-40257963D01*
X43290443Y-40264481D01*
X43224260Y-40271000D01*
X43135740Y-40271000D01*
X43069557Y-40264481D01*
X43003373Y-40257963D01*
X42890147Y-40223616D01*
X42833533Y-40206443D01*
X42677011Y-40122779D01*
X42677009Y-40122778D01*
X42641271Y-40093448D01*
X42539814Y-40010186D01*
X42456552Y-39908729D01*
X42427222Y-39872991D01*
X42369003Y-39764072D01*
X42343557Y-39716467D01*
X42326384Y-39659853D01*
X42292037Y-39546627D01*
X42274641Y-39370000D01*
X42292037Y-39193373D01*
X42343557Y-39023534D01*
X42343557Y-39023533D01*
X42427221Y-38867011D01*
X42427222Y-38867009D01*
X42456552Y-38831271D01*
X42539814Y-38729814D01*
X42641271Y-38646552D01*
X42677009Y-38617222D01*
X42694913Y-38607652D01*
X42833533Y-38533557D01*
X42915187Y-38508788D01*
X43003373Y-38482037D01*
X43069557Y-38475519D01*
X43135740Y-38469000D01*
X43224260Y-38469000D01*
X43290443Y-38475519D01*
X43290443Y-38475519D01*
G37*
G36*
X40750443Y-38475519D02*
X40816627Y-38482037D01*
X40904813Y-38508788D01*
X40986467Y-38533557D01*
X41125087Y-38607652D01*
X41142991Y-38617222D01*
X41178729Y-38646552D01*
X41280186Y-38729814D01*
X41363448Y-38831271D01*
X41392778Y-38867009D01*
X41392779Y-38867011D01*
X41476443Y-39023533D01*
X41476443Y-39023534D01*
X41527963Y-39193373D01*
X41545359Y-39370000D01*
X41527963Y-39546627D01*
X41493616Y-39659853D01*
X41476443Y-39716467D01*
X41450997Y-39764072D01*
X41392778Y-39872991D01*
X41363448Y-39908729D01*
X41280186Y-40010186D01*
X41178729Y-40093448D01*
X41142991Y-40122778D01*
X41142989Y-40122779D01*
X40986467Y-40206443D01*
X40929853Y-40223616D01*
X40816627Y-40257963D01*
X40750443Y-40264481D01*
X40684260Y-40271000D01*
X40595740Y-40271000D01*
X40529557Y-40264481D01*
X40463373Y-40257963D01*
X40350147Y-40223616D01*
X40293533Y-40206443D01*
X40137011Y-40122779D01*
X40137009Y-40122778D01*
X40101271Y-40093448D01*
X39999814Y-40010186D01*
X39916552Y-39908729D01*
X39887222Y-39872991D01*
X39829003Y-39764072D01*
X39803557Y-39716467D01*
X39786384Y-39659853D01*
X39752037Y-39546627D01*
X39734641Y-39370000D01*
X39752037Y-39193373D01*
X39803557Y-39023534D01*
X39803557Y-39023533D01*
X39887221Y-38867011D01*
X39887222Y-38867009D01*
X39916552Y-38831271D01*
X39999814Y-38729814D01*
X40101271Y-38646552D01*
X40137009Y-38617222D01*
X40154913Y-38607652D01*
X40293533Y-38533557D01*
X40375187Y-38508788D01*
X40463373Y-38482037D01*
X40529557Y-38475519D01*
X40595740Y-38469000D01*
X40684260Y-38469000D01*
X40750443Y-38475519D01*
X40750443Y-38475519D01*
G37*
G36*
X38210443Y-38475519D02*
X38276627Y-38482037D01*
X38364813Y-38508788D01*
X38446467Y-38533557D01*
X38585087Y-38607652D01*
X38602991Y-38617222D01*
X38638729Y-38646552D01*
X38740186Y-38729814D01*
X38823448Y-38831271D01*
X38852778Y-38867009D01*
X38852779Y-38867011D01*
X38936443Y-39023533D01*
X38936443Y-39023534D01*
X38987963Y-39193373D01*
X39005359Y-39370000D01*
X38987963Y-39546627D01*
X38953616Y-39659853D01*
X38936443Y-39716467D01*
X38910997Y-39764072D01*
X38852778Y-39872991D01*
X38823448Y-39908729D01*
X38740186Y-40010186D01*
X38638729Y-40093448D01*
X38602991Y-40122778D01*
X38602989Y-40122779D01*
X38446467Y-40206443D01*
X38389853Y-40223616D01*
X38276627Y-40257963D01*
X38210443Y-40264481D01*
X38144260Y-40271000D01*
X38055740Y-40271000D01*
X37989557Y-40264481D01*
X37923373Y-40257963D01*
X37810147Y-40223616D01*
X37753533Y-40206443D01*
X37597011Y-40122779D01*
X37597009Y-40122778D01*
X37561271Y-40093448D01*
X37459814Y-40010186D01*
X37376552Y-39908729D01*
X37347222Y-39872991D01*
X37289003Y-39764072D01*
X37263557Y-39716467D01*
X37246384Y-39659853D01*
X37212037Y-39546627D01*
X37194641Y-39370000D01*
X37212037Y-39193373D01*
X37263557Y-39023534D01*
X37263557Y-39023533D01*
X37347221Y-38867011D01*
X37347222Y-38867009D01*
X37376552Y-38831271D01*
X37459814Y-38729814D01*
X37561271Y-38646552D01*
X37597009Y-38617222D01*
X37614913Y-38607652D01*
X37753533Y-38533557D01*
X37835187Y-38508788D01*
X37923373Y-38482037D01*
X37989557Y-38475519D01*
X38055740Y-38469000D01*
X38144260Y-38469000D01*
X38210443Y-38475519D01*
X38210443Y-38475519D01*
G37*
G36*
X35670443Y-38475519D02*
X35736627Y-38482037D01*
X35824813Y-38508788D01*
X35906467Y-38533557D01*
X36045087Y-38607652D01*
X36062991Y-38617222D01*
X36098729Y-38646552D01*
X36200186Y-38729814D01*
X36283448Y-38831271D01*
X36312778Y-38867009D01*
X36312779Y-38867011D01*
X36396443Y-39023533D01*
X36396443Y-39023534D01*
X36447963Y-39193373D01*
X36465359Y-39370000D01*
X36447963Y-39546627D01*
X36413616Y-39659853D01*
X36396443Y-39716467D01*
X36370997Y-39764072D01*
X36312778Y-39872991D01*
X36283448Y-39908729D01*
X36200186Y-40010186D01*
X36098729Y-40093448D01*
X36062991Y-40122778D01*
X36062989Y-40122779D01*
X35906467Y-40206443D01*
X35849853Y-40223616D01*
X35736627Y-40257963D01*
X35670443Y-40264481D01*
X35604260Y-40271000D01*
X35515740Y-40271000D01*
X35449557Y-40264481D01*
X35383373Y-40257963D01*
X35270147Y-40223616D01*
X35213533Y-40206443D01*
X35057011Y-40122779D01*
X35057009Y-40122778D01*
X35021271Y-40093448D01*
X34919814Y-40010186D01*
X34836552Y-39908729D01*
X34807222Y-39872991D01*
X34749003Y-39764072D01*
X34723557Y-39716467D01*
X34706384Y-39659853D01*
X34672037Y-39546627D01*
X34654641Y-39370000D01*
X34672037Y-39193373D01*
X34723557Y-39023534D01*
X34723557Y-39023533D01*
X34807221Y-38867011D01*
X34807222Y-38867009D01*
X34836552Y-38831271D01*
X34919814Y-38729814D01*
X35021271Y-38646552D01*
X35057009Y-38617222D01*
X35074913Y-38607652D01*
X35213533Y-38533557D01*
X35295187Y-38508788D01*
X35383373Y-38482037D01*
X35449557Y-38475519D01*
X35515740Y-38469000D01*
X35604260Y-38469000D01*
X35670443Y-38475519D01*
X35670443Y-38475519D01*
G37*
G36*
X38107006Y-28363582D02*
X38507565Y-28529499D01*
X38868059Y-28770373D01*
X39174627Y-29076941D01*
X39415501Y-29437435D01*
X39581418Y-29837994D01*
X39666000Y-30263219D01*
X39666000Y-30696781D01*
X39581418Y-31122006D01*
X39415501Y-31522565D01*
X39174627Y-31883059D01*
X38868059Y-32189627D01*
X38507565Y-32430501D01*
X38107006Y-32596418D01*
X37681781Y-32681000D01*
X37248219Y-32681000D01*
X36822994Y-32596418D01*
X36422435Y-32430501D01*
X36061941Y-32189627D01*
X35755373Y-31883059D01*
X35514499Y-31522565D01*
X35348582Y-31122006D01*
X35264000Y-30696781D01*
X35264000Y-30263219D01*
X35348582Y-29837994D01*
X35514499Y-29437435D01*
X35755373Y-29076941D01*
X36061941Y-28770373D01*
X36422435Y-28529499D01*
X36822994Y-28363582D01*
X37248219Y-28279000D01*
X37681781Y-28279000D01*
X38107006Y-28363582D01*
X38107006Y-28363582D01*
G37*
G36*
X70492006Y-28363582D02*
X70892565Y-28529499D01*
X71253059Y-28770373D01*
X71559627Y-29076941D01*
X71800501Y-29437435D01*
X71966418Y-29837994D01*
X72051000Y-30263219D01*
X72051000Y-30696781D01*
X71966418Y-31122006D01*
X71800501Y-31522565D01*
X71559627Y-31883059D01*
X71253059Y-32189627D01*
X70892565Y-32430501D01*
X70492006Y-32596418D01*
X70066781Y-32681000D01*
X69633219Y-32681000D01*
X69207994Y-32596418D01*
X68807435Y-32430501D01*
X68446941Y-32189627D01*
X68140373Y-31883059D01*
X67899499Y-31522565D01*
X67733582Y-31122006D01*
X67649000Y-30696781D01*
X67649000Y-30263219D01*
X67733582Y-29837994D01*
X67899499Y-29437435D01*
X68140373Y-29076941D01*
X68446941Y-28770373D01*
X68807435Y-28529499D01*
X69207994Y-28363582D01*
X69633219Y-28279000D01*
X70066781Y-28279000D01*
X70492006Y-28363582D01*
X70492006Y-28363582D01*
G37*
M02*
