G04 #@! TF.GenerationSoftware,KiCad,Pcbnew,(5.0.2)-1*
G04 #@! TF.CreationDate,2019-05-20T19:12:17+02:00*
G04 #@! TF.ProjectId,Carte capteurs 2,43617274-6520-4636-9170-746575727320,rev?*
G04 #@! TF.SameCoordinates,Original*
G04 #@! TF.FileFunction,Paste,Top*
G04 #@! TF.FilePolarity,Positive*
%FSLAX46Y46*%
G04 Gerber Fmt 4.6, Leading zero omitted, Abs format (unit mm)*
G04 Created by KiCad (PCBNEW (5.0.2)-1) date 20/05/2019 19:12:17*
%MOMM*%
%LPD*%
G01*
G04 APERTURE LIST*
%ADD10C,0.100000*%
%ADD11C,0.875000*%
%ADD12R,1.550000X0.600000*%
G04 APERTURE END LIST*
D10*
G04 #@! TO.C,C1*
G36*
X37375191Y-42706053D02*
X37396426Y-42709203D01*
X37417250Y-42714419D01*
X37437462Y-42721651D01*
X37456868Y-42730830D01*
X37475281Y-42741866D01*
X37492524Y-42754654D01*
X37508430Y-42769070D01*
X37522846Y-42784976D01*
X37535634Y-42802219D01*
X37546670Y-42820632D01*
X37555849Y-42840038D01*
X37563081Y-42860250D01*
X37568297Y-42881074D01*
X37571447Y-42902309D01*
X37572500Y-42923750D01*
X37572500Y-43436250D01*
X37571447Y-43457691D01*
X37568297Y-43478926D01*
X37563081Y-43499750D01*
X37555849Y-43519962D01*
X37546670Y-43539368D01*
X37535634Y-43557781D01*
X37522846Y-43575024D01*
X37508430Y-43590930D01*
X37492524Y-43605346D01*
X37475281Y-43618134D01*
X37456868Y-43629170D01*
X37437462Y-43638349D01*
X37417250Y-43645581D01*
X37396426Y-43650797D01*
X37375191Y-43653947D01*
X37353750Y-43655000D01*
X36916250Y-43655000D01*
X36894809Y-43653947D01*
X36873574Y-43650797D01*
X36852750Y-43645581D01*
X36832538Y-43638349D01*
X36813132Y-43629170D01*
X36794719Y-43618134D01*
X36777476Y-43605346D01*
X36761570Y-43590930D01*
X36747154Y-43575024D01*
X36734366Y-43557781D01*
X36723330Y-43539368D01*
X36714151Y-43519962D01*
X36706919Y-43499750D01*
X36701703Y-43478926D01*
X36698553Y-43457691D01*
X36697500Y-43436250D01*
X36697500Y-42923750D01*
X36698553Y-42902309D01*
X36701703Y-42881074D01*
X36706919Y-42860250D01*
X36714151Y-42840038D01*
X36723330Y-42820632D01*
X36734366Y-42802219D01*
X36747154Y-42784976D01*
X36761570Y-42769070D01*
X36777476Y-42754654D01*
X36794719Y-42741866D01*
X36813132Y-42730830D01*
X36832538Y-42721651D01*
X36852750Y-42714419D01*
X36873574Y-42709203D01*
X36894809Y-42706053D01*
X36916250Y-42705000D01*
X37353750Y-42705000D01*
X37375191Y-42706053D01*
X37375191Y-42706053D01*
G37*
D11*
X37135000Y-43180000D03*
D10*
G36*
X35800191Y-42706053D02*
X35821426Y-42709203D01*
X35842250Y-42714419D01*
X35862462Y-42721651D01*
X35881868Y-42730830D01*
X35900281Y-42741866D01*
X35917524Y-42754654D01*
X35933430Y-42769070D01*
X35947846Y-42784976D01*
X35960634Y-42802219D01*
X35971670Y-42820632D01*
X35980849Y-42840038D01*
X35988081Y-42860250D01*
X35993297Y-42881074D01*
X35996447Y-42902309D01*
X35997500Y-42923750D01*
X35997500Y-43436250D01*
X35996447Y-43457691D01*
X35993297Y-43478926D01*
X35988081Y-43499750D01*
X35980849Y-43519962D01*
X35971670Y-43539368D01*
X35960634Y-43557781D01*
X35947846Y-43575024D01*
X35933430Y-43590930D01*
X35917524Y-43605346D01*
X35900281Y-43618134D01*
X35881868Y-43629170D01*
X35862462Y-43638349D01*
X35842250Y-43645581D01*
X35821426Y-43650797D01*
X35800191Y-43653947D01*
X35778750Y-43655000D01*
X35341250Y-43655000D01*
X35319809Y-43653947D01*
X35298574Y-43650797D01*
X35277750Y-43645581D01*
X35257538Y-43638349D01*
X35238132Y-43629170D01*
X35219719Y-43618134D01*
X35202476Y-43605346D01*
X35186570Y-43590930D01*
X35172154Y-43575024D01*
X35159366Y-43557781D01*
X35148330Y-43539368D01*
X35139151Y-43519962D01*
X35131919Y-43499750D01*
X35126703Y-43478926D01*
X35123553Y-43457691D01*
X35122500Y-43436250D01*
X35122500Y-42923750D01*
X35123553Y-42902309D01*
X35126703Y-42881074D01*
X35131919Y-42860250D01*
X35139151Y-42840038D01*
X35148330Y-42820632D01*
X35159366Y-42802219D01*
X35172154Y-42784976D01*
X35186570Y-42769070D01*
X35202476Y-42754654D01*
X35219719Y-42741866D01*
X35238132Y-42730830D01*
X35257538Y-42721651D01*
X35277750Y-42714419D01*
X35298574Y-42709203D01*
X35319809Y-42706053D01*
X35341250Y-42705000D01*
X35778750Y-42705000D01*
X35800191Y-42706053D01*
X35800191Y-42706053D01*
G37*
D11*
X35560000Y-43180000D03*
G04 #@! TD*
D10*
G04 #@! TO.C,C2*
G36*
X69607691Y-42706053D02*
X69628926Y-42709203D01*
X69649750Y-42714419D01*
X69669962Y-42721651D01*
X69689368Y-42730830D01*
X69707781Y-42741866D01*
X69725024Y-42754654D01*
X69740930Y-42769070D01*
X69755346Y-42784976D01*
X69768134Y-42802219D01*
X69779170Y-42820632D01*
X69788349Y-42840038D01*
X69795581Y-42860250D01*
X69800797Y-42881074D01*
X69803947Y-42902309D01*
X69805000Y-42923750D01*
X69805000Y-43436250D01*
X69803947Y-43457691D01*
X69800797Y-43478926D01*
X69795581Y-43499750D01*
X69788349Y-43519962D01*
X69779170Y-43539368D01*
X69768134Y-43557781D01*
X69755346Y-43575024D01*
X69740930Y-43590930D01*
X69725024Y-43605346D01*
X69707781Y-43618134D01*
X69689368Y-43629170D01*
X69669962Y-43638349D01*
X69649750Y-43645581D01*
X69628926Y-43650797D01*
X69607691Y-43653947D01*
X69586250Y-43655000D01*
X69148750Y-43655000D01*
X69127309Y-43653947D01*
X69106074Y-43650797D01*
X69085250Y-43645581D01*
X69065038Y-43638349D01*
X69045632Y-43629170D01*
X69027219Y-43618134D01*
X69009976Y-43605346D01*
X68994070Y-43590930D01*
X68979654Y-43575024D01*
X68966866Y-43557781D01*
X68955830Y-43539368D01*
X68946651Y-43519962D01*
X68939419Y-43499750D01*
X68934203Y-43478926D01*
X68931053Y-43457691D01*
X68930000Y-43436250D01*
X68930000Y-42923750D01*
X68931053Y-42902309D01*
X68934203Y-42881074D01*
X68939419Y-42860250D01*
X68946651Y-42840038D01*
X68955830Y-42820632D01*
X68966866Y-42802219D01*
X68979654Y-42784976D01*
X68994070Y-42769070D01*
X69009976Y-42754654D01*
X69027219Y-42741866D01*
X69045632Y-42730830D01*
X69065038Y-42721651D01*
X69085250Y-42714419D01*
X69106074Y-42709203D01*
X69127309Y-42706053D01*
X69148750Y-42705000D01*
X69586250Y-42705000D01*
X69607691Y-42706053D01*
X69607691Y-42706053D01*
G37*
D11*
X69367500Y-43180000D03*
D10*
G36*
X68032691Y-42706053D02*
X68053926Y-42709203D01*
X68074750Y-42714419D01*
X68094962Y-42721651D01*
X68114368Y-42730830D01*
X68132781Y-42741866D01*
X68150024Y-42754654D01*
X68165930Y-42769070D01*
X68180346Y-42784976D01*
X68193134Y-42802219D01*
X68204170Y-42820632D01*
X68213349Y-42840038D01*
X68220581Y-42860250D01*
X68225797Y-42881074D01*
X68228947Y-42902309D01*
X68230000Y-42923750D01*
X68230000Y-43436250D01*
X68228947Y-43457691D01*
X68225797Y-43478926D01*
X68220581Y-43499750D01*
X68213349Y-43519962D01*
X68204170Y-43539368D01*
X68193134Y-43557781D01*
X68180346Y-43575024D01*
X68165930Y-43590930D01*
X68150024Y-43605346D01*
X68132781Y-43618134D01*
X68114368Y-43629170D01*
X68094962Y-43638349D01*
X68074750Y-43645581D01*
X68053926Y-43650797D01*
X68032691Y-43653947D01*
X68011250Y-43655000D01*
X67573750Y-43655000D01*
X67552309Y-43653947D01*
X67531074Y-43650797D01*
X67510250Y-43645581D01*
X67490038Y-43638349D01*
X67470632Y-43629170D01*
X67452219Y-43618134D01*
X67434976Y-43605346D01*
X67419070Y-43590930D01*
X67404654Y-43575024D01*
X67391866Y-43557781D01*
X67380830Y-43539368D01*
X67371651Y-43519962D01*
X67364419Y-43499750D01*
X67359203Y-43478926D01*
X67356053Y-43457691D01*
X67355000Y-43436250D01*
X67355000Y-42923750D01*
X67356053Y-42902309D01*
X67359203Y-42881074D01*
X67364419Y-42860250D01*
X67371651Y-42840038D01*
X67380830Y-42820632D01*
X67391866Y-42802219D01*
X67404654Y-42784976D01*
X67419070Y-42769070D01*
X67434976Y-42754654D01*
X67452219Y-42741866D01*
X67470632Y-42730830D01*
X67490038Y-42721651D01*
X67510250Y-42714419D01*
X67531074Y-42709203D01*
X67552309Y-42706053D01*
X67573750Y-42705000D01*
X68011250Y-42705000D01*
X68032691Y-42706053D01*
X68032691Y-42706053D01*
G37*
D11*
X67792500Y-43180000D03*
G04 #@! TD*
D10*
G04 #@! TO.C,C3*
G36*
X46747691Y-42706053D02*
X46768926Y-42709203D01*
X46789750Y-42714419D01*
X46809962Y-42721651D01*
X46829368Y-42730830D01*
X46847781Y-42741866D01*
X46865024Y-42754654D01*
X46880930Y-42769070D01*
X46895346Y-42784976D01*
X46908134Y-42802219D01*
X46919170Y-42820632D01*
X46928349Y-42840038D01*
X46935581Y-42860250D01*
X46940797Y-42881074D01*
X46943947Y-42902309D01*
X46945000Y-42923750D01*
X46945000Y-43436250D01*
X46943947Y-43457691D01*
X46940797Y-43478926D01*
X46935581Y-43499750D01*
X46928349Y-43519962D01*
X46919170Y-43539368D01*
X46908134Y-43557781D01*
X46895346Y-43575024D01*
X46880930Y-43590930D01*
X46865024Y-43605346D01*
X46847781Y-43618134D01*
X46829368Y-43629170D01*
X46809962Y-43638349D01*
X46789750Y-43645581D01*
X46768926Y-43650797D01*
X46747691Y-43653947D01*
X46726250Y-43655000D01*
X46288750Y-43655000D01*
X46267309Y-43653947D01*
X46246074Y-43650797D01*
X46225250Y-43645581D01*
X46205038Y-43638349D01*
X46185632Y-43629170D01*
X46167219Y-43618134D01*
X46149976Y-43605346D01*
X46134070Y-43590930D01*
X46119654Y-43575024D01*
X46106866Y-43557781D01*
X46095830Y-43539368D01*
X46086651Y-43519962D01*
X46079419Y-43499750D01*
X46074203Y-43478926D01*
X46071053Y-43457691D01*
X46070000Y-43436250D01*
X46070000Y-42923750D01*
X46071053Y-42902309D01*
X46074203Y-42881074D01*
X46079419Y-42860250D01*
X46086651Y-42840038D01*
X46095830Y-42820632D01*
X46106866Y-42802219D01*
X46119654Y-42784976D01*
X46134070Y-42769070D01*
X46149976Y-42754654D01*
X46167219Y-42741866D01*
X46185632Y-42730830D01*
X46205038Y-42721651D01*
X46225250Y-42714419D01*
X46246074Y-42709203D01*
X46267309Y-42706053D01*
X46288750Y-42705000D01*
X46726250Y-42705000D01*
X46747691Y-42706053D01*
X46747691Y-42706053D01*
G37*
D11*
X46507500Y-43180000D03*
D10*
G36*
X45172691Y-42706053D02*
X45193926Y-42709203D01*
X45214750Y-42714419D01*
X45234962Y-42721651D01*
X45254368Y-42730830D01*
X45272781Y-42741866D01*
X45290024Y-42754654D01*
X45305930Y-42769070D01*
X45320346Y-42784976D01*
X45333134Y-42802219D01*
X45344170Y-42820632D01*
X45353349Y-42840038D01*
X45360581Y-42860250D01*
X45365797Y-42881074D01*
X45368947Y-42902309D01*
X45370000Y-42923750D01*
X45370000Y-43436250D01*
X45368947Y-43457691D01*
X45365797Y-43478926D01*
X45360581Y-43499750D01*
X45353349Y-43519962D01*
X45344170Y-43539368D01*
X45333134Y-43557781D01*
X45320346Y-43575024D01*
X45305930Y-43590930D01*
X45290024Y-43605346D01*
X45272781Y-43618134D01*
X45254368Y-43629170D01*
X45234962Y-43638349D01*
X45214750Y-43645581D01*
X45193926Y-43650797D01*
X45172691Y-43653947D01*
X45151250Y-43655000D01*
X44713750Y-43655000D01*
X44692309Y-43653947D01*
X44671074Y-43650797D01*
X44650250Y-43645581D01*
X44630038Y-43638349D01*
X44610632Y-43629170D01*
X44592219Y-43618134D01*
X44574976Y-43605346D01*
X44559070Y-43590930D01*
X44544654Y-43575024D01*
X44531866Y-43557781D01*
X44520830Y-43539368D01*
X44511651Y-43519962D01*
X44504419Y-43499750D01*
X44499203Y-43478926D01*
X44496053Y-43457691D01*
X44495000Y-43436250D01*
X44495000Y-42923750D01*
X44496053Y-42902309D01*
X44499203Y-42881074D01*
X44504419Y-42860250D01*
X44511651Y-42840038D01*
X44520830Y-42820632D01*
X44531866Y-42802219D01*
X44544654Y-42784976D01*
X44559070Y-42769070D01*
X44574976Y-42754654D01*
X44592219Y-42741866D01*
X44610632Y-42730830D01*
X44630038Y-42721651D01*
X44650250Y-42714419D01*
X44671074Y-42709203D01*
X44692309Y-42706053D01*
X44713750Y-42705000D01*
X45151250Y-42705000D01*
X45172691Y-42706053D01*
X45172691Y-42706053D01*
G37*
D11*
X44932500Y-43180000D03*
G04 #@! TD*
D10*
G04 #@! TO.C,R1*
G36*
X69607691Y-37626053D02*
X69628926Y-37629203D01*
X69649750Y-37634419D01*
X69669962Y-37641651D01*
X69689368Y-37650830D01*
X69707781Y-37661866D01*
X69725024Y-37674654D01*
X69740930Y-37689070D01*
X69755346Y-37704976D01*
X69768134Y-37722219D01*
X69779170Y-37740632D01*
X69788349Y-37760038D01*
X69795581Y-37780250D01*
X69800797Y-37801074D01*
X69803947Y-37822309D01*
X69805000Y-37843750D01*
X69805000Y-38356250D01*
X69803947Y-38377691D01*
X69800797Y-38398926D01*
X69795581Y-38419750D01*
X69788349Y-38439962D01*
X69779170Y-38459368D01*
X69768134Y-38477781D01*
X69755346Y-38495024D01*
X69740930Y-38510930D01*
X69725024Y-38525346D01*
X69707781Y-38538134D01*
X69689368Y-38549170D01*
X69669962Y-38558349D01*
X69649750Y-38565581D01*
X69628926Y-38570797D01*
X69607691Y-38573947D01*
X69586250Y-38575000D01*
X69148750Y-38575000D01*
X69127309Y-38573947D01*
X69106074Y-38570797D01*
X69085250Y-38565581D01*
X69065038Y-38558349D01*
X69045632Y-38549170D01*
X69027219Y-38538134D01*
X69009976Y-38525346D01*
X68994070Y-38510930D01*
X68979654Y-38495024D01*
X68966866Y-38477781D01*
X68955830Y-38459368D01*
X68946651Y-38439962D01*
X68939419Y-38419750D01*
X68934203Y-38398926D01*
X68931053Y-38377691D01*
X68930000Y-38356250D01*
X68930000Y-37843750D01*
X68931053Y-37822309D01*
X68934203Y-37801074D01*
X68939419Y-37780250D01*
X68946651Y-37760038D01*
X68955830Y-37740632D01*
X68966866Y-37722219D01*
X68979654Y-37704976D01*
X68994070Y-37689070D01*
X69009976Y-37674654D01*
X69027219Y-37661866D01*
X69045632Y-37650830D01*
X69065038Y-37641651D01*
X69085250Y-37634419D01*
X69106074Y-37629203D01*
X69127309Y-37626053D01*
X69148750Y-37625000D01*
X69586250Y-37625000D01*
X69607691Y-37626053D01*
X69607691Y-37626053D01*
G37*
D11*
X69367500Y-38100000D03*
D10*
G36*
X68032691Y-37626053D02*
X68053926Y-37629203D01*
X68074750Y-37634419D01*
X68094962Y-37641651D01*
X68114368Y-37650830D01*
X68132781Y-37661866D01*
X68150024Y-37674654D01*
X68165930Y-37689070D01*
X68180346Y-37704976D01*
X68193134Y-37722219D01*
X68204170Y-37740632D01*
X68213349Y-37760038D01*
X68220581Y-37780250D01*
X68225797Y-37801074D01*
X68228947Y-37822309D01*
X68230000Y-37843750D01*
X68230000Y-38356250D01*
X68228947Y-38377691D01*
X68225797Y-38398926D01*
X68220581Y-38419750D01*
X68213349Y-38439962D01*
X68204170Y-38459368D01*
X68193134Y-38477781D01*
X68180346Y-38495024D01*
X68165930Y-38510930D01*
X68150024Y-38525346D01*
X68132781Y-38538134D01*
X68114368Y-38549170D01*
X68094962Y-38558349D01*
X68074750Y-38565581D01*
X68053926Y-38570797D01*
X68032691Y-38573947D01*
X68011250Y-38575000D01*
X67573750Y-38575000D01*
X67552309Y-38573947D01*
X67531074Y-38570797D01*
X67510250Y-38565581D01*
X67490038Y-38558349D01*
X67470632Y-38549170D01*
X67452219Y-38538134D01*
X67434976Y-38525346D01*
X67419070Y-38510930D01*
X67404654Y-38495024D01*
X67391866Y-38477781D01*
X67380830Y-38459368D01*
X67371651Y-38439962D01*
X67364419Y-38419750D01*
X67359203Y-38398926D01*
X67356053Y-38377691D01*
X67355000Y-38356250D01*
X67355000Y-37843750D01*
X67356053Y-37822309D01*
X67359203Y-37801074D01*
X67364419Y-37780250D01*
X67371651Y-37760038D01*
X67380830Y-37740632D01*
X67391866Y-37722219D01*
X67404654Y-37704976D01*
X67419070Y-37689070D01*
X67434976Y-37674654D01*
X67452219Y-37661866D01*
X67470632Y-37650830D01*
X67490038Y-37641651D01*
X67510250Y-37634419D01*
X67531074Y-37629203D01*
X67552309Y-37626053D01*
X67573750Y-37625000D01*
X68011250Y-37625000D01*
X68032691Y-37626053D01*
X68032691Y-37626053D01*
G37*
D11*
X67792500Y-38100000D03*
G04 #@! TD*
D10*
G04 #@! TO.C,R2*
G36*
X69607691Y-40166053D02*
X69628926Y-40169203D01*
X69649750Y-40174419D01*
X69669962Y-40181651D01*
X69689368Y-40190830D01*
X69707781Y-40201866D01*
X69725024Y-40214654D01*
X69740930Y-40229070D01*
X69755346Y-40244976D01*
X69768134Y-40262219D01*
X69779170Y-40280632D01*
X69788349Y-40300038D01*
X69795581Y-40320250D01*
X69800797Y-40341074D01*
X69803947Y-40362309D01*
X69805000Y-40383750D01*
X69805000Y-40896250D01*
X69803947Y-40917691D01*
X69800797Y-40938926D01*
X69795581Y-40959750D01*
X69788349Y-40979962D01*
X69779170Y-40999368D01*
X69768134Y-41017781D01*
X69755346Y-41035024D01*
X69740930Y-41050930D01*
X69725024Y-41065346D01*
X69707781Y-41078134D01*
X69689368Y-41089170D01*
X69669962Y-41098349D01*
X69649750Y-41105581D01*
X69628926Y-41110797D01*
X69607691Y-41113947D01*
X69586250Y-41115000D01*
X69148750Y-41115000D01*
X69127309Y-41113947D01*
X69106074Y-41110797D01*
X69085250Y-41105581D01*
X69065038Y-41098349D01*
X69045632Y-41089170D01*
X69027219Y-41078134D01*
X69009976Y-41065346D01*
X68994070Y-41050930D01*
X68979654Y-41035024D01*
X68966866Y-41017781D01*
X68955830Y-40999368D01*
X68946651Y-40979962D01*
X68939419Y-40959750D01*
X68934203Y-40938926D01*
X68931053Y-40917691D01*
X68930000Y-40896250D01*
X68930000Y-40383750D01*
X68931053Y-40362309D01*
X68934203Y-40341074D01*
X68939419Y-40320250D01*
X68946651Y-40300038D01*
X68955830Y-40280632D01*
X68966866Y-40262219D01*
X68979654Y-40244976D01*
X68994070Y-40229070D01*
X69009976Y-40214654D01*
X69027219Y-40201866D01*
X69045632Y-40190830D01*
X69065038Y-40181651D01*
X69085250Y-40174419D01*
X69106074Y-40169203D01*
X69127309Y-40166053D01*
X69148750Y-40165000D01*
X69586250Y-40165000D01*
X69607691Y-40166053D01*
X69607691Y-40166053D01*
G37*
D11*
X69367500Y-40640000D03*
D10*
G36*
X68032691Y-40166053D02*
X68053926Y-40169203D01*
X68074750Y-40174419D01*
X68094962Y-40181651D01*
X68114368Y-40190830D01*
X68132781Y-40201866D01*
X68150024Y-40214654D01*
X68165930Y-40229070D01*
X68180346Y-40244976D01*
X68193134Y-40262219D01*
X68204170Y-40280632D01*
X68213349Y-40300038D01*
X68220581Y-40320250D01*
X68225797Y-40341074D01*
X68228947Y-40362309D01*
X68230000Y-40383750D01*
X68230000Y-40896250D01*
X68228947Y-40917691D01*
X68225797Y-40938926D01*
X68220581Y-40959750D01*
X68213349Y-40979962D01*
X68204170Y-40999368D01*
X68193134Y-41017781D01*
X68180346Y-41035024D01*
X68165930Y-41050930D01*
X68150024Y-41065346D01*
X68132781Y-41078134D01*
X68114368Y-41089170D01*
X68094962Y-41098349D01*
X68074750Y-41105581D01*
X68053926Y-41110797D01*
X68032691Y-41113947D01*
X68011250Y-41115000D01*
X67573750Y-41115000D01*
X67552309Y-41113947D01*
X67531074Y-41110797D01*
X67510250Y-41105581D01*
X67490038Y-41098349D01*
X67470632Y-41089170D01*
X67452219Y-41078134D01*
X67434976Y-41065346D01*
X67419070Y-41050930D01*
X67404654Y-41035024D01*
X67391866Y-41017781D01*
X67380830Y-40999368D01*
X67371651Y-40979962D01*
X67364419Y-40959750D01*
X67359203Y-40938926D01*
X67356053Y-40917691D01*
X67355000Y-40896250D01*
X67355000Y-40383750D01*
X67356053Y-40362309D01*
X67359203Y-40341074D01*
X67364419Y-40320250D01*
X67371651Y-40300038D01*
X67380830Y-40280632D01*
X67391866Y-40262219D01*
X67404654Y-40244976D01*
X67419070Y-40229070D01*
X67434976Y-40214654D01*
X67452219Y-40201866D01*
X67470632Y-40190830D01*
X67490038Y-40181651D01*
X67510250Y-40174419D01*
X67531074Y-40169203D01*
X67552309Y-40166053D01*
X67573750Y-40165000D01*
X68011250Y-40165000D01*
X68032691Y-40166053D01*
X68032691Y-40166053D01*
G37*
D11*
X67792500Y-40640000D03*
G04 #@! TD*
D12*
G04 #@! TO.C,U0*
X64295000Y-42545000D03*
X64295000Y-41275000D03*
X64295000Y-40005000D03*
X64295000Y-38735000D03*
X58895000Y-38735000D03*
X58895000Y-40005000D03*
X58895000Y-41275000D03*
X58895000Y-42545000D03*
G04 #@! TD*
M02*
