G04 #@! TF.GenerationSoftware,KiCad,Pcbnew,(5.0.2)-1*
G04 #@! TF.CreationDate,2019-05-20T19:12:17+02:00*
G04 #@! TF.ProjectId,Carte capteurs 2,43617274-6520-4636-9170-746575727320,rev?*
G04 #@! TF.SameCoordinates,Original*
G04 #@! TF.FileFunction,Legend,Top*
G04 #@! TF.FilePolarity,Positive*
%FSLAX46Y46*%
G04 Gerber Fmt 4.6, Leading zero omitted, Abs format (unit mm)*
G04 Created by KiCad (PCBNEW (5.0.2)-1) date 20/05/2019 19:12:17*
%MOMM*%
%LPD*%
G01*
G04 APERTURE LIST*
%ADD10C,0.120000*%
%ADD11C,0.150000*%
G04 APERTURE END LIST*
D10*
G04 #@! TO.C,C1*
X36184721Y-43690000D02*
X36510279Y-43690000D01*
X36184721Y-42670000D02*
X36510279Y-42670000D01*
G04 #@! TO.C,C2*
X68742779Y-43690000D02*
X68417221Y-43690000D01*
X68742779Y-42670000D02*
X68417221Y-42670000D01*
G04 #@! TO.C,C3*
X45882779Y-43690000D02*
X45557221Y-43690000D01*
X45882779Y-42670000D02*
X45557221Y-42670000D01*
G04 #@! TO.C,J0*
X70890000Y-40820000D02*
X73890000Y-40820000D01*
X70890000Y-37970000D02*
X70890000Y-40820000D01*
X73890000Y-37970000D02*
X73890000Y-40820000D01*
X70890000Y-37970000D02*
X73890000Y-37970000D01*
G04 #@! TO.C,J1*
X34230000Y-38040000D02*
X34230000Y-40700000D01*
X44450000Y-38040000D02*
X34230000Y-38040000D01*
X44450000Y-40700000D02*
X34230000Y-40700000D01*
X44450000Y-38040000D02*
X44450000Y-40700000D01*
X45720000Y-38040000D02*
X47050000Y-38040000D01*
X47050000Y-38040000D02*
X47050000Y-39370000D01*
G04 #@! TO.C,R1*
X68742779Y-38610000D02*
X68417221Y-38610000D01*
X68742779Y-37590000D02*
X68417221Y-37590000D01*
G04 #@! TO.C,R2*
X68417221Y-41150000D02*
X68742779Y-41150000D01*
X68417221Y-40130000D02*
X68742779Y-40130000D01*
D11*
G04 #@! TO.C,U0*
X63670000Y-43215000D02*
X63670000Y-43165000D01*
X59520000Y-43215000D02*
X59520000Y-43070000D01*
X59520000Y-38065000D02*
X59520000Y-38210000D01*
X63670000Y-38065000D02*
X63670000Y-38210000D01*
X63670000Y-43215000D02*
X59520000Y-43215000D01*
X63670000Y-38065000D02*
X59520000Y-38065000D01*
X63670000Y-43165000D02*
X65070000Y-43165000D01*
D10*
G04 #@! TO.C,U1*
X45215001Y-45755001D02*
X39395001Y-45755001D01*
X34985001Y-78565001D02*
X34985001Y-72755001D01*
X48985001Y-38255001D02*
X48985001Y-44485001D01*
X48985001Y-38255001D02*
X56205001Y-38255001D01*
X56205001Y-38255001D02*
X56205001Y-44115001D01*
X34987652Y-50167430D02*
G75*
G02X39395001Y-45755001I2107349J2302429D01*
G01*
X67792572Y-45757652D02*
G75*
G02X72205001Y-50165001I2302429J-2107349D01*
G01*
X72202350Y-78562572D02*
G75*
G02X67795001Y-82975001I-2107349J-2302429D01*
G01*
X39397430Y-82972350D02*
G75*
G02X34985001Y-78565001I-2302429J2107349D01*
G01*
X45243905Y-45744429D02*
G75*
G02X48985001Y-44485001I8351096J-18620572D01*
G01*
X61975001Y-45755001D02*
X67795001Y-45755001D01*
X56203131Y-44122616D02*
G75*
G02X61975001Y-45755001I-2608130J-20242385D01*
G01*
X34979903Y-72743685D02*
G75*
G02X34985001Y-55975001I18615098J8378684D01*
G01*
X72205001Y-55975001D02*
X72205001Y-50165001D01*
X72210099Y-72743685D02*
G75*
G03X72205001Y-55975001I-18615098J8378684D01*
G01*
X34985001Y-55975001D02*
X34985001Y-50165001D01*
X72205001Y-78565001D02*
X72205001Y-72755001D01*
X45216317Y-82980099D02*
G75*
G03X61985001Y-82975001I8378684J18615098D01*
G01*
X61975001Y-82975001D02*
X67795001Y-82975001D01*
X45215001Y-82975001D02*
X39395001Y-82975001D01*
G04 #@! TO.C,REF\002A\002A*
D11*
X68516666Y-25632380D02*
X68183333Y-25156190D01*
X67945238Y-25632380D02*
X67945238Y-24632380D01*
X68326190Y-24632380D01*
X68421428Y-24680000D01*
X68469047Y-24727619D01*
X68516666Y-24822857D01*
X68516666Y-24965714D01*
X68469047Y-25060952D01*
X68421428Y-25108571D01*
X68326190Y-25156190D01*
X67945238Y-25156190D01*
X68945238Y-25108571D02*
X69278571Y-25108571D01*
X69421428Y-25632380D02*
X68945238Y-25632380D01*
X68945238Y-24632380D01*
X69421428Y-24632380D01*
X70183333Y-25108571D02*
X69850000Y-25108571D01*
X69850000Y-25632380D02*
X69850000Y-24632380D01*
X70326190Y-24632380D01*
X70850000Y-24632380D02*
X70850000Y-24870476D01*
X70611904Y-24775238D02*
X70850000Y-24870476D01*
X71088095Y-24775238D01*
X70707142Y-25060952D02*
X70850000Y-24870476D01*
X70992857Y-25060952D01*
X71611904Y-24632380D02*
X71611904Y-24870476D01*
X71373809Y-24775238D02*
X71611904Y-24870476D01*
X71850000Y-24775238D01*
X71469047Y-25060952D02*
X71611904Y-24870476D01*
X71754761Y-25060952D01*
X36131666Y-25632380D02*
X35798333Y-25156190D01*
X35560238Y-25632380D02*
X35560238Y-24632380D01*
X35941190Y-24632380D01*
X36036428Y-24680000D01*
X36084047Y-24727619D01*
X36131666Y-24822857D01*
X36131666Y-24965714D01*
X36084047Y-25060952D01*
X36036428Y-25108571D01*
X35941190Y-25156190D01*
X35560238Y-25156190D01*
X36560238Y-25108571D02*
X36893571Y-25108571D01*
X37036428Y-25632380D02*
X36560238Y-25632380D01*
X36560238Y-24632380D01*
X37036428Y-24632380D01*
X37798333Y-25108571D02*
X37465000Y-25108571D01*
X37465000Y-25632380D02*
X37465000Y-24632380D01*
X37941190Y-24632380D01*
X38465000Y-24632380D02*
X38465000Y-24870476D01*
X38226904Y-24775238D02*
X38465000Y-24870476D01*
X38703095Y-24775238D01*
X38322142Y-25060952D02*
X38465000Y-24870476D01*
X38607857Y-25060952D01*
X39226904Y-24632380D02*
X39226904Y-24870476D01*
X38988809Y-24775238D02*
X39226904Y-24870476D01*
X39465000Y-24775238D01*
X39084047Y-25060952D02*
X39226904Y-24870476D01*
X39369761Y-25060952D01*
X36131666Y-84052380D02*
X35798333Y-83576190D01*
X35560238Y-84052380D02*
X35560238Y-83052380D01*
X35941190Y-83052380D01*
X36036428Y-83100000D01*
X36084047Y-83147619D01*
X36131666Y-83242857D01*
X36131666Y-83385714D01*
X36084047Y-83480952D01*
X36036428Y-83528571D01*
X35941190Y-83576190D01*
X35560238Y-83576190D01*
X36560238Y-83528571D02*
X36893571Y-83528571D01*
X37036428Y-84052380D02*
X36560238Y-84052380D01*
X36560238Y-83052380D01*
X37036428Y-83052380D01*
X37798333Y-83528571D02*
X37465000Y-83528571D01*
X37465000Y-84052380D02*
X37465000Y-83052380D01*
X37941190Y-83052380D01*
X38465000Y-83052380D02*
X38465000Y-83290476D01*
X38226904Y-83195238D02*
X38465000Y-83290476D01*
X38703095Y-83195238D01*
X38322142Y-83480952D02*
X38465000Y-83290476D01*
X38607857Y-83480952D01*
X39226904Y-83052380D02*
X39226904Y-83290476D01*
X38988809Y-83195238D02*
X39226904Y-83290476D01*
X39465000Y-83195238D01*
X39084047Y-83480952D02*
X39226904Y-83290476D01*
X39369761Y-83480952D01*
X68516666Y-84052380D02*
X68183333Y-83576190D01*
X67945238Y-84052380D02*
X67945238Y-83052380D01*
X68326190Y-83052380D01*
X68421428Y-83100000D01*
X68469047Y-83147619D01*
X68516666Y-83242857D01*
X68516666Y-83385714D01*
X68469047Y-83480952D01*
X68421428Y-83528571D01*
X68326190Y-83576190D01*
X67945238Y-83576190D01*
X68945238Y-83528571D02*
X69278571Y-83528571D01*
X69421428Y-84052380D02*
X68945238Y-84052380D01*
X68945238Y-83052380D01*
X69421428Y-83052380D01*
X70183333Y-83528571D02*
X69850000Y-83528571D01*
X69850000Y-84052380D02*
X69850000Y-83052380D01*
X70326190Y-83052380D01*
X70850000Y-83052380D02*
X70850000Y-83290476D01*
X70611904Y-83195238D02*
X70850000Y-83290476D01*
X71088095Y-83195238D01*
X70707142Y-83480952D02*
X70850000Y-83290476D01*
X70992857Y-83480952D01*
X71611904Y-83052380D02*
X71611904Y-83290476D01*
X71373809Y-83195238D02*
X71611904Y-83290476D01*
X71850000Y-83195238D01*
X71469047Y-83480952D02*
X71611904Y-83290476D01*
X71754761Y-83480952D01*
G04 #@! TO.C,C1*
X36180833Y-42107142D02*
X36133214Y-42154761D01*
X35990357Y-42202380D01*
X35895119Y-42202380D01*
X35752261Y-42154761D01*
X35657023Y-42059523D01*
X35609404Y-41964285D01*
X35561785Y-41773809D01*
X35561785Y-41630952D01*
X35609404Y-41440476D01*
X35657023Y-41345238D01*
X35752261Y-41250000D01*
X35895119Y-41202380D01*
X35990357Y-41202380D01*
X36133214Y-41250000D01*
X36180833Y-41297619D01*
X37133214Y-42202380D02*
X36561785Y-42202380D01*
X36847500Y-42202380D02*
X36847500Y-41202380D01*
X36752261Y-41345238D01*
X36657023Y-41440476D01*
X36561785Y-41488095D01*
G04 #@! TO.C,C2*
X68413333Y-44967142D02*
X68365714Y-45014761D01*
X68222857Y-45062380D01*
X68127619Y-45062380D01*
X67984761Y-45014761D01*
X67889523Y-44919523D01*
X67841904Y-44824285D01*
X67794285Y-44633809D01*
X67794285Y-44490952D01*
X67841904Y-44300476D01*
X67889523Y-44205238D01*
X67984761Y-44110000D01*
X68127619Y-44062380D01*
X68222857Y-44062380D01*
X68365714Y-44110000D01*
X68413333Y-44157619D01*
X68794285Y-44157619D02*
X68841904Y-44110000D01*
X68937142Y-44062380D01*
X69175238Y-44062380D01*
X69270476Y-44110000D01*
X69318095Y-44157619D01*
X69365714Y-44252857D01*
X69365714Y-44348095D01*
X69318095Y-44490952D01*
X68746666Y-45062380D01*
X69365714Y-45062380D01*
G04 #@! TO.C,C3*
X45553333Y-44967142D02*
X45505714Y-45014761D01*
X45362857Y-45062380D01*
X45267619Y-45062380D01*
X45124761Y-45014761D01*
X45029523Y-44919523D01*
X44981904Y-44824285D01*
X44934285Y-44633809D01*
X44934285Y-44490952D01*
X44981904Y-44300476D01*
X45029523Y-44205238D01*
X45124761Y-44110000D01*
X45267619Y-44062380D01*
X45362857Y-44062380D01*
X45505714Y-44110000D01*
X45553333Y-44157619D01*
X45886666Y-44062380D02*
X46505714Y-44062380D01*
X46172380Y-44443333D01*
X46315238Y-44443333D01*
X46410476Y-44490952D01*
X46458095Y-44538571D01*
X46505714Y-44633809D01*
X46505714Y-44871904D01*
X46458095Y-44967142D01*
X46410476Y-45014761D01*
X46315238Y-45062380D01*
X46029523Y-45062380D01*
X45934285Y-45014761D01*
X45886666Y-44967142D01*
G04 #@! TO.C,J0*
X72056666Y-41072380D02*
X72056666Y-41786666D01*
X72009047Y-41929523D01*
X71913809Y-42024761D01*
X71770952Y-42072380D01*
X71675714Y-42072380D01*
X72723333Y-41072380D02*
X72818571Y-41072380D01*
X72913809Y-41120000D01*
X72961428Y-41167619D01*
X73009047Y-41262857D01*
X73056666Y-41453333D01*
X73056666Y-41691428D01*
X73009047Y-41881904D01*
X72961428Y-41977142D01*
X72913809Y-42024761D01*
X72818571Y-42072380D01*
X72723333Y-42072380D01*
X72628095Y-42024761D01*
X72580476Y-41977142D01*
X72532857Y-41881904D01*
X72485238Y-41691428D01*
X72485238Y-41453333D01*
X72532857Y-41262857D01*
X72580476Y-41167619D01*
X72628095Y-41120000D01*
X72723333Y-41072380D01*
G04 #@! TO.C,J1*
X47502380Y-39703333D02*
X48216666Y-39703333D01*
X48359523Y-39750952D01*
X48454761Y-39846190D01*
X48502380Y-39989047D01*
X48502380Y-40084285D01*
X48502380Y-38703333D02*
X48502380Y-39274761D01*
X48502380Y-38989047D02*
X47502380Y-38989047D01*
X47645238Y-39084285D01*
X47740476Y-39179523D01*
X47788095Y-39274761D01*
G04 #@! TO.C,R1*
X68413333Y-39982380D02*
X68080000Y-39506190D01*
X67841904Y-39982380D02*
X67841904Y-38982380D01*
X68222857Y-38982380D01*
X68318095Y-39030000D01*
X68365714Y-39077619D01*
X68413333Y-39172857D01*
X68413333Y-39315714D01*
X68365714Y-39410952D01*
X68318095Y-39458571D01*
X68222857Y-39506190D01*
X67841904Y-39506190D01*
X69365714Y-39982380D02*
X68794285Y-39982380D01*
X69080000Y-39982380D02*
X69080000Y-38982380D01*
X68984761Y-39125238D01*
X68889523Y-39220476D01*
X68794285Y-39268095D01*
G04 #@! TO.C,R2*
X68413333Y-39662380D02*
X68080000Y-39186190D01*
X67841904Y-39662380D02*
X67841904Y-38662380D01*
X68222857Y-38662380D01*
X68318095Y-38710000D01*
X68365714Y-38757619D01*
X68413333Y-38852857D01*
X68413333Y-38995714D01*
X68365714Y-39090952D01*
X68318095Y-39138571D01*
X68222857Y-39186190D01*
X67841904Y-39186190D01*
X68794285Y-38757619D02*
X68841904Y-38710000D01*
X68937142Y-38662380D01*
X69175238Y-38662380D01*
X69270476Y-38710000D01*
X69318095Y-38757619D01*
X69365714Y-38852857D01*
X69365714Y-38948095D01*
X69318095Y-39090952D01*
X68746666Y-39662380D01*
X69365714Y-39662380D01*
G04 #@! TO.C,U0*
X60833095Y-43592380D02*
X60833095Y-44401904D01*
X60880714Y-44497142D01*
X60928333Y-44544761D01*
X61023571Y-44592380D01*
X61214047Y-44592380D01*
X61309285Y-44544761D01*
X61356904Y-44497142D01*
X61404523Y-44401904D01*
X61404523Y-43592380D01*
X62071190Y-43592380D02*
X62166428Y-43592380D01*
X62261666Y-43640000D01*
X62309285Y-43687619D01*
X62356904Y-43782857D01*
X62404523Y-43973333D01*
X62404523Y-44211428D01*
X62356904Y-44401904D01*
X62309285Y-44497142D01*
X62261666Y-44544761D01*
X62166428Y-44592380D01*
X62071190Y-44592380D01*
X61975952Y-44544761D01*
X61928333Y-44497142D01*
X61880714Y-44401904D01*
X61833095Y-44211428D01*
X61833095Y-43973333D01*
X61880714Y-43782857D01*
X61928333Y-43687619D01*
X61975952Y-43640000D01*
X62071190Y-43592380D01*
G04 #@! TO.C,U1*
X51333096Y-36697381D02*
X51333096Y-37506905D01*
X51380715Y-37602143D01*
X51428334Y-37649762D01*
X51523572Y-37697381D01*
X51714048Y-37697381D01*
X51809286Y-37649762D01*
X51856905Y-37602143D01*
X51904524Y-37506905D01*
X51904524Y-36697381D01*
X52904524Y-37697381D02*
X52333096Y-37697381D01*
X52618810Y-37697381D02*
X52618810Y-36697381D01*
X52523572Y-36840239D01*
X52428334Y-36935477D01*
X52333096Y-36983096D01*
G04 #@! TD*
M02*
