G04 #@! TF.GenerationSoftware,KiCad,Pcbnew,(5.0.2)-1*
G04 #@! TF.CreationDate,2019-05-20T19:12:17+02:00*
G04 #@! TF.ProjectId,Carte capteurs 2,43617274-6520-4636-9170-746575727320,rev?*
G04 #@! TF.SameCoordinates,Original*
G04 #@! TF.FileFunction,Copper,L2,Bot*
G04 #@! TF.FilePolarity,Positive*
%FSLAX46Y46*%
G04 Gerber Fmt 4.6, Leading zero omitted, Abs format (unit mm)*
G04 Created by KiCad (PCBNEW (5.0.2)-1) date 20/05/2019 19:12:17*
%MOMM*%
%LPD*%
G01*
G04 APERTURE LIST*
G04 #@! TA.AperFunction,ComponentPad*
%ADD10C,2.600000*%
G04 #@! TD*
G04 #@! TA.AperFunction,ComponentPad*
%ADD11R,1.700000X1.700000*%
G04 #@! TD*
G04 #@! TA.AperFunction,ComponentPad*
%ADD12O,1.700000X1.700000*%
G04 #@! TD*
G04 #@! TA.AperFunction,ComponentPad*
%ADD13C,1.500000*%
G04 #@! TD*
G04 #@! TA.AperFunction,ComponentPad*
%ADD14R,1.500000X1.500000*%
G04 #@! TD*
G04 #@! TA.AperFunction,Conductor*
%ADD15C,0.750000*%
G04 #@! TD*
G04 #@! TA.AperFunction,Conductor*
%ADD16C,0.254000*%
G04 #@! TD*
G04 APERTURE END LIST*
D10*
G04 #@! TO.P,J0,1*
G04 #@! TO.N,Net-(J0-Pad1)*
X72390000Y-39370000D03*
G04 #@! TD*
D11*
G04 #@! TO.P,J1,1*
G04 #@! TO.N,GND*
X45720000Y-39370000D03*
D12*
G04 #@! TO.P,J1,2*
G04 #@! TO.N,VCurrentRef*
X43180000Y-39370000D03*
G04 #@! TO.P,J1,3*
G04 #@! TO.N,VCurrentProbe*
X40640000Y-39370000D03*
G04 #@! TO.P,J1,4*
G04 #@! TO.N,VProbeOut*
X38100000Y-39370000D03*
G04 #@! TO.P,J1,5*
G04 #@! TO.N,+5V*
X35560000Y-39370000D03*
G04 #@! TD*
D13*
G04 #@! TO.P,U1,4*
G04 #@! TO.N,VCurrentRef*
X53595001Y-48365001D03*
G04 #@! TO.P,U1,3*
G04 #@! TO.N,Net-(C3-Pad1)*
X53595001Y-45825001D03*
G04 #@! TO.P,U1,2*
G04 #@! TO.N,GND*
X53595001Y-43285001D03*
D14*
G04 #@! TO.P,U1,1*
G04 #@! TO.N,+5V*
X53595001Y-40745001D03*
G04 #@! TD*
D15*
G04 #@! TO.N,+5V*
X52095001Y-40745001D02*
X53595001Y-40745001D01*
X50930002Y-41910000D02*
X52095001Y-40745001D01*
X38100000Y-41910000D02*
X50930002Y-41910000D01*
X35560000Y-39370000D02*
X38100000Y-41910000D01*
G04 #@! TD*
D16*
G04 #@! TO.N,GND*
G36*
X75438000Y-95123000D02*
X31877000Y-95123000D01*
X31877000Y-88346029D01*
X34680000Y-88346029D01*
X34680000Y-89453971D01*
X35103991Y-90477576D01*
X35887424Y-91261009D01*
X36911029Y-91685000D01*
X38018971Y-91685000D01*
X39042576Y-91261009D01*
X39826009Y-90477576D01*
X40250000Y-89453971D01*
X40250000Y-88346029D01*
X67065000Y-88346029D01*
X67065000Y-89453971D01*
X67488991Y-90477576D01*
X68272424Y-91261009D01*
X69296029Y-91685000D01*
X70403971Y-91685000D01*
X71427576Y-91261009D01*
X72211009Y-90477576D01*
X72635000Y-89453971D01*
X72635000Y-88346029D01*
X72211009Y-87322424D01*
X71427576Y-86538991D01*
X70403971Y-86115000D01*
X69296029Y-86115000D01*
X68272424Y-86538991D01*
X67488991Y-87322424D01*
X67065000Y-88346029D01*
X40250000Y-88346029D01*
X39826009Y-87322424D01*
X39042576Y-86538991D01*
X38018971Y-86115000D01*
X36911029Y-86115000D01*
X35887424Y-86538991D01*
X35103991Y-87322424D01*
X34680000Y-88346029D01*
X31877000Y-88346029D01*
X31877000Y-80619344D01*
X35860001Y-80619344D01*
X35860001Y-81110658D01*
X36048019Y-81564572D01*
X36395430Y-81911983D01*
X36849344Y-82100001D01*
X37340658Y-82100001D01*
X37794572Y-81911983D01*
X38141983Y-81564572D01*
X38330001Y-81110658D01*
X38330001Y-80619344D01*
X68860001Y-80619344D01*
X68860001Y-81110658D01*
X69048019Y-81564572D01*
X69395430Y-81911983D01*
X69849344Y-82100001D01*
X70340658Y-82100001D01*
X70794572Y-81911983D01*
X71141983Y-81564572D01*
X71330001Y-81110658D01*
X71330001Y-80619344D01*
X71141983Y-80165430D01*
X70794572Y-79818019D01*
X70340658Y-79630001D01*
X69849344Y-79630001D01*
X69395430Y-79818019D01*
X69048019Y-80165430D01*
X68860001Y-80619344D01*
X38330001Y-80619344D01*
X38141983Y-80165430D01*
X37794572Y-79818019D01*
X37340658Y-79630001D01*
X36849344Y-79630001D01*
X36395430Y-79818019D01*
X36048019Y-80165430D01*
X35860001Y-80619344D01*
X31877000Y-80619344D01*
X31877000Y-62050656D01*
X41960001Y-62050656D01*
X41960001Y-66679346D01*
X43731324Y-70955699D01*
X47004303Y-74228678D01*
X51280656Y-76000001D01*
X55909346Y-76000001D01*
X60185699Y-74228678D01*
X63458678Y-70955699D01*
X65230001Y-66679346D01*
X65230001Y-62050656D01*
X63458678Y-57774303D01*
X60185699Y-54501324D01*
X55909346Y-52730001D01*
X51280656Y-52730001D01*
X47004303Y-54501324D01*
X43731324Y-57774303D01*
X41960001Y-62050656D01*
X31877000Y-62050656D01*
X31877000Y-47619344D01*
X35860001Y-47619344D01*
X35860001Y-48110658D01*
X36048019Y-48564572D01*
X36395430Y-48911983D01*
X36849344Y-49100001D01*
X37340658Y-49100001D01*
X37794572Y-48911983D01*
X38141983Y-48564572D01*
X38330001Y-48110658D01*
X38330001Y-47619344D01*
X38141983Y-47165430D01*
X37794572Y-46818019D01*
X37340658Y-46630001D01*
X36849344Y-46630001D01*
X36395430Y-46818019D01*
X36048019Y-47165430D01*
X35860001Y-47619344D01*
X31877000Y-47619344D01*
X31877000Y-45549507D01*
X52210001Y-45549507D01*
X52210001Y-46100495D01*
X52420854Y-46609541D01*
X52810461Y-46999148D01*
X53041871Y-47095001D01*
X52810461Y-47190854D01*
X52420854Y-47580461D01*
X52210001Y-48089507D01*
X52210001Y-48640495D01*
X52420854Y-49149541D01*
X52810461Y-49539148D01*
X53319507Y-49750001D01*
X53870495Y-49750001D01*
X54379541Y-49539148D01*
X54769148Y-49149541D01*
X54980001Y-48640495D01*
X54980001Y-48089507D01*
X54785254Y-47619344D01*
X68860001Y-47619344D01*
X68860001Y-48110658D01*
X69048019Y-48564572D01*
X69395430Y-48911983D01*
X69849344Y-49100001D01*
X70340658Y-49100001D01*
X70794572Y-48911983D01*
X71141983Y-48564572D01*
X71330001Y-48110658D01*
X71330001Y-47619344D01*
X71141983Y-47165430D01*
X70794572Y-46818019D01*
X70340658Y-46630001D01*
X69849344Y-46630001D01*
X69395430Y-46818019D01*
X69048019Y-47165430D01*
X68860001Y-47619344D01*
X54785254Y-47619344D01*
X54769148Y-47580461D01*
X54379541Y-47190854D01*
X54148131Y-47095001D01*
X54379541Y-46999148D01*
X54769148Y-46609541D01*
X54980001Y-46100495D01*
X54980001Y-45549507D01*
X54769148Y-45040461D01*
X54379541Y-44650854D01*
X54164071Y-44561604D01*
X54318924Y-44497461D01*
X54386913Y-44256518D01*
X53595001Y-43464606D01*
X52803089Y-44256518D01*
X52871078Y-44497461D01*
X53037659Y-44556746D01*
X52810461Y-44650854D01*
X52420854Y-45040461D01*
X52210001Y-45549507D01*
X31877000Y-45549507D01*
X31877000Y-43080172D01*
X52197800Y-43080172D01*
X52225771Y-43630449D01*
X52382541Y-44008924D01*
X52623484Y-44076913D01*
X53415396Y-43285001D01*
X53774606Y-43285001D01*
X54566518Y-44076913D01*
X54807461Y-44008924D01*
X54992202Y-43489830D01*
X54964231Y-42939553D01*
X54807461Y-42561078D01*
X54566518Y-42493089D01*
X53774606Y-43285001D01*
X53415396Y-43285001D01*
X52623484Y-42493089D01*
X52382541Y-42561078D01*
X52197800Y-43080172D01*
X31877000Y-43080172D01*
X31877000Y-39370000D01*
X34045908Y-39370000D01*
X34161161Y-39949418D01*
X34489375Y-40440625D01*
X34980582Y-40768839D01*
X35413744Y-40855000D01*
X35616645Y-40855000D01*
X37315484Y-42553840D01*
X37371831Y-42638169D01*
X37456160Y-42694516D01*
X37456161Y-42694517D01*
X37599113Y-42790034D01*
X37705918Y-42861399D01*
X38000524Y-42920000D01*
X38000528Y-42920000D01*
X38099999Y-42939786D01*
X38199470Y-42920000D01*
X50830531Y-42920000D01*
X50930002Y-42939786D01*
X51029473Y-42920000D01*
X51029478Y-42920000D01*
X51324084Y-42861399D01*
X51658171Y-42638169D01*
X51714520Y-42553837D01*
X52358495Y-41909862D01*
X52387192Y-41952810D01*
X52597236Y-42093158D01*
X52845001Y-42142441D01*
X52851354Y-42142441D01*
X52803089Y-42313484D01*
X53595001Y-43105396D01*
X54386913Y-42313484D01*
X54338648Y-42142441D01*
X54345001Y-42142441D01*
X54592766Y-42093158D01*
X54802810Y-41952810D01*
X54943158Y-41742766D01*
X54992441Y-41495001D01*
X54992441Y-39995001D01*
X54943158Y-39747236D01*
X54802810Y-39537192D01*
X54592766Y-39396844D01*
X54345001Y-39347561D01*
X52845001Y-39347561D01*
X52597236Y-39396844D01*
X52387192Y-39537192D01*
X52255019Y-39735001D01*
X52194471Y-39735001D01*
X52095000Y-39715215D01*
X51995529Y-39735001D01*
X51995525Y-39735001D01*
X51700919Y-39793602D01*
X51366832Y-40016832D01*
X51310483Y-40101164D01*
X50511647Y-40900000D01*
X38518356Y-40900000D01*
X38435678Y-40817322D01*
X38679418Y-40768839D01*
X39170625Y-40440625D01*
X39370000Y-40142239D01*
X39569375Y-40440625D01*
X40060582Y-40768839D01*
X40493744Y-40855000D01*
X40786256Y-40855000D01*
X41219418Y-40768839D01*
X41710625Y-40440625D01*
X41910000Y-40142239D01*
X42109375Y-40440625D01*
X42600582Y-40768839D01*
X43033744Y-40855000D01*
X43326256Y-40855000D01*
X43759418Y-40768839D01*
X44250625Y-40440625D01*
X44265096Y-40418967D01*
X44331673Y-40579698D01*
X44510301Y-40758327D01*
X44743690Y-40855000D01*
X45434250Y-40855000D01*
X45593000Y-40696250D01*
X45593000Y-39497000D01*
X45847000Y-39497000D01*
X45847000Y-40696250D01*
X46005750Y-40855000D01*
X46696310Y-40855000D01*
X46929699Y-40758327D01*
X47108327Y-40579698D01*
X47205000Y-40346309D01*
X47205000Y-39655750D01*
X47046250Y-39497000D01*
X45847000Y-39497000D01*
X45593000Y-39497000D01*
X45573000Y-39497000D01*
X45573000Y-39243000D01*
X45593000Y-39243000D01*
X45593000Y-38043750D01*
X45847000Y-38043750D01*
X45847000Y-39243000D01*
X47046250Y-39243000D01*
X47205000Y-39084250D01*
X47205000Y-38985105D01*
X70455000Y-38985105D01*
X70455000Y-39754895D01*
X70749586Y-40466090D01*
X71293910Y-41010414D01*
X72005105Y-41305000D01*
X72774895Y-41305000D01*
X73486090Y-41010414D01*
X74030414Y-40466090D01*
X74325000Y-39754895D01*
X74325000Y-38985105D01*
X74030414Y-38273910D01*
X73486090Y-37729586D01*
X72774895Y-37435000D01*
X72005105Y-37435000D01*
X71293910Y-37729586D01*
X70749586Y-38273910D01*
X70455000Y-38985105D01*
X47205000Y-38985105D01*
X47205000Y-38393691D01*
X47108327Y-38160302D01*
X46929699Y-37981673D01*
X46696310Y-37885000D01*
X46005750Y-37885000D01*
X45847000Y-38043750D01*
X45593000Y-38043750D01*
X45434250Y-37885000D01*
X44743690Y-37885000D01*
X44510301Y-37981673D01*
X44331673Y-38160302D01*
X44265096Y-38321033D01*
X44250625Y-38299375D01*
X43759418Y-37971161D01*
X43326256Y-37885000D01*
X43033744Y-37885000D01*
X42600582Y-37971161D01*
X42109375Y-38299375D01*
X41910000Y-38597761D01*
X41710625Y-38299375D01*
X41219418Y-37971161D01*
X40786256Y-37885000D01*
X40493744Y-37885000D01*
X40060582Y-37971161D01*
X39569375Y-38299375D01*
X39370000Y-38597761D01*
X39170625Y-38299375D01*
X38679418Y-37971161D01*
X38246256Y-37885000D01*
X37953744Y-37885000D01*
X37520582Y-37971161D01*
X37029375Y-38299375D01*
X36830000Y-38597761D01*
X36630625Y-38299375D01*
X36139418Y-37971161D01*
X35706256Y-37885000D01*
X35413744Y-37885000D01*
X34980582Y-37971161D01*
X34489375Y-38299375D01*
X34161161Y-38790582D01*
X34045908Y-39370000D01*
X31877000Y-39370000D01*
X31877000Y-29926029D01*
X34680000Y-29926029D01*
X34680000Y-31033971D01*
X35103991Y-32057576D01*
X35887424Y-32841009D01*
X36911029Y-33265000D01*
X38018971Y-33265000D01*
X39042576Y-32841009D01*
X39826009Y-32057576D01*
X40250000Y-31033971D01*
X40250000Y-29926029D01*
X67065000Y-29926029D01*
X67065000Y-31033971D01*
X67488991Y-32057576D01*
X68272424Y-32841009D01*
X69296029Y-33265000D01*
X70403971Y-33265000D01*
X71427576Y-32841009D01*
X72211009Y-32057576D01*
X72635000Y-31033971D01*
X72635000Y-29926029D01*
X72211009Y-28902424D01*
X71427576Y-28118991D01*
X70403971Y-27695000D01*
X69296029Y-27695000D01*
X68272424Y-28118991D01*
X67488991Y-28902424D01*
X67065000Y-29926029D01*
X40250000Y-29926029D01*
X39826009Y-28902424D01*
X39042576Y-28118991D01*
X38018971Y-27695000D01*
X36911029Y-27695000D01*
X35887424Y-28118991D01*
X35103991Y-28902424D01*
X34680000Y-29926029D01*
X31877000Y-29926029D01*
X31877000Y-25527000D01*
X75438000Y-25527000D01*
X75438000Y-95123000D01*
X75438000Y-95123000D01*
G37*
X75438000Y-95123000D02*
X31877000Y-95123000D01*
X31877000Y-88346029D01*
X34680000Y-88346029D01*
X34680000Y-89453971D01*
X35103991Y-90477576D01*
X35887424Y-91261009D01*
X36911029Y-91685000D01*
X38018971Y-91685000D01*
X39042576Y-91261009D01*
X39826009Y-90477576D01*
X40250000Y-89453971D01*
X40250000Y-88346029D01*
X67065000Y-88346029D01*
X67065000Y-89453971D01*
X67488991Y-90477576D01*
X68272424Y-91261009D01*
X69296029Y-91685000D01*
X70403971Y-91685000D01*
X71427576Y-91261009D01*
X72211009Y-90477576D01*
X72635000Y-89453971D01*
X72635000Y-88346029D01*
X72211009Y-87322424D01*
X71427576Y-86538991D01*
X70403971Y-86115000D01*
X69296029Y-86115000D01*
X68272424Y-86538991D01*
X67488991Y-87322424D01*
X67065000Y-88346029D01*
X40250000Y-88346029D01*
X39826009Y-87322424D01*
X39042576Y-86538991D01*
X38018971Y-86115000D01*
X36911029Y-86115000D01*
X35887424Y-86538991D01*
X35103991Y-87322424D01*
X34680000Y-88346029D01*
X31877000Y-88346029D01*
X31877000Y-80619344D01*
X35860001Y-80619344D01*
X35860001Y-81110658D01*
X36048019Y-81564572D01*
X36395430Y-81911983D01*
X36849344Y-82100001D01*
X37340658Y-82100001D01*
X37794572Y-81911983D01*
X38141983Y-81564572D01*
X38330001Y-81110658D01*
X38330001Y-80619344D01*
X68860001Y-80619344D01*
X68860001Y-81110658D01*
X69048019Y-81564572D01*
X69395430Y-81911983D01*
X69849344Y-82100001D01*
X70340658Y-82100001D01*
X70794572Y-81911983D01*
X71141983Y-81564572D01*
X71330001Y-81110658D01*
X71330001Y-80619344D01*
X71141983Y-80165430D01*
X70794572Y-79818019D01*
X70340658Y-79630001D01*
X69849344Y-79630001D01*
X69395430Y-79818019D01*
X69048019Y-80165430D01*
X68860001Y-80619344D01*
X38330001Y-80619344D01*
X38141983Y-80165430D01*
X37794572Y-79818019D01*
X37340658Y-79630001D01*
X36849344Y-79630001D01*
X36395430Y-79818019D01*
X36048019Y-80165430D01*
X35860001Y-80619344D01*
X31877000Y-80619344D01*
X31877000Y-62050656D01*
X41960001Y-62050656D01*
X41960001Y-66679346D01*
X43731324Y-70955699D01*
X47004303Y-74228678D01*
X51280656Y-76000001D01*
X55909346Y-76000001D01*
X60185699Y-74228678D01*
X63458678Y-70955699D01*
X65230001Y-66679346D01*
X65230001Y-62050656D01*
X63458678Y-57774303D01*
X60185699Y-54501324D01*
X55909346Y-52730001D01*
X51280656Y-52730001D01*
X47004303Y-54501324D01*
X43731324Y-57774303D01*
X41960001Y-62050656D01*
X31877000Y-62050656D01*
X31877000Y-47619344D01*
X35860001Y-47619344D01*
X35860001Y-48110658D01*
X36048019Y-48564572D01*
X36395430Y-48911983D01*
X36849344Y-49100001D01*
X37340658Y-49100001D01*
X37794572Y-48911983D01*
X38141983Y-48564572D01*
X38330001Y-48110658D01*
X38330001Y-47619344D01*
X38141983Y-47165430D01*
X37794572Y-46818019D01*
X37340658Y-46630001D01*
X36849344Y-46630001D01*
X36395430Y-46818019D01*
X36048019Y-47165430D01*
X35860001Y-47619344D01*
X31877000Y-47619344D01*
X31877000Y-45549507D01*
X52210001Y-45549507D01*
X52210001Y-46100495D01*
X52420854Y-46609541D01*
X52810461Y-46999148D01*
X53041871Y-47095001D01*
X52810461Y-47190854D01*
X52420854Y-47580461D01*
X52210001Y-48089507D01*
X52210001Y-48640495D01*
X52420854Y-49149541D01*
X52810461Y-49539148D01*
X53319507Y-49750001D01*
X53870495Y-49750001D01*
X54379541Y-49539148D01*
X54769148Y-49149541D01*
X54980001Y-48640495D01*
X54980001Y-48089507D01*
X54785254Y-47619344D01*
X68860001Y-47619344D01*
X68860001Y-48110658D01*
X69048019Y-48564572D01*
X69395430Y-48911983D01*
X69849344Y-49100001D01*
X70340658Y-49100001D01*
X70794572Y-48911983D01*
X71141983Y-48564572D01*
X71330001Y-48110658D01*
X71330001Y-47619344D01*
X71141983Y-47165430D01*
X70794572Y-46818019D01*
X70340658Y-46630001D01*
X69849344Y-46630001D01*
X69395430Y-46818019D01*
X69048019Y-47165430D01*
X68860001Y-47619344D01*
X54785254Y-47619344D01*
X54769148Y-47580461D01*
X54379541Y-47190854D01*
X54148131Y-47095001D01*
X54379541Y-46999148D01*
X54769148Y-46609541D01*
X54980001Y-46100495D01*
X54980001Y-45549507D01*
X54769148Y-45040461D01*
X54379541Y-44650854D01*
X54164071Y-44561604D01*
X54318924Y-44497461D01*
X54386913Y-44256518D01*
X53595001Y-43464606D01*
X52803089Y-44256518D01*
X52871078Y-44497461D01*
X53037659Y-44556746D01*
X52810461Y-44650854D01*
X52420854Y-45040461D01*
X52210001Y-45549507D01*
X31877000Y-45549507D01*
X31877000Y-43080172D01*
X52197800Y-43080172D01*
X52225771Y-43630449D01*
X52382541Y-44008924D01*
X52623484Y-44076913D01*
X53415396Y-43285001D01*
X53774606Y-43285001D01*
X54566518Y-44076913D01*
X54807461Y-44008924D01*
X54992202Y-43489830D01*
X54964231Y-42939553D01*
X54807461Y-42561078D01*
X54566518Y-42493089D01*
X53774606Y-43285001D01*
X53415396Y-43285001D01*
X52623484Y-42493089D01*
X52382541Y-42561078D01*
X52197800Y-43080172D01*
X31877000Y-43080172D01*
X31877000Y-39370000D01*
X34045908Y-39370000D01*
X34161161Y-39949418D01*
X34489375Y-40440625D01*
X34980582Y-40768839D01*
X35413744Y-40855000D01*
X35616645Y-40855000D01*
X37315484Y-42553840D01*
X37371831Y-42638169D01*
X37456160Y-42694516D01*
X37456161Y-42694517D01*
X37599113Y-42790034D01*
X37705918Y-42861399D01*
X38000524Y-42920000D01*
X38000528Y-42920000D01*
X38099999Y-42939786D01*
X38199470Y-42920000D01*
X50830531Y-42920000D01*
X50930002Y-42939786D01*
X51029473Y-42920000D01*
X51029478Y-42920000D01*
X51324084Y-42861399D01*
X51658171Y-42638169D01*
X51714520Y-42553837D01*
X52358495Y-41909862D01*
X52387192Y-41952810D01*
X52597236Y-42093158D01*
X52845001Y-42142441D01*
X52851354Y-42142441D01*
X52803089Y-42313484D01*
X53595001Y-43105396D01*
X54386913Y-42313484D01*
X54338648Y-42142441D01*
X54345001Y-42142441D01*
X54592766Y-42093158D01*
X54802810Y-41952810D01*
X54943158Y-41742766D01*
X54992441Y-41495001D01*
X54992441Y-39995001D01*
X54943158Y-39747236D01*
X54802810Y-39537192D01*
X54592766Y-39396844D01*
X54345001Y-39347561D01*
X52845001Y-39347561D01*
X52597236Y-39396844D01*
X52387192Y-39537192D01*
X52255019Y-39735001D01*
X52194471Y-39735001D01*
X52095000Y-39715215D01*
X51995529Y-39735001D01*
X51995525Y-39735001D01*
X51700919Y-39793602D01*
X51366832Y-40016832D01*
X51310483Y-40101164D01*
X50511647Y-40900000D01*
X38518356Y-40900000D01*
X38435678Y-40817322D01*
X38679418Y-40768839D01*
X39170625Y-40440625D01*
X39370000Y-40142239D01*
X39569375Y-40440625D01*
X40060582Y-40768839D01*
X40493744Y-40855000D01*
X40786256Y-40855000D01*
X41219418Y-40768839D01*
X41710625Y-40440625D01*
X41910000Y-40142239D01*
X42109375Y-40440625D01*
X42600582Y-40768839D01*
X43033744Y-40855000D01*
X43326256Y-40855000D01*
X43759418Y-40768839D01*
X44250625Y-40440625D01*
X44265096Y-40418967D01*
X44331673Y-40579698D01*
X44510301Y-40758327D01*
X44743690Y-40855000D01*
X45434250Y-40855000D01*
X45593000Y-40696250D01*
X45593000Y-39497000D01*
X45847000Y-39497000D01*
X45847000Y-40696250D01*
X46005750Y-40855000D01*
X46696310Y-40855000D01*
X46929699Y-40758327D01*
X47108327Y-40579698D01*
X47205000Y-40346309D01*
X47205000Y-39655750D01*
X47046250Y-39497000D01*
X45847000Y-39497000D01*
X45593000Y-39497000D01*
X45573000Y-39497000D01*
X45573000Y-39243000D01*
X45593000Y-39243000D01*
X45593000Y-38043750D01*
X45847000Y-38043750D01*
X45847000Y-39243000D01*
X47046250Y-39243000D01*
X47205000Y-39084250D01*
X47205000Y-38985105D01*
X70455000Y-38985105D01*
X70455000Y-39754895D01*
X70749586Y-40466090D01*
X71293910Y-41010414D01*
X72005105Y-41305000D01*
X72774895Y-41305000D01*
X73486090Y-41010414D01*
X74030414Y-40466090D01*
X74325000Y-39754895D01*
X74325000Y-38985105D01*
X74030414Y-38273910D01*
X73486090Y-37729586D01*
X72774895Y-37435000D01*
X72005105Y-37435000D01*
X71293910Y-37729586D01*
X70749586Y-38273910D01*
X70455000Y-38985105D01*
X47205000Y-38985105D01*
X47205000Y-38393691D01*
X47108327Y-38160302D01*
X46929699Y-37981673D01*
X46696310Y-37885000D01*
X46005750Y-37885000D01*
X45847000Y-38043750D01*
X45593000Y-38043750D01*
X45434250Y-37885000D01*
X44743690Y-37885000D01*
X44510301Y-37981673D01*
X44331673Y-38160302D01*
X44265096Y-38321033D01*
X44250625Y-38299375D01*
X43759418Y-37971161D01*
X43326256Y-37885000D01*
X43033744Y-37885000D01*
X42600582Y-37971161D01*
X42109375Y-38299375D01*
X41910000Y-38597761D01*
X41710625Y-38299375D01*
X41219418Y-37971161D01*
X40786256Y-37885000D01*
X40493744Y-37885000D01*
X40060582Y-37971161D01*
X39569375Y-38299375D01*
X39370000Y-38597761D01*
X39170625Y-38299375D01*
X38679418Y-37971161D01*
X38246256Y-37885000D01*
X37953744Y-37885000D01*
X37520582Y-37971161D01*
X37029375Y-38299375D01*
X36830000Y-38597761D01*
X36630625Y-38299375D01*
X36139418Y-37971161D01*
X35706256Y-37885000D01*
X35413744Y-37885000D01*
X34980582Y-37971161D01*
X34489375Y-38299375D01*
X34161161Y-38790582D01*
X34045908Y-39370000D01*
X31877000Y-39370000D01*
X31877000Y-29926029D01*
X34680000Y-29926029D01*
X34680000Y-31033971D01*
X35103991Y-32057576D01*
X35887424Y-32841009D01*
X36911029Y-33265000D01*
X38018971Y-33265000D01*
X39042576Y-32841009D01*
X39826009Y-32057576D01*
X40250000Y-31033971D01*
X40250000Y-29926029D01*
X67065000Y-29926029D01*
X67065000Y-31033971D01*
X67488991Y-32057576D01*
X68272424Y-32841009D01*
X69296029Y-33265000D01*
X70403971Y-33265000D01*
X71427576Y-32841009D01*
X72211009Y-32057576D01*
X72635000Y-31033971D01*
X72635000Y-29926029D01*
X72211009Y-28902424D01*
X71427576Y-28118991D01*
X70403971Y-27695000D01*
X69296029Y-27695000D01*
X68272424Y-28118991D01*
X67488991Y-28902424D01*
X67065000Y-29926029D01*
X40250000Y-29926029D01*
X39826009Y-28902424D01*
X39042576Y-28118991D01*
X38018971Y-27695000D01*
X36911029Y-27695000D01*
X35887424Y-28118991D01*
X35103991Y-28902424D01*
X34680000Y-29926029D01*
X31877000Y-29926029D01*
X31877000Y-25527000D01*
X75438000Y-25527000D01*
X75438000Y-95123000D01*
G04 #@! TD*
M02*
