G04 #@! TF.GenerationSoftware,KiCad,Pcbnew,(5.0.2)-1*
G04 #@! TF.CreationDate,2019-05-20T19:12:17+02:00*
G04 #@! TF.ProjectId,Carte capteurs 2,43617274-6520-4636-9170-746575727320,rev?*
G04 #@! TF.SameCoordinates,Original*
G04 #@! TF.FileFunction,Soldermask,Top*
G04 #@! TF.FilePolarity,Negative*
%FSLAX46Y46*%
G04 Gerber Fmt 4.6, Leading zero omitted, Abs format (unit mm)*
G04 Created by KiCad (PCBNEW (5.0.2)-1) date 20/05/2019 19:12:17*
%MOMM*%
%LPD*%
G01*
G04 APERTURE LIST*
%ADD10C,0.300000*%
%ADD11C,0.100000*%
G04 APERTURE END LIST*
D10*
X46939285Y-88800714D02*
X46867857Y-88872142D01*
X46653571Y-88943571D01*
X46510714Y-88943571D01*
X46296428Y-88872142D01*
X46153571Y-88729285D01*
X46082142Y-88586428D01*
X46010714Y-88300714D01*
X46010714Y-88086428D01*
X46082142Y-87800714D01*
X46153571Y-87657857D01*
X46296428Y-87515000D01*
X46510714Y-87443571D01*
X46653571Y-87443571D01*
X46867857Y-87515000D01*
X46939285Y-87586428D01*
X47796428Y-88943571D02*
X47653571Y-88872142D01*
X47582142Y-88729285D01*
X47582142Y-87443571D01*
X49010714Y-87943571D02*
X49010714Y-88943571D01*
X48367857Y-87943571D02*
X48367857Y-88729285D01*
X48439285Y-88872142D01*
X48582142Y-88943571D01*
X48796428Y-88943571D01*
X48939285Y-88872142D01*
X49010714Y-88800714D01*
X49725000Y-88943571D02*
X49725000Y-87443571D01*
X49725000Y-88015000D02*
X49867857Y-87943571D01*
X50153571Y-87943571D01*
X50296428Y-88015000D01*
X50367857Y-88086428D01*
X50439285Y-88229285D01*
X50439285Y-88657857D01*
X50367857Y-88800714D01*
X50296428Y-88872142D01*
X50153571Y-88943571D01*
X49867857Y-88943571D01*
X49725000Y-88872142D01*
X51082142Y-88157857D02*
X51582142Y-88157857D01*
X51796428Y-88943571D02*
X51082142Y-88943571D01*
X51082142Y-87443571D01*
X51796428Y-87443571D01*
X52653571Y-88943571D02*
X52510714Y-88872142D01*
X52439285Y-88729285D01*
X52439285Y-87443571D01*
X53796428Y-88872142D02*
X53653571Y-88943571D01*
X53367857Y-88943571D01*
X53225000Y-88872142D01*
X53153571Y-88729285D01*
X53153571Y-88157857D01*
X53225000Y-88015000D01*
X53367857Y-87943571D01*
X53653571Y-87943571D01*
X53796428Y-88015000D01*
X53867857Y-88157857D01*
X53867857Y-88300714D01*
X53153571Y-88443571D01*
X54510714Y-88943571D02*
X54510714Y-87443571D01*
X54653571Y-88372142D02*
X55082142Y-88943571D01*
X55082142Y-87943571D02*
X54510714Y-88515000D01*
X56796428Y-87586428D02*
X56867857Y-87515000D01*
X57010714Y-87443571D01*
X57367857Y-87443571D01*
X57510714Y-87515000D01*
X57582142Y-87586428D01*
X57653571Y-87729285D01*
X57653571Y-87872142D01*
X57582142Y-88086428D01*
X56725000Y-88943571D01*
X57653571Y-88943571D01*
X58582142Y-87443571D02*
X58725000Y-87443571D01*
X58867857Y-87515000D01*
X58939285Y-87586428D01*
X59010714Y-87729285D01*
X59082142Y-88015000D01*
X59082142Y-88372142D01*
X59010714Y-88657857D01*
X58939285Y-88800714D01*
X58867857Y-88872142D01*
X58725000Y-88943571D01*
X58582142Y-88943571D01*
X58439285Y-88872142D01*
X58367857Y-88800714D01*
X58296428Y-88657857D01*
X58225000Y-88372142D01*
X58225000Y-88015000D01*
X58296428Y-87729285D01*
X58367857Y-87586428D01*
X58439285Y-87515000D01*
X58582142Y-87443571D01*
X60510714Y-88943571D02*
X59653571Y-88943571D01*
X60082142Y-88943571D02*
X60082142Y-87443571D01*
X59939285Y-87657857D01*
X59796428Y-87800714D01*
X59653571Y-87872142D01*
X61225000Y-88943571D02*
X61510714Y-88943571D01*
X61653571Y-88872142D01*
X61725000Y-88800714D01*
X61867857Y-88586428D01*
X61939285Y-88300714D01*
X61939285Y-87729285D01*
X61867857Y-87586428D01*
X61796428Y-87515000D01*
X61653571Y-87443571D01*
X61367857Y-87443571D01*
X61225000Y-87515000D01*
X61153571Y-87586428D01*
X61082142Y-87729285D01*
X61082142Y-88086428D01*
X61153571Y-88229285D01*
X61225000Y-88300714D01*
X61367857Y-88372142D01*
X61653571Y-88372142D01*
X61796428Y-88300714D01*
X61867857Y-88229285D01*
X61939285Y-88086428D01*
D11*
G36*
X38107006Y-86783582D02*
X38507565Y-86949499D01*
X38868059Y-87190373D01*
X39174627Y-87496941D01*
X39415501Y-87857435D01*
X39581418Y-88257994D01*
X39666000Y-88683219D01*
X39666000Y-89116781D01*
X39581418Y-89542006D01*
X39415501Y-89942565D01*
X39174627Y-90303059D01*
X38868059Y-90609627D01*
X38507565Y-90850501D01*
X38107006Y-91016418D01*
X37681781Y-91101000D01*
X37248219Y-91101000D01*
X36822994Y-91016418D01*
X36422435Y-90850501D01*
X36061941Y-90609627D01*
X35755373Y-90303059D01*
X35514499Y-89942565D01*
X35348582Y-89542006D01*
X35264000Y-89116781D01*
X35264000Y-88683219D01*
X35348582Y-88257994D01*
X35514499Y-87857435D01*
X35755373Y-87496941D01*
X36061941Y-87190373D01*
X36422435Y-86949499D01*
X36822994Y-86783582D01*
X37248219Y-86699000D01*
X37681781Y-86699000D01*
X38107006Y-86783582D01*
X38107006Y-86783582D01*
G37*
G36*
X70492006Y-86783582D02*
X70892565Y-86949499D01*
X71253059Y-87190373D01*
X71559627Y-87496941D01*
X71800501Y-87857435D01*
X71966418Y-88257994D01*
X72051000Y-88683219D01*
X72051000Y-89116781D01*
X71966418Y-89542006D01*
X71800501Y-89942565D01*
X71559627Y-90303059D01*
X71253059Y-90609627D01*
X70892565Y-90850501D01*
X70492006Y-91016418D01*
X70066781Y-91101000D01*
X69633219Y-91101000D01*
X69207994Y-91016418D01*
X68807435Y-90850501D01*
X68446941Y-90609627D01*
X68140373Y-90303059D01*
X67899499Y-89942565D01*
X67733582Y-89542006D01*
X67649000Y-89116781D01*
X67649000Y-88683219D01*
X67733582Y-88257994D01*
X67899499Y-87857435D01*
X68140373Y-87496941D01*
X68446941Y-87190373D01*
X68807435Y-86949499D01*
X69207994Y-86783582D01*
X69633219Y-86699000D01*
X70066781Y-86699000D01*
X70492006Y-86783582D01*
X70492006Y-86783582D01*
G37*
G36*
X70284891Y-80239018D02*
X70403362Y-80288090D01*
X70509993Y-80359339D01*
X70600663Y-80450009D01*
X70671912Y-80556640D01*
X70720984Y-80675111D01*
X70746001Y-80800882D01*
X70746001Y-80929120D01*
X70720984Y-81054891D01*
X70671912Y-81173362D01*
X70600663Y-81279993D01*
X70509993Y-81370663D01*
X70403362Y-81441912D01*
X70284891Y-81490984D01*
X70159120Y-81516001D01*
X70030882Y-81516001D01*
X69905111Y-81490984D01*
X69786640Y-81441912D01*
X69680009Y-81370663D01*
X69589339Y-81279993D01*
X69518090Y-81173362D01*
X69469018Y-81054891D01*
X69444001Y-80929120D01*
X69444001Y-80800882D01*
X69469018Y-80675111D01*
X69518090Y-80556640D01*
X69589339Y-80450009D01*
X69680009Y-80359339D01*
X69786640Y-80288090D01*
X69905111Y-80239018D01*
X70030882Y-80214001D01*
X70159120Y-80214001D01*
X70284891Y-80239018D01*
X70284891Y-80239018D01*
G37*
G36*
X37284891Y-80239018D02*
X37403362Y-80288090D01*
X37509993Y-80359339D01*
X37600663Y-80450009D01*
X37671912Y-80556640D01*
X37720984Y-80675111D01*
X37746001Y-80800882D01*
X37746001Y-80929120D01*
X37720984Y-81054891D01*
X37671912Y-81173362D01*
X37600663Y-81279993D01*
X37509993Y-81370663D01*
X37403362Y-81441912D01*
X37284891Y-81490984D01*
X37159120Y-81516001D01*
X37030882Y-81516001D01*
X36905111Y-81490984D01*
X36786640Y-81441912D01*
X36680009Y-81370663D01*
X36589339Y-81279993D01*
X36518090Y-81173362D01*
X36469018Y-81054891D01*
X36444001Y-80929120D01*
X36444001Y-80800882D01*
X36469018Y-80675111D01*
X36518090Y-80556640D01*
X36589339Y-80450009D01*
X36680009Y-80359339D01*
X36786640Y-80288090D01*
X36905111Y-80239018D01*
X37030882Y-80214001D01*
X37159120Y-80214001D01*
X37284891Y-80239018D01*
X37284891Y-80239018D01*
G37*
G36*
X56818458Y-53738684D02*
X58829611Y-54571731D01*
X60639606Y-55781131D01*
X62178871Y-57320396D01*
X63388271Y-59130391D01*
X64221318Y-61141544D01*
X64646001Y-63276571D01*
X64646001Y-65453431D01*
X64221318Y-67588458D01*
X63388271Y-69599611D01*
X62178871Y-71409606D01*
X60639606Y-72948871D01*
X58829611Y-74158271D01*
X56818458Y-74991318D01*
X54683431Y-75416001D01*
X52506571Y-75416001D01*
X50371544Y-74991318D01*
X48360391Y-74158271D01*
X46550396Y-72948871D01*
X45011131Y-71409606D01*
X43801731Y-69599611D01*
X42968684Y-67588458D01*
X42544001Y-65453431D01*
X42544001Y-63276571D01*
X42968684Y-61141544D01*
X43801731Y-59130391D01*
X45011131Y-57320396D01*
X46550396Y-55781131D01*
X48360391Y-54571731D01*
X50371544Y-53738684D01*
X52506571Y-53314001D01*
X54683431Y-53314001D01*
X56818458Y-53738684D01*
X56818458Y-53738684D01*
G37*
G36*
X53828644Y-47594782D02*
X53974416Y-47655163D01*
X54105612Y-47742825D01*
X54217177Y-47854390D01*
X54304839Y-47985586D01*
X54365220Y-48131358D01*
X54396001Y-48286108D01*
X54396001Y-48443894D01*
X54365220Y-48598644D01*
X54304839Y-48744416D01*
X54217177Y-48875612D01*
X54105612Y-48987177D01*
X53974416Y-49074839D01*
X53828644Y-49135220D01*
X53673894Y-49166001D01*
X53516108Y-49166001D01*
X53361358Y-49135220D01*
X53215586Y-49074839D01*
X53084390Y-48987177D01*
X52972825Y-48875612D01*
X52885163Y-48744416D01*
X52824782Y-48598644D01*
X52794001Y-48443894D01*
X52794001Y-48286108D01*
X52824782Y-48131358D01*
X52885163Y-47985586D01*
X52972825Y-47854390D01*
X53084390Y-47742825D01*
X53215586Y-47655163D01*
X53361358Y-47594782D01*
X53516108Y-47564001D01*
X53673894Y-47564001D01*
X53828644Y-47594782D01*
X53828644Y-47594782D01*
G37*
G36*
X70284891Y-47239018D02*
X70403362Y-47288090D01*
X70509993Y-47359339D01*
X70600663Y-47450009D01*
X70671912Y-47556640D01*
X70720984Y-47675111D01*
X70746001Y-47800882D01*
X70746001Y-47929120D01*
X70720984Y-48054891D01*
X70671912Y-48173362D01*
X70600663Y-48279993D01*
X70509993Y-48370663D01*
X70403362Y-48441912D01*
X70284891Y-48490984D01*
X70159120Y-48516001D01*
X70030882Y-48516001D01*
X69905111Y-48490984D01*
X69786640Y-48441912D01*
X69680009Y-48370663D01*
X69589339Y-48279993D01*
X69518090Y-48173362D01*
X69469018Y-48054891D01*
X69444001Y-47929120D01*
X69444001Y-47800882D01*
X69469018Y-47675111D01*
X69518090Y-47556640D01*
X69589339Y-47450009D01*
X69680009Y-47359339D01*
X69786640Y-47288090D01*
X69905111Y-47239018D01*
X70030882Y-47214001D01*
X70159120Y-47214001D01*
X70284891Y-47239018D01*
X70284891Y-47239018D01*
G37*
G36*
X37284891Y-47239018D02*
X37403362Y-47288090D01*
X37509993Y-47359339D01*
X37600663Y-47450009D01*
X37671912Y-47556640D01*
X37720984Y-47675111D01*
X37746001Y-47800882D01*
X37746001Y-47929120D01*
X37720984Y-48054891D01*
X37671912Y-48173362D01*
X37600663Y-48279993D01*
X37509993Y-48370663D01*
X37403362Y-48441912D01*
X37284891Y-48490984D01*
X37159120Y-48516001D01*
X37030882Y-48516001D01*
X36905111Y-48490984D01*
X36786640Y-48441912D01*
X36680009Y-48370663D01*
X36589339Y-48279993D01*
X36518090Y-48173362D01*
X36469018Y-48054891D01*
X36444001Y-47929120D01*
X36444001Y-47800882D01*
X36469018Y-47675111D01*
X36518090Y-47556640D01*
X36589339Y-47450009D01*
X36680009Y-47359339D01*
X36786640Y-47288090D01*
X36905111Y-47239018D01*
X37030882Y-47214001D01*
X37159120Y-47214001D01*
X37284891Y-47239018D01*
X37284891Y-47239018D01*
G37*
G36*
X53828644Y-45054782D02*
X53974416Y-45115163D01*
X54105612Y-45202825D01*
X54217177Y-45314390D01*
X54304839Y-45445586D01*
X54365220Y-45591358D01*
X54396001Y-45746108D01*
X54396001Y-45903894D01*
X54365220Y-46058644D01*
X54304839Y-46204416D01*
X54217177Y-46335612D01*
X54105612Y-46447177D01*
X53974416Y-46534839D01*
X53828644Y-46595220D01*
X53673894Y-46626001D01*
X53516108Y-46626001D01*
X53361358Y-46595220D01*
X53215586Y-46534839D01*
X53084390Y-46447177D01*
X52972825Y-46335612D01*
X52885163Y-46204416D01*
X52824782Y-46058644D01*
X52794001Y-45903894D01*
X52794001Y-45746108D01*
X52824782Y-45591358D01*
X52885163Y-45445586D01*
X52972825Y-45314390D01*
X53084390Y-45202825D01*
X53215586Y-45115163D01*
X53361358Y-45054782D01*
X53516108Y-45024001D01*
X53673894Y-45024001D01*
X53828644Y-45054782D01*
X53828644Y-45054782D01*
G37*
G36*
X53828644Y-42514782D02*
X53974416Y-42575163D01*
X54105612Y-42662825D01*
X54217177Y-42774390D01*
X54304839Y-42905586D01*
X54365220Y-43051358D01*
X54396001Y-43206108D01*
X54396001Y-43363894D01*
X54365220Y-43518644D01*
X54304839Y-43664416D01*
X54217177Y-43795612D01*
X54105612Y-43907177D01*
X53974416Y-43994839D01*
X53828644Y-44055220D01*
X53673894Y-44086001D01*
X53516108Y-44086001D01*
X53361358Y-44055220D01*
X53215586Y-43994839D01*
X53084390Y-43907177D01*
X52972825Y-43795612D01*
X52885163Y-43664416D01*
X52824782Y-43518644D01*
X52794001Y-43363894D01*
X52794001Y-43206108D01*
X52824782Y-43051358D01*
X52885163Y-42905586D01*
X52972825Y-42774390D01*
X53084390Y-42662825D01*
X53215586Y-42575163D01*
X53361358Y-42514782D01*
X53516108Y-42484001D01*
X53673894Y-42484001D01*
X53828644Y-42514782D01*
X53828644Y-42514782D01*
G37*
G36*
X45274591Y-42658085D02*
X45308569Y-42668393D01*
X45339887Y-42685133D01*
X45367339Y-42707661D01*
X45389867Y-42735113D01*
X45406607Y-42766431D01*
X45416915Y-42800409D01*
X45421000Y-42841890D01*
X45421000Y-43518110D01*
X45416915Y-43559591D01*
X45406607Y-43593569D01*
X45389867Y-43624887D01*
X45367339Y-43652339D01*
X45339887Y-43674867D01*
X45308569Y-43691607D01*
X45274591Y-43701915D01*
X45233110Y-43706000D01*
X44631890Y-43706000D01*
X44590409Y-43701915D01*
X44556431Y-43691607D01*
X44525113Y-43674867D01*
X44497661Y-43652339D01*
X44475133Y-43624887D01*
X44458393Y-43593569D01*
X44448085Y-43559591D01*
X44444000Y-43518110D01*
X44444000Y-42841890D01*
X44448085Y-42800409D01*
X44458393Y-42766431D01*
X44475133Y-42735113D01*
X44497661Y-42707661D01*
X44525113Y-42685133D01*
X44556431Y-42668393D01*
X44590409Y-42658085D01*
X44631890Y-42654000D01*
X45233110Y-42654000D01*
X45274591Y-42658085D01*
X45274591Y-42658085D01*
G37*
G36*
X69709591Y-42658085D02*
X69743569Y-42668393D01*
X69774887Y-42685133D01*
X69802339Y-42707661D01*
X69824867Y-42735113D01*
X69841607Y-42766431D01*
X69851915Y-42800409D01*
X69856000Y-42841890D01*
X69856000Y-43518110D01*
X69851915Y-43559591D01*
X69841607Y-43593569D01*
X69824867Y-43624887D01*
X69802339Y-43652339D01*
X69774887Y-43674867D01*
X69743569Y-43691607D01*
X69709591Y-43701915D01*
X69668110Y-43706000D01*
X69066890Y-43706000D01*
X69025409Y-43701915D01*
X68991431Y-43691607D01*
X68960113Y-43674867D01*
X68932661Y-43652339D01*
X68910133Y-43624887D01*
X68893393Y-43593569D01*
X68883085Y-43559591D01*
X68879000Y-43518110D01*
X68879000Y-42841890D01*
X68883085Y-42800409D01*
X68893393Y-42766431D01*
X68910133Y-42735113D01*
X68932661Y-42707661D01*
X68960113Y-42685133D01*
X68991431Y-42668393D01*
X69025409Y-42658085D01*
X69066890Y-42654000D01*
X69668110Y-42654000D01*
X69709591Y-42658085D01*
X69709591Y-42658085D01*
G37*
G36*
X35902091Y-42658085D02*
X35936069Y-42668393D01*
X35967387Y-42685133D01*
X35994839Y-42707661D01*
X36017367Y-42735113D01*
X36034107Y-42766431D01*
X36044415Y-42800409D01*
X36048500Y-42841890D01*
X36048500Y-43518110D01*
X36044415Y-43559591D01*
X36034107Y-43593569D01*
X36017367Y-43624887D01*
X35994839Y-43652339D01*
X35967387Y-43674867D01*
X35936069Y-43691607D01*
X35902091Y-43701915D01*
X35860610Y-43706000D01*
X35259390Y-43706000D01*
X35217909Y-43701915D01*
X35183931Y-43691607D01*
X35152613Y-43674867D01*
X35125161Y-43652339D01*
X35102633Y-43624887D01*
X35085893Y-43593569D01*
X35075585Y-43559591D01*
X35071500Y-43518110D01*
X35071500Y-42841890D01*
X35075585Y-42800409D01*
X35085893Y-42766431D01*
X35102633Y-42735113D01*
X35125161Y-42707661D01*
X35152613Y-42685133D01*
X35183931Y-42668393D01*
X35217909Y-42658085D01*
X35259390Y-42654000D01*
X35860610Y-42654000D01*
X35902091Y-42658085D01*
X35902091Y-42658085D01*
G37*
G36*
X37477091Y-42658085D02*
X37511069Y-42668393D01*
X37542387Y-42685133D01*
X37569839Y-42707661D01*
X37592367Y-42735113D01*
X37609107Y-42766431D01*
X37619415Y-42800409D01*
X37623500Y-42841890D01*
X37623500Y-43518110D01*
X37619415Y-43559591D01*
X37609107Y-43593569D01*
X37592367Y-43624887D01*
X37569839Y-43652339D01*
X37542387Y-43674867D01*
X37511069Y-43691607D01*
X37477091Y-43701915D01*
X37435610Y-43706000D01*
X36834390Y-43706000D01*
X36792909Y-43701915D01*
X36758931Y-43691607D01*
X36727613Y-43674867D01*
X36700161Y-43652339D01*
X36677633Y-43624887D01*
X36660893Y-43593569D01*
X36650585Y-43559591D01*
X36646500Y-43518110D01*
X36646500Y-42841890D01*
X36650585Y-42800409D01*
X36660893Y-42766431D01*
X36677633Y-42735113D01*
X36700161Y-42707661D01*
X36727613Y-42685133D01*
X36758931Y-42668393D01*
X36792909Y-42658085D01*
X36834390Y-42654000D01*
X37435610Y-42654000D01*
X37477091Y-42658085D01*
X37477091Y-42658085D01*
G37*
G36*
X46849591Y-42658085D02*
X46883569Y-42668393D01*
X46914887Y-42685133D01*
X46942339Y-42707661D01*
X46964867Y-42735113D01*
X46981607Y-42766431D01*
X46991915Y-42800409D01*
X46996000Y-42841890D01*
X46996000Y-43518110D01*
X46991915Y-43559591D01*
X46981607Y-43593569D01*
X46964867Y-43624887D01*
X46942339Y-43652339D01*
X46914887Y-43674867D01*
X46883569Y-43691607D01*
X46849591Y-43701915D01*
X46808110Y-43706000D01*
X46206890Y-43706000D01*
X46165409Y-43701915D01*
X46131431Y-43691607D01*
X46100113Y-43674867D01*
X46072661Y-43652339D01*
X46050133Y-43624887D01*
X46033393Y-43593569D01*
X46023085Y-43559591D01*
X46019000Y-43518110D01*
X46019000Y-42841890D01*
X46023085Y-42800409D01*
X46033393Y-42766431D01*
X46050133Y-42735113D01*
X46072661Y-42707661D01*
X46100113Y-42685133D01*
X46131431Y-42668393D01*
X46165409Y-42658085D01*
X46206890Y-42654000D01*
X46808110Y-42654000D01*
X46849591Y-42658085D01*
X46849591Y-42658085D01*
G37*
G36*
X68134591Y-42658085D02*
X68168569Y-42668393D01*
X68199887Y-42685133D01*
X68227339Y-42707661D01*
X68249867Y-42735113D01*
X68266607Y-42766431D01*
X68276915Y-42800409D01*
X68281000Y-42841890D01*
X68281000Y-43518110D01*
X68276915Y-43559591D01*
X68266607Y-43593569D01*
X68249867Y-43624887D01*
X68227339Y-43652339D01*
X68199887Y-43674867D01*
X68168569Y-43691607D01*
X68134591Y-43701915D01*
X68093110Y-43706000D01*
X67491890Y-43706000D01*
X67450409Y-43701915D01*
X67416431Y-43691607D01*
X67385113Y-43674867D01*
X67357661Y-43652339D01*
X67335133Y-43624887D01*
X67318393Y-43593569D01*
X67308085Y-43559591D01*
X67304000Y-43518110D01*
X67304000Y-42841890D01*
X67308085Y-42800409D01*
X67318393Y-42766431D01*
X67335133Y-42735113D01*
X67357661Y-42707661D01*
X67385113Y-42685133D01*
X67416431Y-42668393D01*
X67450409Y-42658085D01*
X67491890Y-42654000D01*
X68093110Y-42654000D01*
X68134591Y-42658085D01*
X68134591Y-42658085D01*
G37*
G36*
X59721000Y-42896000D02*
X58069000Y-42896000D01*
X58069000Y-42194000D01*
X59721000Y-42194000D01*
X59721000Y-42896000D01*
X59721000Y-42896000D01*
G37*
G36*
X65121000Y-42896000D02*
X63469000Y-42896000D01*
X63469000Y-42194000D01*
X65121000Y-42194000D01*
X65121000Y-42896000D01*
X65121000Y-42896000D01*
G37*
G36*
X59721000Y-41626000D02*
X58069000Y-41626000D01*
X58069000Y-40924000D01*
X59721000Y-40924000D01*
X59721000Y-41626000D01*
X59721000Y-41626000D01*
G37*
G36*
X65121000Y-41626000D02*
X63469000Y-41626000D01*
X63469000Y-40924000D01*
X65121000Y-40924000D01*
X65121000Y-41626000D01*
X65121000Y-41626000D01*
G37*
G36*
X54396001Y-41546001D02*
X52794001Y-41546001D01*
X52794001Y-39944001D01*
X54396001Y-39944001D01*
X54396001Y-41546001D01*
X54396001Y-41546001D01*
G37*
G36*
X69709591Y-40118085D02*
X69743569Y-40128393D01*
X69774887Y-40145133D01*
X69802339Y-40167661D01*
X69824867Y-40195113D01*
X69841607Y-40226431D01*
X69851915Y-40260409D01*
X69856000Y-40301890D01*
X69856000Y-40978110D01*
X69851915Y-41019591D01*
X69841607Y-41053569D01*
X69824867Y-41084887D01*
X69802339Y-41112339D01*
X69774887Y-41134867D01*
X69743569Y-41151607D01*
X69709591Y-41161915D01*
X69668110Y-41166000D01*
X69066890Y-41166000D01*
X69025409Y-41161915D01*
X68991431Y-41151607D01*
X68960113Y-41134867D01*
X68932661Y-41112339D01*
X68910133Y-41084887D01*
X68893393Y-41053569D01*
X68883085Y-41019591D01*
X68879000Y-40978110D01*
X68879000Y-40301890D01*
X68883085Y-40260409D01*
X68893393Y-40226431D01*
X68910133Y-40195113D01*
X68932661Y-40167661D01*
X68960113Y-40145133D01*
X68991431Y-40128393D01*
X69025409Y-40118085D01*
X69066890Y-40114000D01*
X69668110Y-40114000D01*
X69709591Y-40118085D01*
X69709591Y-40118085D01*
G37*
G36*
X68134591Y-40118085D02*
X68168569Y-40128393D01*
X68199887Y-40145133D01*
X68227339Y-40167661D01*
X68249867Y-40195113D01*
X68266607Y-40226431D01*
X68276915Y-40260409D01*
X68281000Y-40301890D01*
X68281000Y-40978110D01*
X68276915Y-41019591D01*
X68266607Y-41053569D01*
X68249867Y-41084887D01*
X68227339Y-41112339D01*
X68199887Y-41134867D01*
X68168569Y-41151607D01*
X68134591Y-41161915D01*
X68093110Y-41166000D01*
X67491890Y-41166000D01*
X67450409Y-41161915D01*
X67416431Y-41151607D01*
X67385113Y-41134867D01*
X67357661Y-41112339D01*
X67335133Y-41084887D01*
X67318393Y-41053569D01*
X67308085Y-41019591D01*
X67304000Y-40978110D01*
X67304000Y-40301890D01*
X67308085Y-40260409D01*
X67318393Y-40226431D01*
X67335133Y-40195113D01*
X67357661Y-40167661D01*
X67385113Y-40145133D01*
X67416431Y-40128393D01*
X67450409Y-40118085D01*
X67491890Y-40114000D01*
X68093110Y-40114000D01*
X68134591Y-40118085D01*
X68134591Y-40118085D01*
G37*
G36*
X72653567Y-38044959D02*
X72784072Y-38070918D01*
X73029939Y-38172759D01*
X73250464Y-38320110D01*
X73251215Y-38320612D01*
X73439388Y-38508785D01*
X73439390Y-38508788D01*
X73587241Y-38730061D01*
X73643966Y-38867009D01*
X73689082Y-38975929D01*
X73741000Y-39236937D01*
X73741000Y-39503063D01*
X73715041Y-39633567D01*
X73689082Y-39764072D01*
X73587241Y-40009939D01*
X73469908Y-40185539D01*
X73439388Y-40231215D01*
X73251215Y-40419388D01*
X73251212Y-40419390D01*
X73029939Y-40567241D01*
X72784072Y-40669082D01*
X72653567Y-40695041D01*
X72523063Y-40721000D01*
X72256937Y-40721000D01*
X72126433Y-40695041D01*
X71995928Y-40669082D01*
X71750061Y-40567241D01*
X71528788Y-40419390D01*
X71528785Y-40419388D01*
X71340612Y-40231215D01*
X71310092Y-40185539D01*
X71192759Y-40009939D01*
X71090918Y-39764072D01*
X71064959Y-39633567D01*
X71039000Y-39503063D01*
X71039000Y-39236937D01*
X71090918Y-38975929D01*
X71136034Y-38867009D01*
X71192759Y-38730061D01*
X71340610Y-38508788D01*
X71340612Y-38508785D01*
X71528785Y-38320612D01*
X71529536Y-38320110D01*
X71750061Y-38172759D01*
X71995928Y-38070918D01*
X72126433Y-38044959D01*
X72256937Y-38019000D01*
X72523063Y-38019000D01*
X72653567Y-38044959D01*
X72653567Y-38044959D01*
G37*
G36*
X59721000Y-40356000D02*
X58069000Y-40356000D01*
X58069000Y-39654000D01*
X59721000Y-39654000D01*
X59721000Y-40356000D01*
X59721000Y-40356000D01*
G37*
G36*
X65121000Y-40356000D02*
X63469000Y-40356000D01*
X63469000Y-39654000D01*
X65121000Y-39654000D01*
X65121000Y-40356000D01*
X65121000Y-40356000D01*
G37*
G36*
X40747412Y-38475220D02*
X40816627Y-38482037D01*
X40904813Y-38508788D01*
X40986467Y-38533557D01*
X41082402Y-38584836D01*
X41142991Y-38617222D01*
X41178729Y-38646552D01*
X41280186Y-38729814D01*
X41363448Y-38831271D01*
X41392778Y-38867009D01*
X41392779Y-38867011D01*
X41476443Y-39023533D01*
X41476443Y-39023534D01*
X41527963Y-39193373D01*
X41545359Y-39370000D01*
X41527963Y-39546627D01*
X41495392Y-39654000D01*
X41476443Y-39716467D01*
X41450997Y-39764072D01*
X41392778Y-39872991D01*
X41363448Y-39908729D01*
X41280186Y-40010186D01*
X41178729Y-40093448D01*
X41142991Y-40122778D01*
X41142989Y-40122779D01*
X40986467Y-40206443D01*
X40933362Y-40222552D01*
X40816627Y-40257963D01*
X40750443Y-40264481D01*
X40684260Y-40271000D01*
X40595740Y-40271000D01*
X40529557Y-40264481D01*
X40463373Y-40257963D01*
X40346638Y-40222552D01*
X40293533Y-40206443D01*
X40137011Y-40122779D01*
X40137009Y-40122778D01*
X40101271Y-40093448D01*
X39999814Y-40010186D01*
X39916552Y-39908729D01*
X39887222Y-39872991D01*
X39829003Y-39764072D01*
X39803557Y-39716467D01*
X39784608Y-39654000D01*
X39752037Y-39546627D01*
X39734641Y-39370000D01*
X39752037Y-39193373D01*
X39803557Y-39023534D01*
X39803557Y-39023533D01*
X39887221Y-38867011D01*
X39887222Y-38867009D01*
X39916552Y-38831271D01*
X39999814Y-38729814D01*
X40101271Y-38646552D01*
X40137009Y-38617222D01*
X40197598Y-38584836D01*
X40293533Y-38533557D01*
X40375187Y-38508788D01*
X40463373Y-38482037D01*
X40532588Y-38475220D01*
X40595740Y-38469000D01*
X40684260Y-38469000D01*
X40747412Y-38475220D01*
X40747412Y-38475220D01*
G37*
G36*
X43287412Y-38475220D02*
X43356627Y-38482037D01*
X43444813Y-38508788D01*
X43526467Y-38533557D01*
X43622402Y-38584836D01*
X43682991Y-38617222D01*
X43718729Y-38646552D01*
X43820186Y-38729814D01*
X43903448Y-38831271D01*
X43932778Y-38867009D01*
X43932779Y-38867011D01*
X44016443Y-39023533D01*
X44016443Y-39023534D01*
X44067963Y-39193373D01*
X44085359Y-39370000D01*
X44067963Y-39546627D01*
X44035392Y-39654000D01*
X44016443Y-39716467D01*
X43990997Y-39764072D01*
X43932778Y-39872991D01*
X43903448Y-39908729D01*
X43820186Y-40010186D01*
X43718729Y-40093448D01*
X43682991Y-40122778D01*
X43682989Y-40122779D01*
X43526467Y-40206443D01*
X43473362Y-40222552D01*
X43356627Y-40257963D01*
X43290443Y-40264481D01*
X43224260Y-40271000D01*
X43135740Y-40271000D01*
X43069557Y-40264481D01*
X43003373Y-40257963D01*
X42886638Y-40222552D01*
X42833533Y-40206443D01*
X42677011Y-40122779D01*
X42677009Y-40122778D01*
X42641271Y-40093448D01*
X42539814Y-40010186D01*
X42456552Y-39908729D01*
X42427222Y-39872991D01*
X42369003Y-39764072D01*
X42343557Y-39716467D01*
X42324608Y-39654000D01*
X42292037Y-39546627D01*
X42274641Y-39370000D01*
X42292037Y-39193373D01*
X42343557Y-39023534D01*
X42343557Y-39023533D01*
X42427221Y-38867011D01*
X42427222Y-38867009D01*
X42456552Y-38831271D01*
X42539814Y-38729814D01*
X42641271Y-38646552D01*
X42677009Y-38617222D01*
X42737598Y-38584836D01*
X42833533Y-38533557D01*
X42915187Y-38508788D01*
X43003373Y-38482037D01*
X43072588Y-38475220D01*
X43135740Y-38469000D01*
X43224260Y-38469000D01*
X43287412Y-38475220D01*
X43287412Y-38475220D01*
G37*
G36*
X46621000Y-40271000D02*
X44819000Y-40271000D01*
X44819000Y-38469000D01*
X46621000Y-38469000D01*
X46621000Y-40271000D01*
X46621000Y-40271000D01*
G37*
G36*
X35667412Y-38475220D02*
X35736627Y-38482037D01*
X35824813Y-38508788D01*
X35906467Y-38533557D01*
X36002402Y-38584836D01*
X36062991Y-38617222D01*
X36098729Y-38646552D01*
X36200186Y-38729814D01*
X36283448Y-38831271D01*
X36312778Y-38867009D01*
X36312779Y-38867011D01*
X36396443Y-39023533D01*
X36396443Y-39023534D01*
X36447963Y-39193373D01*
X36465359Y-39370000D01*
X36447963Y-39546627D01*
X36415392Y-39654000D01*
X36396443Y-39716467D01*
X36370997Y-39764072D01*
X36312778Y-39872991D01*
X36283448Y-39908729D01*
X36200186Y-40010186D01*
X36098729Y-40093448D01*
X36062991Y-40122778D01*
X36062989Y-40122779D01*
X35906467Y-40206443D01*
X35853362Y-40222552D01*
X35736627Y-40257963D01*
X35670443Y-40264481D01*
X35604260Y-40271000D01*
X35515740Y-40271000D01*
X35449557Y-40264481D01*
X35383373Y-40257963D01*
X35266638Y-40222552D01*
X35213533Y-40206443D01*
X35057011Y-40122779D01*
X35057009Y-40122778D01*
X35021271Y-40093448D01*
X34919814Y-40010186D01*
X34836552Y-39908729D01*
X34807222Y-39872991D01*
X34749003Y-39764072D01*
X34723557Y-39716467D01*
X34704608Y-39654000D01*
X34672037Y-39546627D01*
X34654641Y-39370000D01*
X34672037Y-39193373D01*
X34723557Y-39023534D01*
X34723557Y-39023533D01*
X34807221Y-38867011D01*
X34807222Y-38867009D01*
X34836552Y-38831271D01*
X34919814Y-38729814D01*
X35021271Y-38646552D01*
X35057009Y-38617222D01*
X35117598Y-38584836D01*
X35213533Y-38533557D01*
X35295187Y-38508788D01*
X35383373Y-38482037D01*
X35452588Y-38475220D01*
X35515740Y-38469000D01*
X35604260Y-38469000D01*
X35667412Y-38475220D01*
X35667412Y-38475220D01*
G37*
G36*
X38207412Y-38475220D02*
X38276627Y-38482037D01*
X38364813Y-38508788D01*
X38446467Y-38533557D01*
X38542402Y-38584836D01*
X38602991Y-38617222D01*
X38638729Y-38646552D01*
X38740186Y-38729814D01*
X38823448Y-38831271D01*
X38852778Y-38867009D01*
X38852779Y-38867011D01*
X38936443Y-39023533D01*
X38936443Y-39023534D01*
X38987963Y-39193373D01*
X39005359Y-39370000D01*
X38987963Y-39546627D01*
X38955392Y-39654000D01*
X38936443Y-39716467D01*
X38910997Y-39764072D01*
X38852778Y-39872991D01*
X38823448Y-39908729D01*
X38740186Y-40010186D01*
X38638729Y-40093448D01*
X38602991Y-40122778D01*
X38602989Y-40122779D01*
X38446467Y-40206443D01*
X38393362Y-40222552D01*
X38276627Y-40257963D01*
X38210443Y-40264481D01*
X38144260Y-40271000D01*
X38055740Y-40271000D01*
X37989557Y-40264481D01*
X37923373Y-40257963D01*
X37806638Y-40222552D01*
X37753533Y-40206443D01*
X37597011Y-40122779D01*
X37597009Y-40122778D01*
X37561271Y-40093448D01*
X37459814Y-40010186D01*
X37376552Y-39908729D01*
X37347222Y-39872991D01*
X37289003Y-39764072D01*
X37263557Y-39716467D01*
X37244608Y-39654000D01*
X37212037Y-39546627D01*
X37194641Y-39370000D01*
X37212037Y-39193373D01*
X37263557Y-39023534D01*
X37263557Y-39023533D01*
X37347221Y-38867011D01*
X37347222Y-38867009D01*
X37376552Y-38831271D01*
X37459814Y-38729814D01*
X37561271Y-38646552D01*
X37597009Y-38617222D01*
X37657598Y-38584836D01*
X37753533Y-38533557D01*
X37835187Y-38508788D01*
X37923373Y-38482037D01*
X37992588Y-38475220D01*
X38055740Y-38469000D01*
X38144260Y-38469000D01*
X38207412Y-38475220D01*
X38207412Y-38475220D01*
G37*
G36*
X59721000Y-39086000D02*
X58069000Y-39086000D01*
X58069000Y-38384000D01*
X59721000Y-38384000D01*
X59721000Y-39086000D01*
X59721000Y-39086000D01*
G37*
G36*
X65121000Y-39086000D02*
X63469000Y-39086000D01*
X63469000Y-38384000D01*
X65121000Y-38384000D01*
X65121000Y-39086000D01*
X65121000Y-39086000D01*
G37*
G36*
X68134591Y-37578085D02*
X68168569Y-37588393D01*
X68199887Y-37605133D01*
X68227339Y-37627661D01*
X68249867Y-37655113D01*
X68266607Y-37686431D01*
X68276915Y-37720409D01*
X68281000Y-37761890D01*
X68281000Y-38438110D01*
X68276915Y-38479591D01*
X68266607Y-38513569D01*
X68249867Y-38544887D01*
X68227339Y-38572339D01*
X68199887Y-38594867D01*
X68168569Y-38611607D01*
X68134591Y-38621915D01*
X68093110Y-38626000D01*
X67491890Y-38626000D01*
X67450409Y-38621915D01*
X67416431Y-38611607D01*
X67385113Y-38594867D01*
X67357661Y-38572339D01*
X67335133Y-38544887D01*
X67318393Y-38513569D01*
X67308085Y-38479591D01*
X67304000Y-38438110D01*
X67304000Y-37761890D01*
X67308085Y-37720409D01*
X67318393Y-37686431D01*
X67335133Y-37655113D01*
X67357661Y-37627661D01*
X67385113Y-37605133D01*
X67416431Y-37588393D01*
X67450409Y-37578085D01*
X67491890Y-37574000D01*
X68093110Y-37574000D01*
X68134591Y-37578085D01*
X68134591Y-37578085D01*
G37*
G36*
X69709591Y-37578085D02*
X69743569Y-37588393D01*
X69774887Y-37605133D01*
X69802339Y-37627661D01*
X69824867Y-37655113D01*
X69841607Y-37686431D01*
X69851915Y-37720409D01*
X69856000Y-37761890D01*
X69856000Y-38438110D01*
X69851915Y-38479591D01*
X69841607Y-38513569D01*
X69824867Y-38544887D01*
X69802339Y-38572339D01*
X69774887Y-38594867D01*
X69743569Y-38611607D01*
X69709591Y-38621915D01*
X69668110Y-38626000D01*
X69066890Y-38626000D01*
X69025409Y-38621915D01*
X68991431Y-38611607D01*
X68960113Y-38594867D01*
X68932661Y-38572339D01*
X68910133Y-38544887D01*
X68893393Y-38513569D01*
X68883085Y-38479591D01*
X68879000Y-38438110D01*
X68879000Y-37761890D01*
X68883085Y-37720409D01*
X68893393Y-37686431D01*
X68910133Y-37655113D01*
X68932661Y-37627661D01*
X68960113Y-37605133D01*
X68991431Y-37588393D01*
X69025409Y-37578085D01*
X69066890Y-37574000D01*
X69668110Y-37574000D01*
X69709591Y-37578085D01*
X69709591Y-37578085D01*
G37*
G36*
X38107006Y-28363582D02*
X38507565Y-28529499D01*
X38868059Y-28770373D01*
X39174627Y-29076941D01*
X39415501Y-29437435D01*
X39581418Y-29837994D01*
X39666000Y-30263219D01*
X39666000Y-30696781D01*
X39581418Y-31122006D01*
X39415501Y-31522565D01*
X39174627Y-31883059D01*
X38868059Y-32189627D01*
X38507565Y-32430501D01*
X38107006Y-32596418D01*
X37681781Y-32681000D01*
X37248219Y-32681000D01*
X36822994Y-32596418D01*
X36422435Y-32430501D01*
X36061941Y-32189627D01*
X35755373Y-31883059D01*
X35514499Y-31522565D01*
X35348582Y-31122006D01*
X35264000Y-30696781D01*
X35264000Y-30263219D01*
X35348582Y-29837994D01*
X35514499Y-29437435D01*
X35755373Y-29076941D01*
X36061941Y-28770373D01*
X36422435Y-28529499D01*
X36822994Y-28363582D01*
X37248219Y-28279000D01*
X37681781Y-28279000D01*
X38107006Y-28363582D01*
X38107006Y-28363582D01*
G37*
G36*
X70492006Y-28363582D02*
X70892565Y-28529499D01*
X71253059Y-28770373D01*
X71559627Y-29076941D01*
X71800501Y-29437435D01*
X71966418Y-29837994D01*
X72051000Y-30263219D01*
X72051000Y-30696781D01*
X71966418Y-31122006D01*
X71800501Y-31522565D01*
X71559627Y-31883059D01*
X71253059Y-32189627D01*
X70892565Y-32430501D01*
X70492006Y-32596418D01*
X70066781Y-32681000D01*
X69633219Y-32681000D01*
X69207994Y-32596418D01*
X68807435Y-32430501D01*
X68446941Y-32189627D01*
X68140373Y-31883059D01*
X67899499Y-31522565D01*
X67733582Y-31122006D01*
X67649000Y-30696781D01*
X67649000Y-30263219D01*
X67733582Y-29837994D01*
X67899499Y-29437435D01*
X68140373Y-29076941D01*
X68446941Y-28770373D01*
X68807435Y-28529499D01*
X69207994Y-28363582D01*
X69633219Y-28279000D01*
X70066781Y-28279000D01*
X70492006Y-28363582D01*
X70492006Y-28363582D01*
G37*
M02*
