G04 #@! TF.GenerationSoftware,KiCad,Pcbnew,(5.0.2)-1*
G04 #@! TF.CreationDate,2019-05-20T19:12:17+02:00*
G04 #@! TF.ProjectId,Carte capteurs 2,43617274-6520-4636-9170-746575727320,rev?*
G04 #@! TF.SameCoordinates,Original*
G04 #@! TF.FileFunction,Copper,L1,Top*
G04 #@! TF.FilePolarity,Positive*
%FSLAX46Y46*%
G04 Gerber Fmt 4.6, Leading zero omitted, Abs format (unit mm)*
G04 Created by KiCad (PCBNEW (5.0.2)-1) date 20/05/2019 19:12:17*
%MOMM*%
%LPD*%
G01*
G04 APERTURE LIST*
G04 #@! TA.AperFunction,Conductor*
%ADD10C,0.100000*%
G04 #@! TD*
G04 #@! TA.AperFunction,SMDPad,CuDef*
%ADD11C,0.875000*%
G04 #@! TD*
G04 #@! TA.AperFunction,ComponentPad*
%ADD12C,2.600000*%
G04 #@! TD*
G04 #@! TA.AperFunction,ComponentPad*
%ADD13R,1.700000X1.700000*%
G04 #@! TD*
G04 #@! TA.AperFunction,ComponentPad*
%ADD14O,1.700000X1.700000*%
G04 #@! TD*
G04 #@! TA.AperFunction,SMDPad,CuDef*
%ADD15R,1.550000X0.600000*%
G04 #@! TD*
G04 #@! TA.AperFunction,ComponentPad*
%ADD16C,1.500000*%
G04 #@! TD*
G04 #@! TA.AperFunction,ComponentPad*
%ADD17R,1.500000X1.500000*%
G04 #@! TD*
G04 #@! TA.AperFunction,Conductor*
%ADD18C,0.750000*%
G04 #@! TD*
G04 #@! TA.AperFunction,Conductor*
%ADD19C,0.254000*%
G04 #@! TD*
G04 APERTURE END LIST*
D10*
G04 #@! TO.N,GND*
G04 #@! TO.C,C1*
G36*
X37375191Y-42706053D02*
X37396426Y-42709203D01*
X37417250Y-42714419D01*
X37437462Y-42721651D01*
X37456868Y-42730830D01*
X37475281Y-42741866D01*
X37492524Y-42754654D01*
X37508430Y-42769070D01*
X37522846Y-42784976D01*
X37535634Y-42802219D01*
X37546670Y-42820632D01*
X37555849Y-42840038D01*
X37563081Y-42860250D01*
X37568297Y-42881074D01*
X37571447Y-42902309D01*
X37572500Y-42923750D01*
X37572500Y-43436250D01*
X37571447Y-43457691D01*
X37568297Y-43478926D01*
X37563081Y-43499750D01*
X37555849Y-43519962D01*
X37546670Y-43539368D01*
X37535634Y-43557781D01*
X37522846Y-43575024D01*
X37508430Y-43590930D01*
X37492524Y-43605346D01*
X37475281Y-43618134D01*
X37456868Y-43629170D01*
X37437462Y-43638349D01*
X37417250Y-43645581D01*
X37396426Y-43650797D01*
X37375191Y-43653947D01*
X37353750Y-43655000D01*
X36916250Y-43655000D01*
X36894809Y-43653947D01*
X36873574Y-43650797D01*
X36852750Y-43645581D01*
X36832538Y-43638349D01*
X36813132Y-43629170D01*
X36794719Y-43618134D01*
X36777476Y-43605346D01*
X36761570Y-43590930D01*
X36747154Y-43575024D01*
X36734366Y-43557781D01*
X36723330Y-43539368D01*
X36714151Y-43519962D01*
X36706919Y-43499750D01*
X36701703Y-43478926D01*
X36698553Y-43457691D01*
X36697500Y-43436250D01*
X36697500Y-42923750D01*
X36698553Y-42902309D01*
X36701703Y-42881074D01*
X36706919Y-42860250D01*
X36714151Y-42840038D01*
X36723330Y-42820632D01*
X36734366Y-42802219D01*
X36747154Y-42784976D01*
X36761570Y-42769070D01*
X36777476Y-42754654D01*
X36794719Y-42741866D01*
X36813132Y-42730830D01*
X36832538Y-42721651D01*
X36852750Y-42714419D01*
X36873574Y-42709203D01*
X36894809Y-42706053D01*
X36916250Y-42705000D01*
X37353750Y-42705000D01*
X37375191Y-42706053D01*
X37375191Y-42706053D01*
G37*
D11*
G04 #@! TD*
G04 #@! TO.P,C1,2*
G04 #@! TO.N,GND*
X37135000Y-43180000D03*
D10*
G04 #@! TO.N,+5V*
G04 #@! TO.C,C1*
G36*
X35800191Y-42706053D02*
X35821426Y-42709203D01*
X35842250Y-42714419D01*
X35862462Y-42721651D01*
X35881868Y-42730830D01*
X35900281Y-42741866D01*
X35917524Y-42754654D01*
X35933430Y-42769070D01*
X35947846Y-42784976D01*
X35960634Y-42802219D01*
X35971670Y-42820632D01*
X35980849Y-42840038D01*
X35988081Y-42860250D01*
X35993297Y-42881074D01*
X35996447Y-42902309D01*
X35997500Y-42923750D01*
X35997500Y-43436250D01*
X35996447Y-43457691D01*
X35993297Y-43478926D01*
X35988081Y-43499750D01*
X35980849Y-43519962D01*
X35971670Y-43539368D01*
X35960634Y-43557781D01*
X35947846Y-43575024D01*
X35933430Y-43590930D01*
X35917524Y-43605346D01*
X35900281Y-43618134D01*
X35881868Y-43629170D01*
X35862462Y-43638349D01*
X35842250Y-43645581D01*
X35821426Y-43650797D01*
X35800191Y-43653947D01*
X35778750Y-43655000D01*
X35341250Y-43655000D01*
X35319809Y-43653947D01*
X35298574Y-43650797D01*
X35277750Y-43645581D01*
X35257538Y-43638349D01*
X35238132Y-43629170D01*
X35219719Y-43618134D01*
X35202476Y-43605346D01*
X35186570Y-43590930D01*
X35172154Y-43575024D01*
X35159366Y-43557781D01*
X35148330Y-43539368D01*
X35139151Y-43519962D01*
X35131919Y-43499750D01*
X35126703Y-43478926D01*
X35123553Y-43457691D01*
X35122500Y-43436250D01*
X35122500Y-42923750D01*
X35123553Y-42902309D01*
X35126703Y-42881074D01*
X35131919Y-42860250D01*
X35139151Y-42840038D01*
X35148330Y-42820632D01*
X35159366Y-42802219D01*
X35172154Y-42784976D01*
X35186570Y-42769070D01*
X35202476Y-42754654D01*
X35219719Y-42741866D01*
X35238132Y-42730830D01*
X35257538Y-42721651D01*
X35277750Y-42714419D01*
X35298574Y-42709203D01*
X35319809Y-42706053D01*
X35341250Y-42705000D01*
X35778750Y-42705000D01*
X35800191Y-42706053D01*
X35800191Y-42706053D01*
G37*
D11*
G04 #@! TD*
G04 #@! TO.P,C1,1*
G04 #@! TO.N,+5V*
X35560000Y-43180000D03*
D10*
G04 #@! TO.N,GND*
G04 #@! TO.C,C2*
G36*
X69607691Y-42706053D02*
X69628926Y-42709203D01*
X69649750Y-42714419D01*
X69669962Y-42721651D01*
X69689368Y-42730830D01*
X69707781Y-42741866D01*
X69725024Y-42754654D01*
X69740930Y-42769070D01*
X69755346Y-42784976D01*
X69768134Y-42802219D01*
X69779170Y-42820632D01*
X69788349Y-42840038D01*
X69795581Y-42860250D01*
X69800797Y-42881074D01*
X69803947Y-42902309D01*
X69805000Y-42923750D01*
X69805000Y-43436250D01*
X69803947Y-43457691D01*
X69800797Y-43478926D01*
X69795581Y-43499750D01*
X69788349Y-43519962D01*
X69779170Y-43539368D01*
X69768134Y-43557781D01*
X69755346Y-43575024D01*
X69740930Y-43590930D01*
X69725024Y-43605346D01*
X69707781Y-43618134D01*
X69689368Y-43629170D01*
X69669962Y-43638349D01*
X69649750Y-43645581D01*
X69628926Y-43650797D01*
X69607691Y-43653947D01*
X69586250Y-43655000D01*
X69148750Y-43655000D01*
X69127309Y-43653947D01*
X69106074Y-43650797D01*
X69085250Y-43645581D01*
X69065038Y-43638349D01*
X69045632Y-43629170D01*
X69027219Y-43618134D01*
X69009976Y-43605346D01*
X68994070Y-43590930D01*
X68979654Y-43575024D01*
X68966866Y-43557781D01*
X68955830Y-43539368D01*
X68946651Y-43519962D01*
X68939419Y-43499750D01*
X68934203Y-43478926D01*
X68931053Y-43457691D01*
X68930000Y-43436250D01*
X68930000Y-42923750D01*
X68931053Y-42902309D01*
X68934203Y-42881074D01*
X68939419Y-42860250D01*
X68946651Y-42840038D01*
X68955830Y-42820632D01*
X68966866Y-42802219D01*
X68979654Y-42784976D01*
X68994070Y-42769070D01*
X69009976Y-42754654D01*
X69027219Y-42741866D01*
X69045632Y-42730830D01*
X69065038Y-42721651D01*
X69085250Y-42714419D01*
X69106074Y-42709203D01*
X69127309Y-42706053D01*
X69148750Y-42705000D01*
X69586250Y-42705000D01*
X69607691Y-42706053D01*
X69607691Y-42706053D01*
G37*
D11*
G04 #@! TD*
G04 #@! TO.P,C2,1*
G04 #@! TO.N,GND*
X69367500Y-43180000D03*
D10*
G04 #@! TO.N,VCurrentRef*
G04 #@! TO.C,C2*
G36*
X68032691Y-42706053D02*
X68053926Y-42709203D01*
X68074750Y-42714419D01*
X68094962Y-42721651D01*
X68114368Y-42730830D01*
X68132781Y-42741866D01*
X68150024Y-42754654D01*
X68165930Y-42769070D01*
X68180346Y-42784976D01*
X68193134Y-42802219D01*
X68204170Y-42820632D01*
X68213349Y-42840038D01*
X68220581Y-42860250D01*
X68225797Y-42881074D01*
X68228947Y-42902309D01*
X68230000Y-42923750D01*
X68230000Y-43436250D01*
X68228947Y-43457691D01*
X68225797Y-43478926D01*
X68220581Y-43499750D01*
X68213349Y-43519962D01*
X68204170Y-43539368D01*
X68193134Y-43557781D01*
X68180346Y-43575024D01*
X68165930Y-43590930D01*
X68150024Y-43605346D01*
X68132781Y-43618134D01*
X68114368Y-43629170D01*
X68094962Y-43638349D01*
X68074750Y-43645581D01*
X68053926Y-43650797D01*
X68032691Y-43653947D01*
X68011250Y-43655000D01*
X67573750Y-43655000D01*
X67552309Y-43653947D01*
X67531074Y-43650797D01*
X67510250Y-43645581D01*
X67490038Y-43638349D01*
X67470632Y-43629170D01*
X67452219Y-43618134D01*
X67434976Y-43605346D01*
X67419070Y-43590930D01*
X67404654Y-43575024D01*
X67391866Y-43557781D01*
X67380830Y-43539368D01*
X67371651Y-43519962D01*
X67364419Y-43499750D01*
X67359203Y-43478926D01*
X67356053Y-43457691D01*
X67355000Y-43436250D01*
X67355000Y-42923750D01*
X67356053Y-42902309D01*
X67359203Y-42881074D01*
X67364419Y-42860250D01*
X67371651Y-42840038D01*
X67380830Y-42820632D01*
X67391866Y-42802219D01*
X67404654Y-42784976D01*
X67419070Y-42769070D01*
X67434976Y-42754654D01*
X67452219Y-42741866D01*
X67470632Y-42730830D01*
X67490038Y-42721651D01*
X67510250Y-42714419D01*
X67531074Y-42709203D01*
X67552309Y-42706053D01*
X67573750Y-42705000D01*
X68011250Y-42705000D01*
X68032691Y-42706053D01*
X68032691Y-42706053D01*
G37*
D11*
G04 #@! TD*
G04 #@! TO.P,C2,2*
G04 #@! TO.N,VCurrentRef*
X67792500Y-43180000D03*
D10*
G04 #@! TO.N,Net-(C3-Pad1)*
G04 #@! TO.C,C3*
G36*
X46747691Y-42706053D02*
X46768926Y-42709203D01*
X46789750Y-42714419D01*
X46809962Y-42721651D01*
X46829368Y-42730830D01*
X46847781Y-42741866D01*
X46865024Y-42754654D01*
X46880930Y-42769070D01*
X46895346Y-42784976D01*
X46908134Y-42802219D01*
X46919170Y-42820632D01*
X46928349Y-42840038D01*
X46935581Y-42860250D01*
X46940797Y-42881074D01*
X46943947Y-42902309D01*
X46945000Y-42923750D01*
X46945000Y-43436250D01*
X46943947Y-43457691D01*
X46940797Y-43478926D01*
X46935581Y-43499750D01*
X46928349Y-43519962D01*
X46919170Y-43539368D01*
X46908134Y-43557781D01*
X46895346Y-43575024D01*
X46880930Y-43590930D01*
X46865024Y-43605346D01*
X46847781Y-43618134D01*
X46829368Y-43629170D01*
X46809962Y-43638349D01*
X46789750Y-43645581D01*
X46768926Y-43650797D01*
X46747691Y-43653947D01*
X46726250Y-43655000D01*
X46288750Y-43655000D01*
X46267309Y-43653947D01*
X46246074Y-43650797D01*
X46225250Y-43645581D01*
X46205038Y-43638349D01*
X46185632Y-43629170D01*
X46167219Y-43618134D01*
X46149976Y-43605346D01*
X46134070Y-43590930D01*
X46119654Y-43575024D01*
X46106866Y-43557781D01*
X46095830Y-43539368D01*
X46086651Y-43519962D01*
X46079419Y-43499750D01*
X46074203Y-43478926D01*
X46071053Y-43457691D01*
X46070000Y-43436250D01*
X46070000Y-42923750D01*
X46071053Y-42902309D01*
X46074203Y-42881074D01*
X46079419Y-42860250D01*
X46086651Y-42840038D01*
X46095830Y-42820632D01*
X46106866Y-42802219D01*
X46119654Y-42784976D01*
X46134070Y-42769070D01*
X46149976Y-42754654D01*
X46167219Y-42741866D01*
X46185632Y-42730830D01*
X46205038Y-42721651D01*
X46225250Y-42714419D01*
X46246074Y-42709203D01*
X46267309Y-42706053D01*
X46288750Y-42705000D01*
X46726250Y-42705000D01*
X46747691Y-42706053D01*
X46747691Y-42706053D01*
G37*
D11*
G04 #@! TD*
G04 #@! TO.P,C3,1*
G04 #@! TO.N,Net-(C3-Pad1)*
X46507500Y-43180000D03*
D10*
G04 #@! TO.N,GND*
G04 #@! TO.C,C3*
G36*
X45172691Y-42706053D02*
X45193926Y-42709203D01*
X45214750Y-42714419D01*
X45234962Y-42721651D01*
X45254368Y-42730830D01*
X45272781Y-42741866D01*
X45290024Y-42754654D01*
X45305930Y-42769070D01*
X45320346Y-42784976D01*
X45333134Y-42802219D01*
X45344170Y-42820632D01*
X45353349Y-42840038D01*
X45360581Y-42860250D01*
X45365797Y-42881074D01*
X45368947Y-42902309D01*
X45370000Y-42923750D01*
X45370000Y-43436250D01*
X45368947Y-43457691D01*
X45365797Y-43478926D01*
X45360581Y-43499750D01*
X45353349Y-43519962D01*
X45344170Y-43539368D01*
X45333134Y-43557781D01*
X45320346Y-43575024D01*
X45305930Y-43590930D01*
X45290024Y-43605346D01*
X45272781Y-43618134D01*
X45254368Y-43629170D01*
X45234962Y-43638349D01*
X45214750Y-43645581D01*
X45193926Y-43650797D01*
X45172691Y-43653947D01*
X45151250Y-43655000D01*
X44713750Y-43655000D01*
X44692309Y-43653947D01*
X44671074Y-43650797D01*
X44650250Y-43645581D01*
X44630038Y-43638349D01*
X44610632Y-43629170D01*
X44592219Y-43618134D01*
X44574976Y-43605346D01*
X44559070Y-43590930D01*
X44544654Y-43575024D01*
X44531866Y-43557781D01*
X44520830Y-43539368D01*
X44511651Y-43519962D01*
X44504419Y-43499750D01*
X44499203Y-43478926D01*
X44496053Y-43457691D01*
X44495000Y-43436250D01*
X44495000Y-42923750D01*
X44496053Y-42902309D01*
X44499203Y-42881074D01*
X44504419Y-42860250D01*
X44511651Y-42840038D01*
X44520830Y-42820632D01*
X44531866Y-42802219D01*
X44544654Y-42784976D01*
X44559070Y-42769070D01*
X44574976Y-42754654D01*
X44592219Y-42741866D01*
X44610632Y-42730830D01*
X44630038Y-42721651D01*
X44650250Y-42714419D01*
X44671074Y-42709203D01*
X44692309Y-42706053D01*
X44713750Y-42705000D01*
X45151250Y-42705000D01*
X45172691Y-42706053D01*
X45172691Y-42706053D01*
G37*
D11*
G04 #@! TD*
G04 #@! TO.P,C3,2*
G04 #@! TO.N,GND*
X44932500Y-43180000D03*
D12*
G04 #@! TO.P,J0,1*
G04 #@! TO.N,Net-(J0-Pad1)*
X72390000Y-39370000D03*
G04 #@! TD*
D13*
G04 #@! TO.P,J1,1*
G04 #@! TO.N,GND*
X45720000Y-39370000D03*
D14*
G04 #@! TO.P,J1,2*
G04 #@! TO.N,VCurrentRef*
X43180000Y-39370000D03*
G04 #@! TO.P,J1,3*
G04 #@! TO.N,VCurrentProbe*
X40640000Y-39370000D03*
G04 #@! TO.P,J1,4*
G04 #@! TO.N,VProbeOut*
X38100000Y-39370000D03*
G04 #@! TO.P,J1,5*
G04 #@! TO.N,+5V*
X35560000Y-39370000D03*
G04 #@! TD*
D10*
G04 #@! TO.N,Net-(J0-Pad1)*
G04 #@! TO.C,R1*
G36*
X69607691Y-37626053D02*
X69628926Y-37629203D01*
X69649750Y-37634419D01*
X69669962Y-37641651D01*
X69689368Y-37650830D01*
X69707781Y-37661866D01*
X69725024Y-37674654D01*
X69740930Y-37689070D01*
X69755346Y-37704976D01*
X69768134Y-37722219D01*
X69779170Y-37740632D01*
X69788349Y-37760038D01*
X69795581Y-37780250D01*
X69800797Y-37801074D01*
X69803947Y-37822309D01*
X69805000Y-37843750D01*
X69805000Y-38356250D01*
X69803947Y-38377691D01*
X69800797Y-38398926D01*
X69795581Y-38419750D01*
X69788349Y-38439962D01*
X69779170Y-38459368D01*
X69768134Y-38477781D01*
X69755346Y-38495024D01*
X69740930Y-38510930D01*
X69725024Y-38525346D01*
X69707781Y-38538134D01*
X69689368Y-38549170D01*
X69669962Y-38558349D01*
X69649750Y-38565581D01*
X69628926Y-38570797D01*
X69607691Y-38573947D01*
X69586250Y-38575000D01*
X69148750Y-38575000D01*
X69127309Y-38573947D01*
X69106074Y-38570797D01*
X69085250Y-38565581D01*
X69065038Y-38558349D01*
X69045632Y-38549170D01*
X69027219Y-38538134D01*
X69009976Y-38525346D01*
X68994070Y-38510930D01*
X68979654Y-38495024D01*
X68966866Y-38477781D01*
X68955830Y-38459368D01*
X68946651Y-38439962D01*
X68939419Y-38419750D01*
X68934203Y-38398926D01*
X68931053Y-38377691D01*
X68930000Y-38356250D01*
X68930000Y-37843750D01*
X68931053Y-37822309D01*
X68934203Y-37801074D01*
X68939419Y-37780250D01*
X68946651Y-37760038D01*
X68955830Y-37740632D01*
X68966866Y-37722219D01*
X68979654Y-37704976D01*
X68994070Y-37689070D01*
X69009976Y-37674654D01*
X69027219Y-37661866D01*
X69045632Y-37650830D01*
X69065038Y-37641651D01*
X69085250Y-37634419D01*
X69106074Y-37629203D01*
X69127309Y-37626053D01*
X69148750Y-37625000D01*
X69586250Y-37625000D01*
X69607691Y-37626053D01*
X69607691Y-37626053D01*
G37*
D11*
G04 #@! TD*
G04 #@! TO.P,R1,1*
G04 #@! TO.N,Net-(J0-Pad1)*
X69367500Y-38100000D03*
D10*
G04 #@! TO.N,Net-(R1-Pad2)*
G04 #@! TO.C,R1*
G36*
X68032691Y-37626053D02*
X68053926Y-37629203D01*
X68074750Y-37634419D01*
X68094962Y-37641651D01*
X68114368Y-37650830D01*
X68132781Y-37661866D01*
X68150024Y-37674654D01*
X68165930Y-37689070D01*
X68180346Y-37704976D01*
X68193134Y-37722219D01*
X68204170Y-37740632D01*
X68213349Y-37760038D01*
X68220581Y-37780250D01*
X68225797Y-37801074D01*
X68228947Y-37822309D01*
X68230000Y-37843750D01*
X68230000Y-38356250D01*
X68228947Y-38377691D01*
X68225797Y-38398926D01*
X68220581Y-38419750D01*
X68213349Y-38439962D01*
X68204170Y-38459368D01*
X68193134Y-38477781D01*
X68180346Y-38495024D01*
X68165930Y-38510930D01*
X68150024Y-38525346D01*
X68132781Y-38538134D01*
X68114368Y-38549170D01*
X68094962Y-38558349D01*
X68074750Y-38565581D01*
X68053926Y-38570797D01*
X68032691Y-38573947D01*
X68011250Y-38575000D01*
X67573750Y-38575000D01*
X67552309Y-38573947D01*
X67531074Y-38570797D01*
X67510250Y-38565581D01*
X67490038Y-38558349D01*
X67470632Y-38549170D01*
X67452219Y-38538134D01*
X67434976Y-38525346D01*
X67419070Y-38510930D01*
X67404654Y-38495024D01*
X67391866Y-38477781D01*
X67380830Y-38459368D01*
X67371651Y-38439962D01*
X67364419Y-38419750D01*
X67359203Y-38398926D01*
X67356053Y-38377691D01*
X67355000Y-38356250D01*
X67355000Y-37843750D01*
X67356053Y-37822309D01*
X67359203Y-37801074D01*
X67364419Y-37780250D01*
X67371651Y-37760038D01*
X67380830Y-37740632D01*
X67391866Y-37722219D01*
X67404654Y-37704976D01*
X67419070Y-37689070D01*
X67434976Y-37674654D01*
X67452219Y-37661866D01*
X67470632Y-37650830D01*
X67490038Y-37641651D01*
X67510250Y-37634419D01*
X67531074Y-37629203D01*
X67552309Y-37626053D01*
X67573750Y-37625000D01*
X68011250Y-37625000D01*
X68032691Y-37626053D01*
X68032691Y-37626053D01*
G37*
D11*
G04 #@! TD*
G04 #@! TO.P,R1,2*
G04 #@! TO.N,Net-(R1-Pad2)*
X67792500Y-38100000D03*
D10*
G04 #@! TO.N,GND*
G04 #@! TO.C,R2*
G36*
X69607691Y-40166053D02*
X69628926Y-40169203D01*
X69649750Y-40174419D01*
X69669962Y-40181651D01*
X69689368Y-40190830D01*
X69707781Y-40201866D01*
X69725024Y-40214654D01*
X69740930Y-40229070D01*
X69755346Y-40244976D01*
X69768134Y-40262219D01*
X69779170Y-40280632D01*
X69788349Y-40300038D01*
X69795581Y-40320250D01*
X69800797Y-40341074D01*
X69803947Y-40362309D01*
X69805000Y-40383750D01*
X69805000Y-40896250D01*
X69803947Y-40917691D01*
X69800797Y-40938926D01*
X69795581Y-40959750D01*
X69788349Y-40979962D01*
X69779170Y-40999368D01*
X69768134Y-41017781D01*
X69755346Y-41035024D01*
X69740930Y-41050930D01*
X69725024Y-41065346D01*
X69707781Y-41078134D01*
X69689368Y-41089170D01*
X69669962Y-41098349D01*
X69649750Y-41105581D01*
X69628926Y-41110797D01*
X69607691Y-41113947D01*
X69586250Y-41115000D01*
X69148750Y-41115000D01*
X69127309Y-41113947D01*
X69106074Y-41110797D01*
X69085250Y-41105581D01*
X69065038Y-41098349D01*
X69045632Y-41089170D01*
X69027219Y-41078134D01*
X69009976Y-41065346D01*
X68994070Y-41050930D01*
X68979654Y-41035024D01*
X68966866Y-41017781D01*
X68955830Y-40999368D01*
X68946651Y-40979962D01*
X68939419Y-40959750D01*
X68934203Y-40938926D01*
X68931053Y-40917691D01*
X68930000Y-40896250D01*
X68930000Y-40383750D01*
X68931053Y-40362309D01*
X68934203Y-40341074D01*
X68939419Y-40320250D01*
X68946651Y-40300038D01*
X68955830Y-40280632D01*
X68966866Y-40262219D01*
X68979654Y-40244976D01*
X68994070Y-40229070D01*
X69009976Y-40214654D01*
X69027219Y-40201866D01*
X69045632Y-40190830D01*
X69065038Y-40181651D01*
X69085250Y-40174419D01*
X69106074Y-40169203D01*
X69127309Y-40166053D01*
X69148750Y-40165000D01*
X69586250Y-40165000D01*
X69607691Y-40166053D01*
X69607691Y-40166053D01*
G37*
D11*
G04 #@! TD*
G04 #@! TO.P,R2,2*
G04 #@! TO.N,GND*
X69367500Y-40640000D03*
D10*
G04 #@! TO.N,Net-(R1-Pad2)*
G04 #@! TO.C,R2*
G36*
X68032691Y-40166053D02*
X68053926Y-40169203D01*
X68074750Y-40174419D01*
X68094962Y-40181651D01*
X68114368Y-40190830D01*
X68132781Y-40201866D01*
X68150024Y-40214654D01*
X68165930Y-40229070D01*
X68180346Y-40244976D01*
X68193134Y-40262219D01*
X68204170Y-40280632D01*
X68213349Y-40300038D01*
X68220581Y-40320250D01*
X68225797Y-40341074D01*
X68228947Y-40362309D01*
X68230000Y-40383750D01*
X68230000Y-40896250D01*
X68228947Y-40917691D01*
X68225797Y-40938926D01*
X68220581Y-40959750D01*
X68213349Y-40979962D01*
X68204170Y-40999368D01*
X68193134Y-41017781D01*
X68180346Y-41035024D01*
X68165930Y-41050930D01*
X68150024Y-41065346D01*
X68132781Y-41078134D01*
X68114368Y-41089170D01*
X68094962Y-41098349D01*
X68074750Y-41105581D01*
X68053926Y-41110797D01*
X68032691Y-41113947D01*
X68011250Y-41115000D01*
X67573750Y-41115000D01*
X67552309Y-41113947D01*
X67531074Y-41110797D01*
X67510250Y-41105581D01*
X67490038Y-41098349D01*
X67470632Y-41089170D01*
X67452219Y-41078134D01*
X67434976Y-41065346D01*
X67419070Y-41050930D01*
X67404654Y-41035024D01*
X67391866Y-41017781D01*
X67380830Y-40999368D01*
X67371651Y-40979962D01*
X67364419Y-40959750D01*
X67359203Y-40938926D01*
X67356053Y-40917691D01*
X67355000Y-40896250D01*
X67355000Y-40383750D01*
X67356053Y-40362309D01*
X67359203Y-40341074D01*
X67364419Y-40320250D01*
X67371651Y-40300038D01*
X67380830Y-40280632D01*
X67391866Y-40262219D01*
X67404654Y-40244976D01*
X67419070Y-40229070D01*
X67434976Y-40214654D01*
X67452219Y-40201866D01*
X67470632Y-40190830D01*
X67490038Y-40181651D01*
X67510250Y-40174419D01*
X67531074Y-40169203D01*
X67552309Y-40166053D01*
X67573750Y-40165000D01*
X68011250Y-40165000D01*
X68032691Y-40166053D01*
X68032691Y-40166053D01*
G37*
D11*
G04 #@! TD*
G04 #@! TO.P,R2,1*
G04 #@! TO.N,Net-(R1-Pad2)*
X67792500Y-40640000D03*
D15*
G04 #@! TO.P,U0,1*
G04 #@! TO.N,VProbeOut*
X64295000Y-42545000D03*
G04 #@! TO.P,U0,2*
X64295000Y-41275000D03*
G04 #@! TO.P,U0,3*
G04 #@! TO.N,Net-(R1-Pad2)*
X64295000Y-40005000D03*
G04 #@! TO.P,U0,4*
G04 #@! TO.N,GND*
X64295000Y-38735000D03*
G04 #@! TO.P,U0,5*
G04 #@! TO.N,Net-(C3-Pad1)*
X58895000Y-38735000D03*
G04 #@! TO.P,U0,6*
G04 #@! TO.N,VCurrentProbe*
X58895000Y-40005000D03*
G04 #@! TO.P,U0,7*
X58895000Y-41275000D03*
G04 #@! TO.P,U0,8*
G04 #@! TO.N,+5V*
X58895000Y-42545000D03*
G04 #@! TD*
D16*
G04 #@! TO.P,U1,4*
G04 #@! TO.N,VCurrentRef*
X53595001Y-48365001D03*
G04 #@! TO.P,U1,3*
G04 #@! TO.N,Net-(C3-Pad1)*
X53595001Y-45825001D03*
G04 #@! TO.P,U1,2*
G04 #@! TO.N,GND*
X53595001Y-43285001D03*
D17*
G04 #@! TO.P,U1,1*
G04 #@! TO.N,+5V*
X53595001Y-40745001D03*
G04 #@! TD*
D18*
G04 #@! TO.N,+5V*
X35560000Y-39370000D02*
X35560000Y-43180000D01*
X57870000Y-42545000D02*
X58895000Y-42545000D01*
X56395000Y-42545000D02*
X57870000Y-42545000D01*
X54595001Y-40745001D02*
X56395000Y-42545000D01*
X53595001Y-40745001D02*
X54595001Y-40745001D01*
G04 #@! TO.N,VCurrentRef*
X53595001Y-48365001D02*
X47095001Y-48365001D01*
X43180000Y-44450000D02*
X43180000Y-39370000D01*
X47095001Y-48365001D02*
X43180000Y-44450000D01*
X62607499Y-48365001D02*
X67792500Y-43180000D01*
X53595001Y-48365001D02*
X62607499Y-48365001D01*
G04 #@! TO.N,Net-(C3-Pad1)*
X49152501Y-45825001D02*
X46507500Y-43180000D01*
X53595001Y-45825001D02*
X49152501Y-45825001D01*
X60420000Y-38735000D02*
X58895000Y-38735000D01*
X60445001Y-38760001D02*
X60420000Y-38735000D01*
X60445001Y-43465001D02*
X60445001Y-38760001D01*
X58085001Y-45825001D02*
X60445001Y-43465001D01*
X53595001Y-45825001D02*
X58085001Y-45825001D01*
G04 #@! TO.N,Net-(J0-Pad1)*
X71120000Y-38100000D02*
X72390000Y-39370000D01*
X69367500Y-38100000D02*
X71120000Y-38100000D01*
G04 #@! TO.N,VCurrentProbe*
X58895000Y-41275000D02*
X58895000Y-40005000D01*
X58895000Y-40005000D02*
X58420000Y-40005000D01*
X41489999Y-38520001D02*
X40640000Y-39370000D01*
X42265001Y-37744999D02*
X41489999Y-38520001D01*
X53490001Y-37744999D02*
X42265001Y-37744999D01*
X55750002Y-40005000D02*
X53490001Y-37744999D01*
X58895000Y-40005000D02*
X55750002Y-40005000D01*
G04 #@! TO.N,VProbeOut*
X64295000Y-42545000D02*
X64295000Y-41275000D01*
X38949999Y-38520001D02*
X38100000Y-39370000D01*
X40875011Y-36594989D02*
X38949999Y-38520001D01*
X59906348Y-36594989D02*
X40875011Y-36594989D01*
X61595011Y-38283652D02*
X59906348Y-36594989D01*
X61595011Y-39775013D02*
X61595011Y-38283652D01*
X63094998Y-41275000D02*
X61595011Y-39775013D01*
X64295000Y-41275000D02*
X63094998Y-41275000D01*
G04 #@! TO.N,Net-(R1-Pad2)*
X67792500Y-40640000D02*
X67792500Y-38100000D01*
X65320000Y-40005000D02*
X64295000Y-40005000D01*
X67732500Y-40005000D02*
X65320000Y-40005000D01*
X67792500Y-40065000D02*
X67732500Y-40005000D01*
X67792500Y-40640000D02*
X67792500Y-40065000D01*
G04 #@! TD*
D19*
G04 #@! TO.N,GND*
G36*
X75438000Y-95123000D02*
X31877000Y-95123000D01*
X31877000Y-88346029D01*
X34680000Y-88346029D01*
X34680000Y-89453971D01*
X35103991Y-90477576D01*
X35887424Y-91261009D01*
X36911029Y-91685000D01*
X38018971Y-91685000D01*
X39042576Y-91261009D01*
X39826009Y-90477576D01*
X40250000Y-89453971D01*
X40250000Y-88346029D01*
X67065000Y-88346029D01*
X67065000Y-89453971D01*
X67488991Y-90477576D01*
X68272424Y-91261009D01*
X69296029Y-91685000D01*
X70403971Y-91685000D01*
X71427576Y-91261009D01*
X72211009Y-90477576D01*
X72635000Y-89453971D01*
X72635000Y-88346029D01*
X72211009Y-87322424D01*
X71427576Y-86538991D01*
X70403971Y-86115000D01*
X69296029Y-86115000D01*
X68272424Y-86538991D01*
X67488991Y-87322424D01*
X67065000Y-88346029D01*
X40250000Y-88346029D01*
X39826009Y-87322424D01*
X39042576Y-86538991D01*
X38018971Y-86115000D01*
X36911029Y-86115000D01*
X35887424Y-86538991D01*
X35103991Y-87322424D01*
X34680000Y-88346029D01*
X31877000Y-88346029D01*
X31877000Y-80619344D01*
X35860001Y-80619344D01*
X35860001Y-81110658D01*
X36048019Y-81564572D01*
X36395430Y-81911983D01*
X36849344Y-82100001D01*
X37340658Y-82100001D01*
X37794572Y-81911983D01*
X38141983Y-81564572D01*
X38330001Y-81110658D01*
X38330001Y-80619344D01*
X68860001Y-80619344D01*
X68860001Y-81110658D01*
X69048019Y-81564572D01*
X69395430Y-81911983D01*
X69849344Y-82100001D01*
X70340658Y-82100001D01*
X70794572Y-81911983D01*
X71141983Y-81564572D01*
X71330001Y-81110658D01*
X71330001Y-80619344D01*
X71141983Y-80165430D01*
X70794572Y-79818019D01*
X70340658Y-79630001D01*
X69849344Y-79630001D01*
X69395430Y-79818019D01*
X69048019Y-80165430D01*
X68860001Y-80619344D01*
X38330001Y-80619344D01*
X38141983Y-80165430D01*
X37794572Y-79818019D01*
X37340658Y-79630001D01*
X36849344Y-79630001D01*
X36395430Y-79818019D01*
X36048019Y-80165430D01*
X35860001Y-80619344D01*
X31877000Y-80619344D01*
X31877000Y-62050656D01*
X41960001Y-62050656D01*
X41960001Y-66679346D01*
X43731324Y-70955699D01*
X47004303Y-74228678D01*
X51280656Y-76000001D01*
X55909346Y-76000001D01*
X60185699Y-74228678D01*
X63458678Y-70955699D01*
X65230001Y-66679346D01*
X65230001Y-62050656D01*
X63458678Y-57774303D01*
X60185699Y-54501324D01*
X55909346Y-52730001D01*
X51280656Y-52730001D01*
X47004303Y-54501324D01*
X43731324Y-57774303D01*
X41960001Y-62050656D01*
X31877000Y-62050656D01*
X31877000Y-47619344D01*
X35860001Y-47619344D01*
X35860001Y-48110658D01*
X36048019Y-48564572D01*
X36395430Y-48911983D01*
X36849344Y-49100001D01*
X37340658Y-49100001D01*
X37794572Y-48911983D01*
X38141983Y-48564572D01*
X38330001Y-48110658D01*
X38330001Y-47619344D01*
X38141983Y-47165430D01*
X37794572Y-46818019D01*
X37340658Y-46630001D01*
X36849344Y-46630001D01*
X36395430Y-46818019D01*
X36048019Y-47165430D01*
X35860001Y-47619344D01*
X31877000Y-47619344D01*
X31877000Y-39370000D01*
X34045908Y-39370000D01*
X34161161Y-39949418D01*
X34489375Y-40440625D01*
X34550000Y-40481134D01*
X34550001Y-42578795D01*
X34540995Y-42592273D01*
X34475060Y-42923750D01*
X34475060Y-43436250D01*
X34540995Y-43767727D01*
X34728761Y-44048739D01*
X35009773Y-44236505D01*
X35341250Y-44302440D01*
X35778750Y-44302440D01*
X36110227Y-44236505D01*
X36272531Y-44128057D01*
X36337802Y-44193327D01*
X36571191Y-44290000D01*
X36849250Y-44290000D01*
X37008000Y-44131250D01*
X37008000Y-43307000D01*
X37262000Y-43307000D01*
X37262000Y-44131250D01*
X37420750Y-44290000D01*
X37698809Y-44290000D01*
X37932198Y-44193327D01*
X38110827Y-44014699D01*
X38207500Y-43781310D01*
X38207500Y-43465750D01*
X38048750Y-43307000D01*
X37262000Y-43307000D01*
X37008000Y-43307000D01*
X36988000Y-43307000D01*
X36988000Y-43053000D01*
X37008000Y-43053000D01*
X37008000Y-42228750D01*
X37262000Y-42228750D01*
X37262000Y-43053000D01*
X38048750Y-43053000D01*
X38207500Y-42894250D01*
X38207500Y-42578690D01*
X38110827Y-42345301D01*
X37932198Y-42166673D01*
X37698809Y-42070000D01*
X37420750Y-42070000D01*
X37262000Y-42228750D01*
X37008000Y-42228750D01*
X36849250Y-42070000D01*
X36571191Y-42070000D01*
X36570000Y-42070493D01*
X36570000Y-40481133D01*
X36630625Y-40440625D01*
X36830000Y-40142239D01*
X37029375Y-40440625D01*
X37520582Y-40768839D01*
X37953744Y-40855000D01*
X38246256Y-40855000D01*
X38679418Y-40768839D01*
X39170625Y-40440625D01*
X39370000Y-40142239D01*
X39569375Y-40440625D01*
X40060582Y-40768839D01*
X40493744Y-40855000D01*
X40786256Y-40855000D01*
X41219418Y-40768839D01*
X41710625Y-40440625D01*
X41910000Y-40142239D01*
X42109375Y-40440625D01*
X42170001Y-40481134D01*
X42170000Y-44350529D01*
X42150214Y-44450000D01*
X42170000Y-44549471D01*
X42170000Y-44549475D01*
X42228601Y-44844081D01*
X42451831Y-45178169D01*
X42536163Y-45234518D01*
X46310485Y-49008841D01*
X46366832Y-49093170D01*
X46451161Y-49149517D01*
X46451163Y-49149519D01*
X46700918Y-49316400D01*
X46762116Y-49328573D01*
X46995525Y-49375001D01*
X46995529Y-49375001D01*
X47095001Y-49394787D01*
X47194473Y-49375001D01*
X52646314Y-49375001D01*
X52810461Y-49539148D01*
X53319507Y-49750001D01*
X53870495Y-49750001D01*
X54379541Y-49539148D01*
X54543688Y-49375001D01*
X62508028Y-49375001D01*
X62607499Y-49394787D01*
X62706970Y-49375001D01*
X62706975Y-49375001D01*
X63001581Y-49316400D01*
X63335668Y-49093170D01*
X63392017Y-49008838D01*
X64781511Y-47619344D01*
X68860001Y-47619344D01*
X68860001Y-48110658D01*
X69048019Y-48564572D01*
X69395430Y-48911983D01*
X69849344Y-49100001D01*
X70340658Y-49100001D01*
X70794572Y-48911983D01*
X71141983Y-48564572D01*
X71330001Y-48110658D01*
X71330001Y-47619344D01*
X71141983Y-47165430D01*
X70794572Y-46818019D01*
X70340658Y-46630001D01*
X69849344Y-46630001D01*
X69395430Y-46818019D01*
X69048019Y-47165430D01*
X68860001Y-47619344D01*
X64781511Y-47619344D01*
X68120060Y-44280796D01*
X68342727Y-44236505D01*
X68505031Y-44128057D01*
X68570302Y-44193327D01*
X68803691Y-44290000D01*
X69081750Y-44290000D01*
X69240500Y-44131250D01*
X69240500Y-43307000D01*
X69494500Y-43307000D01*
X69494500Y-44131250D01*
X69653250Y-44290000D01*
X69931309Y-44290000D01*
X70164698Y-44193327D01*
X70343327Y-44014699D01*
X70440000Y-43781310D01*
X70440000Y-43465750D01*
X70281250Y-43307000D01*
X69494500Y-43307000D01*
X69240500Y-43307000D01*
X69220500Y-43307000D01*
X69220500Y-43053000D01*
X69240500Y-43053000D01*
X69240500Y-42228750D01*
X69494500Y-42228750D01*
X69494500Y-43053000D01*
X70281250Y-43053000D01*
X70440000Y-42894250D01*
X70440000Y-42578690D01*
X70343327Y-42345301D01*
X70164698Y-42166673D01*
X69931309Y-42070000D01*
X69653250Y-42070000D01*
X69494500Y-42228750D01*
X69240500Y-42228750D01*
X69081750Y-42070000D01*
X68803691Y-42070000D01*
X68570302Y-42166673D01*
X68505031Y-42231943D01*
X68342727Y-42123495D01*
X68011250Y-42057560D01*
X67573750Y-42057560D01*
X67242273Y-42123495D01*
X66961261Y-42311261D01*
X66773495Y-42592273D01*
X66729204Y-42814940D01*
X62189144Y-47355001D01*
X54543688Y-47355001D01*
X54379541Y-47190854D01*
X54148131Y-47095001D01*
X54379541Y-46999148D01*
X54543688Y-46835001D01*
X57985530Y-46835001D01*
X58085001Y-46854787D01*
X58184472Y-46835001D01*
X58184477Y-46835001D01*
X58479083Y-46776400D01*
X58813170Y-46553170D01*
X58869519Y-46468838D01*
X61088839Y-44249518D01*
X61173170Y-44193170D01*
X61396400Y-43859083D01*
X61455001Y-43564477D01*
X61455001Y-43564473D01*
X61474787Y-43465002D01*
X61455001Y-43365531D01*
X61455001Y-41063358D01*
X62310482Y-41918840D01*
X62366829Y-42003169D01*
X62451158Y-42059516D01*
X62451160Y-42059518D01*
X62546909Y-42123495D01*
X62700916Y-42226399D01*
X62872560Y-42260541D01*
X62872560Y-42845000D01*
X62921843Y-43092765D01*
X63062191Y-43302809D01*
X63272235Y-43443157D01*
X63520000Y-43492440D01*
X63894993Y-43492440D01*
X63900918Y-43496399D01*
X64295000Y-43574787D01*
X64689081Y-43496399D01*
X64695006Y-43492440D01*
X65070000Y-43492440D01*
X65317765Y-43443157D01*
X65527809Y-43302809D01*
X65668157Y-43092765D01*
X65717440Y-42845000D01*
X65717440Y-42245000D01*
X65668157Y-41997235D01*
X65609868Y-41910000D01*
X65668157Y-41822765D01*
X65717440Y-41575000D01*
X65717440Y-41015000D01*
X66731181Y-41015000D01*
X66773495Y-41227727D01*
X66961261Y-41508739D01*
X67242273Y-41696505D01*
X67573750Y-41762440D01*
X68011250Y-41762440D01*
X68342727Y-41696505D01*
X68505031Y-41588057D01*
X68570302Y-41653327D01*
X68803691Y-41750000D01*
X69081750Y-41750000D01*
X69240500Y-41591250D01*
X69240500Y-40767000D01*
X69494500Y-40767000D01*
X69494500Y-41591250D01*
X69653250Y-41750000D01*
X69931309Y-41750000D01*
X70164698Y-41653327D01*
X70343327Y-41474699D01*
X70440000Y-41241310D01*
X70440000Y-40925750D01*
X70281250Y-40767000D01*
X69494500Y-40767000D01*
X69240500Y-40767000D01*
X69220500Y-40767000D01*
X69220500Y-40513000D01*
X69240500Y-40513000D01*
X69240500Y-39688750D01*
X69494500Y-39688750D01*
X69494500Y-40513000D01*
X70281250Y-40513000D01*
X70440000Y-40354250D01*
X70440000Y-40038690D01*
X70343327Y-39805301D01*
X70164698Y-39626673D01*
X69931309Y-39530000D01*
X69653250Y-39530000D01*
X69494500Y-39688750D01*
X69240500Y-39688750D01*
X69081750Y-39530000D01*
X68803691Y-39530000D01*
X68802500Y-39530493D01*
X68802500Y-39146634D01*
X68817273Y-39156505D01*
X69148750Y-39222440D01*
X69586250Y-39222440D01*
X69917727Y-39156505D01*
X69987327Y-39110000D01*
X70455000Y-39110000D01*
X70455000Y-39754895D01*
X70749586Y-40466090D01*
X71293910Y-41010414D01*
X72005105Y-41305000D01*
X72774895Y-41305000D01*
X73486090Y-41010414D01*
X74030414Y-40466090D01*
X74325000Y-39754895D01*
X74325000Y-38985105D01*
X74030414Y-38273910D01*
X73486090Y-37729586D01*
X72774895Y-37435000D01*
X72005105Y-37435000D01*
X71919015Y-37470660D01*
X71904518Y-37456163D01*
X71848169Y-37371831D01*
X71514082Y-37148601D01*
X71219476Y-37090000D01*
X71219471Y-37090000D01*
X71120000Y-37070214D01*
X71020529Y-37090000D01*
X69987327Y-37090000D01*
X69917727Y-37043495D01*
X69586250Y-36977560D01*
X69148750Y-36977560D01*
X68817273Y-37043495D01*
X68580000Y-37202036D01*
X68342727Y-37043495D01*
X68011250Y-36977560D01*
X67573750Y-36977560D01*
X67242273Y-37043495D01*
X66961261Y-37231261D01*
X66773495Y-37512273D01*
X66707560Y-37843750D01*
X66707560Y-38356250D01*
X66773495Y-38687727D01*
X66782501Y-38701205D01*
X66782501Y-38995000D01*
X65679250Y-38995000D01*
X65546250Y-38862000D01*
X64422000Y-38862000D01*
X64422000Y-38882000D01*
X64168000Y-38882000D01*
X64168000Y-38862000D01*
X63043750Y-38862000D01*
X62885000Y-39020750D01*
X62885000Y-39161310D01*
X62974768Y-39378028D01*
X62921843Y-39457235D01*
X62885964Y-39637611D01*
X62605011Y-39356658D01*
X62605011Y-38383122D01*
X62619816Y-38308690D01*
X62885000Y-38308690D01*
X62885000Y-38449250D01*
X63043750Y-38608000D01*
X64168000Y-38608000D01*
X64168000Y-37958750D01*
X64422000Y-37958750D01*
X64422000Y-38608000D01*
X65546250Y-38608000D01*
X65705000Y-38449250D01*
X65705000Y-38308690D01*
X65608327Y-38075301D01*
X65429698Y-37896673D01*
X65196309Y-37800000D01*
X64580750Y-37800000D01*
X64422000Y-37958750D01*
X64168000Y-37958750D01*
X64009250Y-37800000D01*
X63393691Y-37800000D01*
X63160302Y-37896673D01*
X62981673Y-38075301D01*
X62885000Y-38308690D01*
X62619816Y-38308690D01*
X62624797Y-38283651D01*
X62605011Y-38184180D01*
X62605011Y-38184176D01*
X62546410Y-37889570D01*
X62323180Y-37555483D01*
X62238848Y-37499134D01*
X60690866Y-35951152D01*
X60634517Y-35866820D01*
X60300430Y-35643590D01*
X60005824Y-35584989D01*
X60005819Y-35584989D01*
X59906348Y-35565203D01*
X59806877Y-35584989D01*
X40974481Y-35584989D01*
X40875010Y-35565203D01*
X40775539Y-35584989D01*
X40775535Y-35584989D01*
X40480929Y-35643590D01*
X40146842Y-35866820D01*
X40090493Y-35951152D01*
X38156645Y-37885000D01*
X37953744Y-37885000D01*
X37520582Y-37971161D01*
X37029375Y-38299375D01*
X36830000Y-38597761D01*
X36630625Y-38299375D01*
X36139418Y-37971161D01*
X35706256Y-37885000D01*
X35413744Y-37885000D01*
X34980582Y-37971161D01*
X34489375Y-38299375D01*
X34161161Y-38790582D01*
X34045908Y-39370000D01*
X31877000Y-39370000D01*
X31877000Y-29926029D01*
X34680000Y-29926029D01*
X34680000Y-31033971D01*
X35103991Y-32057576D01*
X35887424Y-32841009D01*
X36911029Y-33265000D01*
X38018971Y-33265000D01*
X39042576Y-32841009D01*
X39826009Y-32057576D01*
X40250000Y-31033971D01*
X40250000Y-29926029D01*
X67065000Y-29926029D01*
X67065000Y-31033971D01*
X67488991Y-32057576D01*
X68272424Y-32841009D01*
X69296029Y-33265000D01*
X70403971Y-33265000D01*
X71427576Y-32841009D01*
X72211009Y-32057576D01*
X72635000Y-31033971D01*
X72635000Y-29926029D01*
X72211009Y-28902424D01*
X71427576Y-28118991D01*
X70403971Y-27695000D01*
X69296029Y-27695000D01*
X68272424Y-28118991D01*
X67488991Y-28902424D01*
X67065000Y-29926029D01*
X40250000Y-29926029D01*
X39826009Y-28902424D01*
X39042576Y-28118991D01*
X38018971Y-27695000D01*
X36911029Y-27695000D01*
X35887424Y-28118991D01*
X35103991Y-28902424D01*
X34680000Y-29926029D01*
X31877000Y-29926029D01*
X31877000Y-25527000D01*
X75438000Y-25527000D01*
X75438000Y-95123000D01*
X75438000Y-95123000D01*
G37*
X75438000Y-95123000D02*
X31877000Y-95123000D01*
X31877000Y-88346029D01*
X34680000Y-88346029D01*
X34680000Y-89453971D01*
X35103991Y-90477576D01*
X35887424Y-91261009D01*
X36911029Y-91685000D01*
X38018971Y-91685000D01*
X39042576Y-91261009D01*
X39826009Y-90477576D01*
X40250000Y-89453971D01*
X40250000Y-88346029D01*
X67065000Y-88346029D01*
X67065000Y-89453971D01*
X67488991Y-90477576D01*
X68272424Y-91261009D01*
X69296029Y-91685000D01*
X70403971Y-91685000D01*
X71427576Y-91261009D01*
X72211009Y-90477576D01*
X72635000Y-89453971D01*
X72635000Y-88346029D01*
X72211009Y-87322424D01*
X71427576Y-86538991D01*
X70403971Y-86115000D01*
X69296029Y-86115000D01*
X68272424Y-86538991D01*
X67488991Y-87322424D01*
X67065000Y-88346029D01*
X40250000Y-88346029D01*
X39826009Y-87322424D01*
X39042576Y-86538991D01*
X38018971Y-86115000D01*
X36911029Y-86115000D01*
X35887424Y-86538991D01*
X35103991Y-87322424D01*
X34680000Y-88346029D01*
X31877000Y-88346029D01*
X31877000Y-80619344D01*
X35860001Y-80619344D01*
X35860001Y-81110658D01*
X36048019Y-81564572D01*
X36395430Y-81911983D01*
X36849344Y-82100001D01*
X37340658Y-82100001D01*
X37794572Y-81911983D01*
X38141983Y-81564572D01*
X38330001Y-81110658D01*
X38330001Y-80619344D01*
X68860001Y-80619344D01*
X68860001Y-81110658D01*
X69048019Y-81564572D01*
X69395430Y-81911983D01*
X69849344Y-82100001D01*
X70340658Y-82100001D01*
X70794572Y-81911983D01*
X71141983Y-81564572D01*
X71330001Y-81110658D01*
X71330001Y-80619344D01*
X71141983Y-80165430D01*
X70794572Y-79818019D01*
X70340658Y-79630001D01*
X69849344Y-79630001D01*
X69395430Y-79818019D01*
X69048019Y-80165430D01*
X68860001Y-80619344D01*
X38330001Y-80619344D01*
X38141983Y-80165430D01*
X37794572Y-79818019D01*
X37340658Y-79630001D01*
X36849344Y-79630001D01*
X36395430Y-79818019D01*
X36048019Y-80165430D01*
X35860001Y-80619344D01*
X31877000Y-80619344D01*
X31877000Y-62050656D01*
X41960001Y-62050656D01*
X41960001Y-66679346D01*
X43731324Y-70955699D01*
X47004303Y-74228678D01*
X51280656Y-76000001D01*
X55909346Y-76000001D01*
X60185699Y-74228678D01*
X63458678Y-70955699D01*
X65230001Y-66679346D01*
X65230001Y-62050656D01*
X63458678Y-57774303D01*
X60185699Y-54501324D01*
X55909346Y-52730001D01*
X51280656Y-52730001D01*
X47004303Y-54501324D01*
X43731324Y-57774303D01*
X41960001Y-62050656D01*
X31877000Y-62050656D01*
X31877000Y-47619344D01*
X35860001Y-47619344D01*
X35860001Y-48110658D01*
X36048019Y-48564572D01*
X36395430Y-48911983D01*
X36849344Y-49100001D01*
X37340658Y-49100001D01*
X37794572Y-48911983D01*
X38141983Y-48564572D01*
X38330001Y-48110658D01*
X38330001Y-47619344D01*
X38141983Y-47165430D01*
X37794572Y-46818019D01*
X37340658Y-46630001D01*
X36849344Y-46630001D01*
X36395430Y-46818019D01*
X36048019Y-47165430D01*
X35860001Y-47619344D01*
X31877000Y-47619344D01*
X31877000Y-39370000D01*
X34045908Y-39370000D01*
X34161161Y-39949418D01*
X34489375Y-40440625D01*
X34550000Y-40481134D01*
X34550001Y-42578795D01*
X34540995Y-42592273D01*
X34475060Y-42923750D01*
X34475060Y-43436250D01*
X34540995Y-43767727D01*
X34728761Y-44048739D01*
X35009773Y-44236505D01*
X35341250Y-44302440D01*
X35778750Y-44302440D01*
X36110227Y-44236505D01*
X36272531Y-44128057D01*
X36337802Y-44193327D01*
X36571191Y-44290000D01*
X36849250Y-44290000D01*
X37008000Y-44131250D01*
X37008000Y-43307000D01*
X37262000Y-43307000D01*
X37262000Y-44131250D01*
X37420750Y-44290000D01*
X37698809Y-44290000D01*
X37932198Y-44193327D01*
X38110827Y-44014699D01*
X38207500Y-43781310D01*
X38207500Y-43465750D01*
X38048750Y-43307000D01*
X37262000Y-43307000D01*
X37008000Y-43307000D01*
X36988000Y-43307000D01*
X36988000Y-43053000D01*
X37008000Y-43053000D01*
X37008000Y-42228750D01*
X37262000Y-42228750D01*
X37262000Y-43053000D01*
X38048750Y-43053000D01*
X38207500Y-42894250D01*
X38207500Y-42578690D01*
X38110827Y-42345301D01*
X37932198Y-42166673D01*
X37698809Y-42070000D01*
X37420750Y-42070000D01*
X37262000Y-42228750D01*
X37008000Y-42228750D01*
X36849250Y-42070000D01*
X36571191Y-42070000D01*
X36570000Y-42070493D01*
X36570000Y-40481133D01*
X36630625Y-40440625D01*
X36830000Y-40142239D01*
X37029375Y-40440625D01*
X37520582Y-40768839D01*
X37953744Y-40855000D01*
X38246256Y-40855000D01*
X38679418Y-40768839D01*
X39170625Y-40440625D01*
X39370000Y-40142239D01*
X39569375Y-40440625D01*
X40060582Y-40768839D01*
X40493744Y-40855000D01*
X40786256Y-40855000D01*
X41219418Y-40768839D01*
X41710625Y-40440625D01*
X41910000Y-40142239D01*
X42109375Y-40440625D01*
X42170001Y-40481134D01*
X42170000Y-44350529D01*
X42150214Y-44450000D01*
X42170000Y-44549471D01*
X42170000Y-44549475D01*
X42228601Y-44844081D01*
X42451831Y-45178169D01*
X42536163Y-45234518D01*
X46310485Y-49008841D01*
X46366832Y-49093170D01*
X46451161Y-49149517D01*
X46451163Y-49149519D01*
X46700918Y-49316400D01*
X46762116Y-49328573D01*
X46995525Y-49375001D01*
X46995529Y-49375001D01*
X47095001Y-49394787D01*
X47194473Y-49375001D01*
X52646314Y-49375001D01*
X52810461Y-49539148D01*
X53319507Y-49750001D01*
X53870495Y-49750001D01*
X54379541Y-49539148D01*
X54543688Y-49375001D01*
X62508028Y-49375001D01*
X62607499Y-49394787D01*
X62706970Y-49375001D01*
X62706975Y-49375001D01*
X63001581Y-49316400D01*
X63335668Y-49093170D01*
X63392017Y-49008838D01*
X64781511Y-47619344D01*
X68860001Y-47619344D01*
X68860001Y-48110658D01*
X69048019Y-48564572D01*
X69395430Y-48911983D01*
X69849344Y-49100001D01*
X70340658Y-49100001D01*
X70794572Y-48911983D01*
X71141983Y-48564572D01*
X71330001Y-48110658D01*
X71330001Y-47619344D01*
X71141983Y-47165430D01*
X70794572Y-46818019D01*
X70340658Y-46630001D01*
X69849344Y-46630001D01*
X69395430Y-46818019D01*
X69048019Y-47165430D01*
X68860001Y-47619344D01*
X64781511Y-47619344D01*
X68120060Y-44280796D01*
X68342727Y-44236505D01*
X68505031Y-44128057D01*
X68570302Y-44193327D01*
X68803691Y-44290000D01*
X69081750Y-44290000D01*
X69240500Y-44131250D01*
X69240500Y-43307000D01*
X69494500Y-43307000D01*
X69494500Y-44131250D01*
X69653250Y-44290000D01*
X69931309Y-44290000D01*
X70164698Y-44193327D01*
X70343327Y-44014699D01*
X70440000Y-43781310D01*
X70440000Y-43465750D01*
X70281250Y-43307000D01*
X69494500Y-43307000D01*
X69240500Y-43307000D01*
X69220500Y-43307000D01*
X69220500Y-43053000D01*
X69240500Y-43053000D01*
X69240500Y-42228750D01*
X69494500Y-42228750D01*
X69494500Y-43053000D01*
X70281250Y-43053000D01*
X70440000Y-42894250D01*
X70440000Y-42578690D01*
X70343327Y-42345301D01*
X70164698Y-42166673D01*
X69931309Y-42070000D01*
X69653250Y-42070000D01*
X69494500Y-42228750D01*
X69240500Y-42228750D01*
X69081750Y-42070000D01*
X68803691Y-42070000D01*
X68570302Y-42166673D01*
X68505031Y-42231943D01*
X68342727Y-42123495D01*
X68011250Y-42057560D01*
X67573750Y-42057560D01*
X67242273Y-42123495D01*
X66961261Y-42311261D01*
X66773495Y-42592273D01*
X66729204Y-42814940D01*
X62189144Y-47355001D01*
X54543688Y-47355001D01*
X54379541Y-47190854D01*
X54148131Y-47095001D01*
X54379541Y-46999148D01*
X54543688Y-46835001D01*
X57985530Y-46835001D01*
X58085001Y-46854787D01*
X58184472Y-46835001D01*
X58184477Y-46835001D01*
X58479083Y-46776400D01*
X58813170Y-46553170D01*
X58869519Y-46468838D01*
X61088839Y-44249518D01*
X61173170Y-44193170D01*
X61396400Y-43859083D01*
X61455001Y-43564477D01*
X61455001Y-43564473D01*
X61474787Y-43465002D01*
X61455001Y-43365531D01*
X61455001Y-41063358D01*
X62310482Y-41918840D01*
X62366829Y-42003169D01*
X62451158Y-42059516D01*
X62451160Y-42059518D01*
X62546909Y-42123495D01*
X62700916Y-42226399D01*
X62872560Y-42260541D01*
X62872560Y-42845000D01*
X62921843Y-43092765D01*
X63062191Y-43302809D01*
X63272235Y-43443157D01*
X63520000Y-43492440D01*
X63894993Y-43492440D01*
X63900918Y-43496399D01*
X64295000Y-43574787D01*
X64689081Y-43496399D01*
X64695006Y-43492440D01*
X65070000Y-43492440D01*
X65317765Y-43443157D01*
X65527809Y-43302809D01*
X65668157Y-43092765D01*
X65717440Y-42845000D01*
X65717440Y-42245000D01*
X65668157Y-41997235D01*
X65609868Y-41910000D01*
X65668157Y-41822765D01*
X65717440Y-41575000D01*
X65717440Y-41015000D01*
X66731181Y-41015000D01*
X66773495Y-41227727D01*
X66961261Y-41508739D01*
X67242273Y-41696505D01*
X67573750Y-41762440D01*
X68011250Y-41762440D01*
X68342727Y-41696505D01*
X68505031Y-41588057D01*
X68570302Y-41653327D01*
X68803691Y-41750000D01*
X69081750Y-41750000D01*
X69240500Y-41591250D01*
X69240500Y-40767000D01*
X69494500Y-40767000D01*
X69494500Y-41591250D01*
X69653250Y-41750000D01*
X69931309Y-41750000D01*
X70164698Y-41653327D01*
X70343327Y-41474699D01*
X70440000Y-41241310D01*
X70440000Y-40925750D01*
X70281250Y-40767000D01*
X69494500Y-40767000D01*
X69240500Y-40767000D01*
X69220500Y-40767000D01*
X69220500Y-40513000D01*
X69240500Y-40513000D01*
X69240500Y-39688750D01*
X69494500Y-39688750D01*
X69494500Y-40513000D01*
X70281250Y-40513000D01*
X70440000Y-40354250D01*
X70440000Y-40038690D01*
X70343327Y-39805301D01*
X70164698Y-39626673D01*
X69931309Y-39530000D01*
X69653250Y-39530000D01*
X69494500Y-39688750D01*
X69240500Y-39688750D01*
X69081750Y-39530000D01*
X68803691Y-39530000D01*
X68802500Y-39530493D01*
X68802500Y-39146634D01*
X68817273Y-39156505D01*
X69148750Y-39222440D01*
X69586250Y-39222440D01*
X69917727Y-39156505D01*
X69987327Y-39110000D01*
X70455000Y-39110000D01*
X70455000Y-39754895D01*
X70749586Y-40466090D01*
X71293910Y-41010414D01*
X72005105Y-41305000D01*
X72774895Y-41305000D01*
X73486090Y-41010414D01*
X74030414Y-40466090D01*
X74325000Y-39754895D01*
X74325000Y-38985105D01*
X74030414Y-38273910D01*
X73486090Y-37729586D01*
X72774895Y-37435000D01*
X72005105Y-37435000D01*
X71919015Y-37470660D01*
X71904518Y-37456163D01*
X71848169Y-37371831D01*
X71514082Y-37148601D01*
X71219476Y-37090000D01*
X71219471Y-37090000D01*
X71120000Y-37070214D01*
X71020529Y-37090000D01*
X69987327Y-37090000D01*
X69917727Y-37043495D01*
X69586250Y-36977560D01*
X69148750Y-36977560D01*
X68817273Y-37043495D01*
X68580000Y-37202036D01*
X68342727Y-37043495D01*
X68011250Y-36977560D01*
X67573750Y-36977560D01*
X67242273Y-37043495D01*
X66961261Y-37231261D01*
X66773495Y-37512273D01*
X66707560Y-37843750D01*
X66707560Y-38356250D01*
X66773495Y-38687727D01*
X66782501Y-38701205D01*
X66782501Y-38995000D01*
X65679250Y-38995000D01*
X65546250Y-38862000D01*
X64422000Y-38862000D01*
X64422000Y-38882000D01*
X64168000Y-38882000D01*
X64168000Y-38862000D01*
X63043750Y-38862000D01*
X62885000Y-39020750D01*
X62885000Y-39161310D01*
X62974768Y-39378028D01*
X62921843Y-39457235D01*
X62885964Y-39637611D01*
X62605011Y-39356658D01*
X62605011Y-38383122D01*
X62619816Y-38308690D01*
X62885000Y-38308690D01*
X62885000Y-38449250D01*
X63043750Y-38608000D01*
X64168000Y-38608000D01*
X64168000Y-37958750D01*
X64422000Y-37958750D01*
X64422000Y-38608000D01*
X65546250Y-38608000D01*
X65705000Y-38449250D01*
X65705000Y-38308690D01*
X65608327Y-38075301D01*
X65429698Y-37896673D01*
X65196309Y-37800000D01*
X64580750Y-37800000D01*
X64422000Y-37958750D01*
X64168000Y-37958750D01*
X64009250Y-37800000D01*
X63393691Y-37800000D01*
X63160302Y-37896673D01*
X62981673Y-38075301D01*
X62885000Y-38308690D01*
X62619816Y-38308690D01*
X62624797Y-38283651D01*
X62605011Y-38184180D01*
X62605011Y-38184176D01*
X62546410Y-37889570D01*
X62323180Y-37555483D01*
X62238848Y-37499134D01*
X60690866Y-35951152D01*
X60634517Y-35866820D01*
X60300430Y-35643590D01*
X60005824Y-35584989D01*
X60005819Y-35584989D01*
X59906348Y-35565203D01*
X59806877Y-35584989D01*
X40974481Y-35584989D01*
X40875010Y-35565203D01*
X40775539Y-35584989D01*
X40775535Y-35584989D01*
X40480929Y-35643590D01*
X40146842Y-35866820D01*
X40090493Y-35951152D01*
X38156645Y-37885000D01*
X37953744Y-37885000D01*
X37520582Y-37971161D01*
X37029375Y-38299375D01*
X36830000Y-38597761D01*
X36630625Y-38299375D01*
X36139418Y-37971161D01*
X35706256Y-37885000D01*
X35413744Y-37885000D01*
X34980582Y-37971161D01*
X34489375Y-38299375D01*
X34161161Y-38790582D01*
X34045908Y-39370000D01*
X31877000Y-39370000D01*
X31877000Y-29926029D01*
X34680000Y-29926029D01*
X34680000Y-31033971D01*
X35103991Y-32057576D01*
X35887424Y-32841009D01*
X36911029Y-33265000D01*
X38018971Y-33265000D01*
X39042576Y-32841009D01*
X39826009Y-32057576D01*
X40250000Y-31033971D01*
X40250000Y-29926029D01*
X67065000Y-29926029D01*
X67065000Y-31033971D01*
X67488991Y-32057576D01*
X68272424Y-32841009D01*
X69296029Y-33265000D01*
X70403971Y-33265000D01*
X71427576Y-32841009D01*
X72211009Y-32057576D01*
X72635000Y-31033971D01*
X72635000Y-29926029D01*
X72211009Y-28902424D01*
X71427576Y-28118991D01*
X70403971Y-27695000D01*
X69296029Y-27695000D01*
X68272424Y-28118991D01*
X67488991Y-28902424D01*
X67065000Y-29926029D01*
X40250000Y-29926029D01*
X39826009Y-28902424D01*
X39042576Y-28118991D01*
X38018971Y-27695000D01*
X36911029Y-27695000D01*
X35887424Y-28118991D01*
X35103991Y-28902424D01*
X34680000Y-29926029D01*
X31877000Y-29926029D01*
X31877000Y-25527000D01*
X75438000Y-25527000D01*
X75438000Y-95123000D01*
G36*
X53664208Y-39347561D02*
X52845001Y-39347561D01*
X52597236Y-39396844D01*
X52387192Y-39537192D01*
X52246844Y-39747236D01*
X52197561Y-39995001D01*
X52197561Y-41495001D01*
X52246844Y-41742766D01*
X52387192Y-41952810D01*
X52597236Y-42093158D01*
X52845001Y-42142441D01*
X52851354Y-42142441D01*
X52803089Y-42313484D01*
X53595001Y-43105396D01*
X54386913Y-42313484D01*
X54338648Y-42142441D01*
X54345001Y-42142441D01*
X54527737Y-42106093D01*
X55610484Y-43188840D01*
X55666831Y-43273169D01*
X55751160Y-43329516D01*
X55751162Y-43329518D01*
X55886899Y-43420214D01*
X56000918Y-43496399D01*
X56295524Y-43555000D01*
X56295529Y-43555000D01*
X56395000Y-43574786D01*
X56494471Y-43555000D01*
X58926647Y-43555000D01*
X57666646Y-44815001D01*
X54543688Y-44815001D01*
X54379541Y-44650854D01*
X54164071Y-44561604D01*
X54318924Y-44497461D01*
X54386913Y-44256518D01*
X53595001Y-43464606D01*
X52803089Y-44256518D01*
X52871078Y-44497461D01*
X53037659Y-44556746D01*
X52810461Y-44650854D01*
X52646314Y-44815001D01*
X49570856Y-44815001D01*
X47836027Y-43080172D01*
X52197800Y-43080172D01*
X52225771Y-43630449D01*
X52382541Y-44008924D01*
X52623484Y-44076913D01*
X53415396Y-43285001D01*
X53774606Y-43285001D01*
X54566518Y-44076913D01*
X54807461Y-44008924D01*
X54992202Y-43489830D01*
X54964231Y-42939553D01*
X54807461Y-42561078D01*
X54566518Y-42493089D01*
X53774606Y-43285001D01*
X53415396Y-43285001D01*
X52623484Y-42493089D01*
X52382541Y-42561078D01*
X52197800Y-43080172D01*
X47836027Y-43080172D01*
X47570797Y-42814942D01*
X47526505Y-42592273D01*
X47338739Y-42311261D01*
X47057727Y-42123495D01*
X46726250Y-42057560D01*
X46288750Y-42057560D01*
X45957273Y-42123495D01*
X45794969Y-42231943D01*
X45729698Y-42166673D01*
X45496309Y-42070000D01*
X45218250Y-42070000D01*
X45059500Y-42228750D01*
X45059500Y-43053000D01*
X45079500Y-43053000D01*
X45079500Y-43307000D01*
X45059500Y-43307000D01*
X45059500Y-44131250D01*
X45218250Y-44290000D01*
X45496309Y-44290000D01*
X45729698Y-44193327D01*
X45794969Y-44128057D01*
X45957273Y-44236505D01*
X46179942Y-44280797D01*
X48367983Y-46468838D01*
X48424332Y-46553170D01*
X48758419Y-46776400D01*
X49053025Y-46835001D01*
X49053029Y-46835001D01*
X49152500Y-46854787D01*
X49251971Y-46835001D01*
X52646314Y-46835001D01*
X52810461Y-46999148D01*
X53041871Y-47095001D01*
X52810461Y-47190854D01*
X52646314Y-47355001D01*
X47513357Y-47355001D01*
X44448355Y-44290000D01*
X44646750Y-44290000D01*
X44805500Y-44131250D01*
X44805500Y-43307000D01*
X44785500Y-43307000D01*
X44785500Y-43053000D01*
X44805500Y-43053000D01*
X44805500Y-42228750D01*
X44646750Y-42070000D01*
X44368691Y-42070000D01*
X44190000Y-42144016D01*
X44190000Y-40481133D01*
X44250625Y-40440625D01*
X44265096Y-40418967D01*
X44331673Y-40579698D01*
X44510301Y-40758327D01*
X44743690Y-40855000D01*
X45434250Y-40855000D01*
X45593000Y-40696250D01*
X45593000Y-39497000D01*
X45847000Y-39497000D01*
X45847000Y-40696250D01*
X46005750Y-40855000D01*
X46696310Y-40855000D01*
X46929699Y-40758327D01*
X47108327Y-40579698D01*
X47205000Y-40346309D01*
X47205000Y-39655750D01*
X47046250Y-39497000D01*
X45847000Y-39497000D01*
X45593000Y-39497000D01*
X45573000Y-39497000D01*
X45573000Y-39243000D01*
X45593000Y-39243000D01*
X45593000Y-39223000D01*
X45847000Y-39223000D01*
X45847000Y-39243000D01*
X47046250Y-39243000D01*
X47205000Y-39084250D01*
X47205000Y-38754999D01*
X53071646Y-38754999D01*
X53664208Y-39347561D01*
X53664208Y-39347561D01*
G37*
X53664208Y-39347561D02*
X52845001Y-39347561D01*
X52597236Y-39396844D01*
X52387192Y-39537192D01*
X52246844Y-39747236D01*
X52197561Y-39995001D01*
X52197561Y-41495001D01*
X52246844Y-41742766D01*
X52387192Y-41952810D01*
X52597236Y-42093158D01*
X52845001Y-42142441D01*
X52851354Y-42142441D01*
X52803089Y-42313484D01*
X53595001Y-43105396D01*
X54386913Y-42313484D01*
X54338648Y-42142441D01*
X54345001Y-42142441D01*
X54527737Y-42106093D01*
X55610484Y-43188840D01*
X55666831Y-43273169D01*
X55751160Y-43329516D01*
X55751162Y-43329518D01*
X55886899Y-43420214D01*
X56000918Y-43496399D01*
X56295524Y-43555000D01*
X56295529Y-43555000D01*
X56395000Y-43574786D01*
X56494471Y-43555000D01*
X58926647Y-43555000D01*
X57666646Y-44815001D01*
X54543688Y-44815001D01*
X54379541Y-44650854D01*
X54164071Y-44561604D01*
X54318924Y-44497461D01*
X54386913Y-44256518D01*
X53595001Y-43464606D01*
X52803089Y-44256518D01*
X52871078Y-44497461D01*
X53037659Y-44556746D01*
X52810461Y-44650854D01*
X52646314Y-44815001D01*
X49570856Y-44815001D01*
X47836027Y-43080172D01*
X52197800Y-43080172D01*
X52225771Y-43630449D01*
X52382541Y-44008924D01*
X52623484Y-44076913D01*
X53415396Y-43285001D01*
X53774606Y-43285001D01*
X54566518Y-44076913D01*
X54807461Y-44008924D01*
X54992202Y-43489830D01*
X54964231Y-42939553D01*
X54807461Y-42561078D01*
X54566518Y-42493089D01*
X53774606Y-43285001D01*
X53415396Y-43285001D01*
X52623484Y-42493089D01*
X52382541Y-42561078D01*
X52197800Y-43080172D01*
X47836027Y-43080172D01*
X47570797Y-42814942D01*
X47526505Y-42592273D01*
X47338739Y-42311261D01*
X47057727Y-42123495D01*
X46726250Y-42057560D01*
X46288750Y-42057560D01*
X45957273Y-42123495D01*
X45794969Y-42231943D01*
X45729698Y-42166673D01*
X45496309Y-42070000D01*
X45218250Y-42070000D01*
X45059500Y-42228750D01*
X45059500Y-43053000D01*
X45079500Y-43053000D01*
X45079500Y-43307000D01*
X45059500Y-43307000D01*
X45059500Y-44131250D01*
X45218250Y-44290000D01*
X45496309Y-44290000D01*
X45729698Y-44193327D01*
X45794969Y-44128057D01*
X45957273Y-44236505D01*
X46179942Y-44280797D01*
X48367983Y-46468838D01*
X48424332Y-46553170D01*
X48758419Y-46776400D01*
X49053025Y-46835001D01*
X49053029Y-46835001D01*
X49152500Y-46854787D01*
X49251971Y-46835001D01*
X52646314Y-46835001D01*
X52810461Y-46999148D01*
X53041871Y-47095001D01*
X52810461Y-47190854D01*
X52646314Y-47355001D01*
X47513357Y-47355001D01*
X44448355Y-44290000D01*
X44646750Y-44290000D01*
X44805500Y-44131250D01*
X44805500Y-43307000D01*
X44785500Y-43307000D01*
X44785500Y-43053000D01*
X44805500Y-43053000D01*
X44805500Y-42228750D01*
X44646750Y-42070000D01*
X44368691Y-42070000D01*
X44190000Y-42144016D01*
X44190000Y-40481133D01*
X44250625Y-40440625D01*
X44265096Y-40418967D01*
X44331673Y-40579698D01*
X44510301Y-40758327D01*
X44743690Y-40855000D01*
X45434250Y-40855000D01*
X45593000Y-40696250D01*
X45593000Y-39497000D01*
X45847000Y-39497000D01*
X45847000Y-40696250D01*
X46005750Y-40855000D01*
X46696310Y-40855000D01*
X46929699Y-40758327D01*
X47108327Y-40579698D01*
X47205000Y-40346309D01*
X47205000Y-39655750D01*
X47046250Y-39497000D01*
X45847000Y-39497000D01*
X45593000Y-39497000D01*
X45573000Y-39497000D01*
X45573000Y-39243000D01*
X45593000Y-39243000D01*
X45593000Y-39223000D01*
X45847000Y-39223000D01*
X45847000Y-39243000D01*
X47046250Y-39243000D01*
X47205000Y-39084250D01*
X47205000Y-38754999D01*
X53071646Y-38754999D01*
X53664208Y-39347561D01*
G04 #@! TD*
M02*
