G04 #@! TF.GenerationSoftware,KiCad,Pcbnew,(5.0.2)-1*
G04 #@! TF.CreationDate,2019-05-20T19:03:50+02:00*
G04 #@! TF.ProjectId,Carte commutation,43617274-6520-4636-9f6d-6d7574617469,rev?*
G04 #@! TF.SameCoordinates,Original*
G04 #@! TF.FileFunction,Paste,Top*
G04 #@! TF.FilePolarity,Positive*
%FSLAX46Y46*%
G04 Gerber Fmt 4.6, Leading zero omitted, Abs format (unit mm)*
G04 Created by KiCad (PCBNEW (5.0.2)-1) date 20/05/2019 19:03:50*
%MOMM*%
%LPD*%
G01*
G04 APERTURE LIST*
%ADD10C,0.100000*%
%ADD11C,1.150000*%
%ADD12R,4.600000X1.100000*%
%ADD13R,4.550000X5.250000*%
G04 APERTURE END LIST*
D10*
G04 #@! TO.C,C1*
G36*
X35679721Y-69251314D02*
X35703989Y-69254914D01*
X35727788Y-69260875D01*
X35750887Y-69269140D01*
X35773066Y-69279630D01*
X35794109Y-69292242D01*
X35813815Y-69306857D01*
X35831993Y-69323333D01*
X35848469Y-69341511D01*
X35863084Y-69361217D01*
X35875696Y-69382260D01*
X35886186Y-69404439D01*
X35894451Y-69427538D01*
X35900412Y-69451337D01*
X35904012Y-69475605D01*
X35905216Y-69500109D01*
X35905216Y-70400111D01*
X35904012Y-70424615D01*
X35900412Y-70448883D01*
X35894451Y-70472682D01*
X35886186Y-70495781D01*
X35875696Y-70517960D01*
X35863084Y-70539003D01*
X35848469Y-70558709D01*
X35831993Y-70576887D01*
X35813815Y-70593363D01*
X35794109Y-70607978D01*
X35773066Y-70620590D01*
X35750887Y-70631080D01*
X35727788Y-70639345D01*
X35703989Y-70645306D01*
X35679721Y-70648906D01*
X35655217Y-70650110D01*
X35005215Y-70650110D01*
X34980711Y-70648906D01*
X34956443Y-70645306D01*
X34932644Y-70639345D01*
X34909545Y-70631080D01*
X34887366Y-70620590D01*
X34866323Y-70607978D01*
X34846617Y-70593363D01*
X34828439Y-70576887D01*
X34811963Y-70558709D01*
X34797348Y-70539003D01*
X34784736Y-70517960D01*
X34774246Y-70495781D01*
X34765981Y-70472682D01*
X34760020Y-70448883D01*
X34756420Y-70424615D01*
X34755216Y-70400111D01*
X34755216Y-69500109D01*
X34756420Y-69475605D01*
X34760020Y-69451337D01*
X34765981Y-69427538D01*
X34774246Y-69404439D01*
X34784736Y-69382260D01*
X34797348Y-69361217D01*
X34811963Y-69341511D01*
X34828439Y-69323333D01*
X34846617Y-69306857D01*
X34866323Y-69292242D01*
X34887366Y-69279630D01*
X34909545Y-69269140D01*
X34932644Y-69260875D01*
X34956443Y-69254914D01*
X34980711Y-69251314D01*
X35005215Y-69250110D01*
X35655217Y-69250110D01*
X35679721Y-69251314D01*
X35679721Y-69251314D01*
G37*
D11*
X35330216Y-69950110D03*
D10*
G36*
X33629721Y-69251314D02*
X33653989Y-69254914D01*
X33677788Y-69260875D01*
X33700887Y-69269140D01*
X33723066Y-69279630D01*
X33744109Y-69292242D01*
X33763815Y-69306857D01*
X33781993Y-69323333D01*
X33798469Y-69341511D01*
X33813084Y-69361217D01*
X33825696Y-69382260D01*
X33836186Y-69404439D01*
X33844451Y-69427538D01*
X33850412Y-69451337D01*
X33854012Y-69475605D01*
X33855216Y-69500109D01*
X33855216Y-70400111D01*
X33854012Y-70424615D01*
X33850412Y-70448883D01*
X33844451Y-70472682D01*
X33836186Y-70495781D01*
X33825696Y-70517960D01*
X33813084Y-70539003D01*
X33798469Y-70558709D01*
X33781993Y-70576887D01*
X33763815Y-70593363D01*
X33744109Y-70607978D01*
X33723066Y-70620590D01*
X33700887Y-70631080D01*
X33677788Y-70639345D01*
X33653989Y-70645306D01*
X33629721Y-70648906D01*
X33605217Y-70650110D01*
X32955215Y-70650110D01*
X32930711Y-70648906D01*
X32906443Y-70645306D01*
X32882644Y-70639345D01*
X32859545Y-70631080D01*
X32837366Y-70620590D01*
X32816323Y-70607978D01*
X32796617Y-70593363D01*
X32778439Y-70576887D01*
X32761963Y-70558709D01*
X32747348Y-70539003D01*
X32734736Y-70517960D01*
X32724246Y-70495781D01*
X32715981Y-70472682D01*
X32710020Y-70448883D01*
X32706420Y-70424615D01*
X32705216Y-70400111D01*
X32705216Y-69500109D01*
X32706420Y-69475605D01*
X32710020Y-69451337D01*
X32715981Y-69427538D01*
X32724246Y-69404439D01*
X32734736Y-69382260D01*
X32747348Y-69361217D01*
X32761963Y-69341511D01*
X32778439Y-69323333D01*
X32796617Y-69306857D01*
X32816323Y-69292242D01*
X32837366Y-69279630D01*
X32859545Y-69269140D01*
X32882644Y-69260875D01*
X32906443Y-69254914D01*
X32930711Y-69251314D01*
X32955215Y-69250110D01*
X33605217Y-69250110D01*
X33629721Y-69251314D01*
X33629721Y-69251314D01*
G37*
D11*
X33280216Y-69950110D03*
G04 #@! TD*
D10*
G04 #@! TO.C,C2*
G36*
X33629721Y-72251314D02*
X33653989Y-72254914D01*
X33677788Y-72260875D01*
X33700887Y-72269140D01*
X33723066Y-72279630D01*
X33744109Y-72292242D01*
X33763815Y-72306857D01*
X33781993Y-72323333D01*
X33798469Y-72341511D01*
X33813084Y-72361217D01*
X33825696Y-72382260D01*
X33836186Y-72404439D01*
X33844451Y-72427538D01*
X33850412Y-72451337D01*
X33854012Y-72475605D01*
X33855216Y-72500109D01*
X33855216Y-73400111D01*
X33854012Y-73424615D01*
X33850412Y-73448883D01*
X33844451Y-73472682D01*
X33836186Y-73495781D01*
X33825696Y-73517960D01*
X33813084Y-73539003D01*
X33798469Y-73558709D01*
X33781993Y-73576887D01*
X33763815Y-73593363D01*
X33744109Y-73607978D01*
X33723066Y-73620590D01*
X33700887Y-73631080D01*
X33677788Y-73639345D01*
X33653989Y-73645306D01*
X33629721Y-73648906D01*
X33605217Y-73650110D01*
X32955215Y-73650110D01*
X32930711Y-73648906D01*
X32906443Y-73645306D01*
X32882644Y-73639345D01*
X32859545Y-73631080D01*
X32837366Y-73620590D01*
X32816323Y-73607978D01*
X32796617Y-73593363D01*
X32778439Y-73576887D01*
X32761963Y-73558709D01*
X32747348Y-73539003D01*
X32734736Y-73517960D01*
X32724246Y-73495781D01*
X32715981Y-73472682D01*
X32710020Y-73448883D01*
X32706420Y-73424615D01*
X32705216Y-73400111D01*
X32705216Y-72500109D01*
X32706420Y-72475605D01*
X32710020Y-72451337D01*
X32715981Y-72427538D01*
X32724246Y-72404439D01*
X32734736Y-72382260D01*
X32747348Y-72361217D01*
X32761963Y-72341511D01*
X32778439Y-72323333D01*
X32796617Y-72306857D01*
X32816323Y-72292242D01*
X32837366Y-72279630D01*
X32859545Y-72269140D01*
X32882644Y-72260875D01*
X32906443Y-72254914D01*
X32930711Y-72251314D01*
X32955215Y-72250110D01*
X33605217Y-72250110D01*
X33629721Y-72251314D01*
X33629721Y-72251314D01*
G37*
D11*
X33280216Y-72950110D03*
D10*
G36*
X35679721Y-72251314D02*
X35703989Y-72254914D01*
X35727788Y-72260875D01*
X35750887Y-72269140D01*
X35773066Y-72279630D01*
X35794109Y-72292242D01*
X35813815Y-72306857D01*
X35831993Y-72323333D01*
X35848469Y-72341511D01*
X35863084Y-72361217D01*
X35875696Y-72382260D01*
X35886186Y-72404439D01*
X35894451Y-72427538D01*
X35900412Y-72451337D01*
X35904012Y-72475605D01*
X35905216Y-72500109D01*
X35905216Y-73400111D01*
X35904012Y-73424615D01*
X35900412Y-73448883D01*
X35894451Y-73472682D01*
X35886186Y-73495781D01*
X35875696Y-73517960D01*
X35863084Y-73539003D01*
X35848469Y-73558709D01*
X35831993Y-73576887D01*
X35813815Y-73593363D01*
X35794109Y-73607978D01*
X35773066Y-73620590D01*
X35750887Y-73631080D01*
X35727788Y-73639345D01*
X35703989Y-73645306D01*
X35679721Y-73648906D01*
X35655217Y-73650110D01*
X35005215Y-73650110D01*
X34980711Y-73648906D01*
X34956443Y-73645306D01*
X34932644Y-73639345D01*
X34909545Y-73631080D01*
X34887366Y-73620590D01*
X34866323Y-73607978D01*
X34846617Y-73593363D01*
X34828439Y-73576887D01*
X34811963Y-73558709D01*
X34797348Y-73539003D01*
X34784736Y-73517960D01*
X34774246Y-73495781D01*
X34765981Y-73472682D01*
X34760020Y-73448883D01*
X34756420Y-73424615D01*
X34755216Y-73400111D01*
X34755216Y-72500109D01*
X34756420Y-72475605D01*
X34760020Y-72451337D01*
X34765981Y-72427538D01*
X34774246Y-72404439D01*
X34784736Y-72382260D01*
X34797348Y-72361217D01*
X34811963Y-72341511D01*
X34828439Y-72323333D01*
X34846617Y-72306857D01*
X34866323Y-72292242D01*
X34887366Y-72279630D01*
X34909545Y-72269140D01*
X34932644Y-72260875D01*
X34956443Y-72254914D01*
X34980711Y-72251314D01*
X35005215Y-72250110D01*
X35655217Y-72250110D01*
X35679721Y-72251314D01*
X35679721Y-72251314D01*
G37*
D11*
X35330216Y-72950110D03*
G04 #@! TD*
D12*
G04 #@! TO.C,R0*
X59725000Y-40960000D03*
X59725000Y-46040000D03*
D13*
X71300000Y-46275000D03*
X66450000Y-40725000D03*
X71300000Y-40725000D03*
X66450000Y-46275000D03*
G04 #@! TD*
M02*
