M48
;DRILL file {KiCad (5.0.2)-1} date 20/05/2019 19:09:18
;FORMAT={-:-/ absolute / inch / decimal}
FMAT,2
INCH,TZ
T1C0.0315
T2C0.0394
T3C0.0433
T4C0.0551
T5C0.0591
T6C0.3307
%
G90
G05
T1
X1.2811Y-1.5157
X1.2811Y-1.6339
X1.3189Y-1.8465
X1.5551Y-1.752
X1.7126Y-1.752
X1.8307Y-1.752
X2.2244Y-1.8126
X2.2962Y-2.185
X2.3425Y-1.8126
X2.3917Y-2.2806
X2.5787Y-2.2244
X2.7756Y-1.8701
X2.5787Y-2.1063
X2.7756Y-2.1063
X1.0315Y-1.122
X1.1041Y-0.9467
X1.1041Y-1.2974
X1.2795Y-0.874
X1.2795Y-1.3701
X1.4549Y-0.9467
X1.4549Y-1.2974
X1.5276Y-1.122
X1.8583Y-1.122
X1.9309Y-0.9467
X1.9309Y-1.2974
X2.1063Y-0.874
X2.1063Y-1.3701
X2.2817Y-0.9467
X2.2817Y-1.2974
X2.3543Y-1.122
X1.8583Y-2.9724
X1.9309Y-2.7971
X1.9309Y-3.1478
X2.1063Y-2.7244
X2.1063Y-3.2205
X2.2817Y-2.7971
X2.2817Y-3.1478
X2.3543Y-2.9724
T2
X1.2008Y-3.0512
X1.3008Y-3.0512
X1.4008Y-3.0512
T3
X2.5787Y-2.3819
X2.5787Y-2.4819
X2.5787Y-2.5819
X1.2008Y-2.4213
X1.2677Y-2.5669
X1.3346Y-2.4213
X1.4016Y-2.5669
X1.4685Y-2.4213
X1.1811Y-1.752
X1.2811Y-1.752
X1.3811Y-1.752
T4
X2.0276Y-1.5157
X2.0276Y-1.752
X2.0276Y-1.9488
X2.0276Y-2.1457
X2.2421Y-2.5394
X2.7116Y-1.7126
T5
X1.813Y-2.3425
X2.0276Y-2.3425
X2.2421Y-2.3425
T6
X1.2795Y-1.122
X2.1063Y-1.122
X2.1063Y-2.9724
T0
M30
